<svg width="24" height="24" viewBox="0 0 24 24" fill="none" xmlns="http://www.w3.org/2000/svg">
  <path
    d="M9.87093 17.5452L8.10093 19.2652C7.6368 19.7293 7.00731 19.9901 6.35093 19.9901C5.69455 19.9901 5.06506 19.7293 4.60093 19.2652C4.1368 18.8011 3.87606 18.1716 3.87606 17.5152C3.87606 16.8588 4.1368 16.2293 4.60093 15.7652L9.14093 11.2152C9.58654 10.7682 10.187 10.5095 10.8179 10.4927C11.4489 10.476 12.0622 10.7024 12.5309 11.1252L12.6509 11.2252C12.8406 11.4109 13.0962 11.5136 13.3615 11.5108C13.6269 11.508 13.8803 11.3998 14.0659 11.2102C14.2516 11.0206 14.3543 10.765 14.3515 10.4996C14.3487 10.2342 14.2406 9.98086 14.0509 9.79521C13.9945 9.72224 13.9344 9.65215 13.8709 9.58521C13.0173 8.84253 11.9133 8.45206 10.7825 8.49291C9.65173 8.53376 8.57876 9.00287 7.78093 9.80521L3.18093 14.3552C2.39929 15.206 1.97655 16.3259 2.001 17.481C2.02546 18.636 2.49521 19.737 3.31216 20.554C4.12911 21.3709 5.23009 21.8407 6.38518 21.8651C7.54026 21.8896 8.66014 21.4669 9.51093 20.6852L11.2409 18.9952C11.4117 18.8089 11.5056 18.5647 11.5037 18.3119C11.5018 18.0592 11.4043 17.8165 11.2306 17.6327C11.057 17.449 10.8203 17.3378 10.568 17.3216C10.3157 17.3053 10.0667 17.3852 9.87093 17.5452ZM20.5609 3.30521C19.7197 2.46922 18.5819 2 17.3959 2C16.21 2 15.0722 2.46922 14.2309 3.30521L12.5009 4.99521C12.3301 5.18156 12.2362 5.42569 12.2381 5.67848C12.24 5.93126 12.3376 6.17395 12.5112 6.3577C12.6848 6.54145 12.9216 6.65263 13.1739 6.66886C13.4261 6.6851 13.6752 6.60519 13.8709 6.44521L15.6009 4.72521C16.0651 4.26108 16.6946 4.00034 17.3509 4.00034C18.0073 4.00034 18.6368 4.26108 19.1009 4.72521C19.5651 5.18934 19.8258 5.81883 19.8258 6.47521C19.8258 7.13159 19.5651 7.76108 19.1009 8.22521L14.5609 12.7752C14.1153 13.2223 13.5149 13.4809 12.8839 13.4977C12.2529 13.5144 11.6396 13.288 11.1709 12.8652L11.0509 12.7652C10.8613 12.5796 10.6057 12.4768 10.3403 12.4797C10.075 12.4825 9.82158 12.5906 9.63593 12.7802C9.45028 12.9698 9.34756 13.2255 9.35037 13.4908C9.35319 13.7562 9.4613 14.0096 9.65093 14.1952C9.72357 14.2695 9.80036 14.3396 9.88093 14.4052C10.7356 15.1457 11.8392 15.5347 12.9692 15.4938C14.0993 15.453 15.1719 14.9854 15.9709 14.1852L20.5209 9.63521C21.3623 8.79929 21.8387 7.66444 21.8462 6.47846C21.8537 5.29248 21.3916 4.1517 20.5609 3.30521Z"
    fill="#083350" />
</svg>
