<svg width="51" height="50" viewBox="0 0 51 50" fill="none" xmlns="http://www.w3.org/2000/svg">
  <path
    d="M47.5616 34.6641L42.9991 22.2969C42.8608 21.9267 42.5868 21.6231 42.2328 21.4475C41.8788 21.272 41.4712 21.2377 41.0929 21.3516L39.9054 21.7031V0.757812C39.9033 0.556113 39.8217 0.363374 39.6784 0.221477C39.535 0.07958 39.3414 -1.05006e-05 39.1397 1.0391e-09H19.9444C19.8429 1.0391e-09 19.7491 0.0234375 19.6554 0.0546875C19.6163 0.0703125 19.585 0.101562 19.546 0.125C19.5069 0.148438 19.46 0.171875 19.421 0.203125L11.335 7.85938C11.335 7.85938 11.335 7.86719 11.3272 7.86719C11.2647 7.92969 11.2179 8 11.1788 8.07812C11.171 8.08594 11.1632 8.10156 11.1554 8.10938C11.1163 8.20312 11.0929 8.30469 11.0929 8.40625V20.2969C10.921 20.2891 10.7413 20.2969 10.5772 20.3438C10.171 20.4609 9.82723 20.7422 9.63973 21.1172L3.51473 33.0156C3.13192 33.7578 3.42098 34.6953 4.16317 35.0938L8.32724 37.3594C8.55526 37.4824 8.81031 37.5469 9.06942 37.5469C9.21786 37.5469 9.37411 37.5234 9.52255 37.4766C9.71005 37.4219 9.87411 37.3281 10.0225 37.2109C10.835 37.4766 11.3507 38.2109 11.6007 38.6562C11.3585 39.0781 11.2491 39.5547 11.3116 40.0469C11.3819 40.6484 11.6866 41.1875 12.1632 41.5703L12.3897 41.75C12.6944 41.9922 13.046 42.1406 13.4054 42.2031C13.3819 42.3906 13.3741 42.5781 13.3897 42.7656C13.46 43.3984 13.7647 43.9609 14.2569 44.3594C14.6866 44.7031 15.2022 44.8906 15.7413 44.8906C15.7882 44.8906 15.835 44.8828 15.8897 44.8828C15.9679 45.4766 16.2647 46.0156 16.7335 46.3984L16.9913 46.6016C17.421 46.9531 17.9366 47.1172 18.4522 47.1172C18.6866 47.1172 18.9132 47.0703 19.1319 47C19.2647 47.3516 19.4913 47.6797 19.8116 47.9297L19.8975 47.9922C20.2882 48.2969 20.7569 48.4609 21.2413 48.4609C21.3272 48.4609 21.4132 48.4531 21.4991 48.4453C21.8975 48.3984 22.2569 48.2422 22.5616 48.0078L23.7491 49.1875C24.2647 49.7109 24.9522 50 25.6632 50C25.71 50 25.7569 50 25.8038 49.9922C26.5304 49.9531 27.171 49.625 27.6163 49.0703C27.8429 48.7969 27.9913 48.4766 28.0772 48.1484C28.3975 48.2812 28.7335 48.3438 29.0772 48.3438C29.1397 48.3438 29.21 48.3438 29.2725 48.3359C29.96 48.2812 30.6007 47.9453 31.0538 47.3906C31.3038 47.0859 31.4757 46.7344 31.585 46.375C31.7725 46.4219 31.9679 46.4453 32.1632 46.4453C32.8507 46.4453 33.546 46.1797 34.0694 45.6484C34.1163 45.6016 34.1788 45.5391 34.2413 45.4453C34.4679 45.1641 34.6241 44.8516 34.7257 44.5312C35.1085 44.7266 35.5304 44.8359 35.9522 44.8359C36.0225 44.8359 36.0929 44.8359 36.1554 44.8281C36.8272 44.7734 37.421 44.4688 37.835 43.9609C38.71 42.8984 38.5225 41.2891 37.421 40.3047L37.2022 40.1094C38.3975 39.4766 39.4679 38.3047 39.7413 37.9844C39.8819 37.8125 40.1007 37.6641 40.3116 37.5391C40.4523 37.7554 40.6443 37.9336 40.8706 38.0577C41.0969 38.1817 41.3504 38.2478 41.6085 38.25C41.7804 38.25 41.9444 38.2266 42.1085 38.1641L46.5929 36.625C46.9913 36.4844 47.3116 36.2031 47.4913 35.8281C47.6866 35.4688 47.7022 35.0547 47.5616 34.6641ZM19.1866 2.51562V7.65625H13.7569L19.1866 2.51562ZM12.6085 9.17188H19.9366C20.3585 9.17188 20.6944 8.83594 20.6944 8.41406V1.51562H38.3741V22.1562L36.5225 22.7109C36.3197 22.7716 36.1314 22.8728 35.9689 23.0084C35.8064 23.1441 35.6731 23.3113 35.5772 23.5C35.485 23.6868 35.4312 23.8903 35.4191 24.0983C35.407 24.3064 35.4369 24.5147 35.5069 24.7109L35.5225 24.75L33.9679 25.1406L26.5538 24.1797C26.003 24.1064 25.4431 24.1432 24.9066 24.288C24.3702 24.4329 23.8679 24.6829 23.4288 25.0234L21.8975 26.2109L18.2804 26.0547L16.4757 25C16.8429 24.2734 16.585 23.3828 15.8819 22.9609L12.6085 21V9.17188ZM9.04598 36.0312L4.85848 33.7031L10.9835 21.8125L10.3116 21.4688L11.0225 21.8125L15.1241 24.3125L9.04598 36.0312ZM13.3194 40.5625L13.0929 40.3828C12.9359 40.2564 12.8348 40.0734 12.8114 39.8732C12.7881 39.673 12.8442 39.4717 12.9679 39.3125L14.1475 37.8203C14.2187 37.7309 14.3089 37.6585 14.4117 37.6085C14.5144 37.5585 14.627 37.5321 14.7413 37.5312C14.9054 37.5312 15.0694 37.5859 15.21 37.6953L15.4366 37.875C15.7647 38.1328 15.8194 38.6172 15.5616 38.9453L14.9679 39.6953L14.3429 40.4688C14.0772 40.7656 13.6319 40.8125 13.3194 40.5625ZM16.4132 43.0625C16.2725 43.2422 16.0616 43.3516 15.835 43.375C15.6007 43.3984 15.3819 43.3359 15.2022 43.1875C15.0225 43.0469 14.9132 42.8359 14.8897 42.6094C14.8663 42.3828 14.9288 42.1562 15.0772 41.9766L15.5069 41.4453C15.5304 41.4219 15.5616 41.3984 15.5772 41.375L16.171 40.625L17.6632 38.7812C17.8069 38.6042 18.0147 38.491 18.2414 38.4661C18.4681 38.4412 18.6954 38.5067 18.8741 38.6484C19.2413 38.9453 19.3038 39.4922 18.9991 39.8594L16.4132 43.0625ZM20.1163 44.0156L19.4913 44.8125L19.0929 45.3125C18.8116 45.6641 18.296 45.7188 17.9444 45.4375L17.6866 45.2344C17.5192 45.0974 17.4128 44.8996 17.3909 44.6844C17.3689 44.4691 17.4331 44.2539 17.5694 44.0859L19.5225 41.6641C19.6596 41.4966 19.8573 41.3903 20.0726 41.3683C20.2878 41.3463 20.503 41.4106 20.671 41.5469L20.9288 41.75C21.0962 41.887 21.2026 42.0848 21.2246 42.3C21.2465 42.5153 21.1823 42.7304 21.046 42.8984L20.2022 43.9375C20.1666 43.9546 20.1367 43.9818 20.1163 44.0156ZM22.4366 45.8438L21.7647 46.6953C21.6554 46.8359 21.4991 46.9219 21.3194 46.9453C21.1434 46.9631 20.9673 46.9128 20.8272 46.8047L20.7491 46.7422C20.6111 46.6319 20.5214 46.4722 20.4991 46.2969C20.4884 46.2096 20.4953 46.1211 20.5195 46.0365C20.5436 45.952 20.5845 45.8731 20.6397 45.8047L20.6866 45.7422L21.3507 44.9141C21.4835 44.7734 21.6554 44.6953 21.835 44.6953C21.9835 44.6953 22.1241 44.7422 22.2491 44.8359L22.335 44.8984C22.6163 45.1328 22.671 45.5547 22.4366 45.8438ZM36.671 43.0156C36.4757 43.25 36.2257 43.3203 36.046 43.3281C35.7179 43.3516 35.3819 43.2344 35.1085 42.9922L29.5772 38.1016C29.4264 37.9692 29.2296 37.9016 29.0293 37.9133C28.8289 37.925 28.6413 38.0151 28.5069 38.1641C28.2257 38.4766 28.2569 38.9531 28.5694 39.2344L33.2413 43.3594C33.4054 43.7188 33.335 44.1562 33.0538 44.5C33.0382 44.5234 33.0147 44.5469 32.9991 44.5703C32.5772 44.9922 31.921 45.0469 31.5069 44.6875L26.4132 40.2812C26.3379 40.2159 26.2504 40.166 26.1558 40.1346C26.0611 40.1031 25.9612 40.0906 25.8618 40.0979C25.7623 40.1052 25.6653 40.132 25.5762 40.1769C25.4872 40.2217 25.4079 40.2838 25.3429 40.3594C25.0694 40.6719 25.1007 41.1562 25.421 41.4297L30.171 45.5391C30.1866 45.8516 30.085 46.1562 29.8741 46.4062C29.6788 46.6484 29.421 46.7812 29.1475 46.8047C28.8272 46.8359 28.4913 46.7031 28.21 46.4531L27.6866 45.9844C27.6788 45.9766 27.6788 45.9766 27.6788 45.9688L27.671 45.9609L25.4757 43.9922C25.4014 43.9258 25.3147 43.8747 25.2207 43.8419C25.1266 43.8091 25.027 43.7952 24.9275 43.801C24.8281 43.8068 24.7307 43.8322 24.6411 43.8757C24.5515 43.9193 24.4714 43.9801 24.4054 44.0547C24.1241 44.3672 24.1554 44.8438 24.4679 45.125L26.5304 46.9688C26.71 47.3438 26.6788 47.7891 26.4366 48.0938C26.2647 48.3125 26.0069 48.4375 25.7257 48.4531C25.3975 48.4688 25.0694 48.3438 24.8194 48.0938L23.5616 46.875L23.6319 46.7891C24.3741 45.8438 24.2179 44.4688 23.2725 43.7188L23.1866 43.6562C22.9835 43.5 22.7647 43.3906 22.5382 43.3125C22.7506 42.8452 22.8014 42.3205 22.6826 41.8211C22.5638 41.3218 22.2821 40.8762 21.8819 40.5547L21.6241 40.3516C21.3272 40.1172 20.9913 39.9609 20.6319 39.8906C20.8429 39.0234 20.5616 38.0781 19.8272 37.4766C19.4258 37.1545 18.9303 36.9719 18.4158 36.9564C17.9014 36.9409 17.3958 37.0933 16.9757 37.3906C16.83 37.119 16.6307 36.8797 16.3897 36.6875L16.1632 36.5078C15.1788 35.7344 13.7413 35.8984 12.9679 36.8828L12.585 37.3672C12.21 36.8438 11.6397 36.25 10.8663 35.9062L15.796 26.3438L17.6944 27.4531C17.8038 27.5156 17.921 27.5547 18.046 27.5547L20.0538 27.6406L19.6241 27.9766C19.1319 28.3594 18.8116 28.9375 18.7569 29.5547L18.3507 34.3203C18.3038 34.8906 18.4913 35.4609 18.8663 35.8828C19.2413 36.3047 19.7491 36.5469 20.3038 36.5625C21.4757 36.5938 23.0304 35.875 23.921 32.1875C23.9991 31.8672 24.171 31.5625 24.421 31.3203C24.5382 31.2031 24.7335 31.1953 24.8585 31.3047L31.1085 36.7031L36.4288 41.4453C36.9054 41.8906 37.0225 42.5938 36.671 43.0156ZM38.5929 37.0156C37.8975 37.8125 36.6632 38.8672 35.9444 39L32.0929 35.5703L25.835 30.1641C25.1163 29.5391 24.0225 29.5781 23.3429 30.2422C22.8897 30.6875 22.5772 31.2344 22.4288 31.8359C21.9288 33.9062 21.1397 35.0938 20.335 35.0547C20.2668 35.0512 20.1999 35.0342 20.1382 35.0047C20.0765 34.9752 20.0213 34.9338 19.9757 34.8828C19.9244 34.8244 19.8855 34.7562 19.8614 34.6824C19.8372 34.6085 19.8282 34.5305 19.835 34.4531L20.2413 29.6875C20.2569 29.4844 20.3585 29.2969 20.5225 29.1797L24.3507 26.2266C24.921 25.7812 25.6397 25.5938 26.3585 25.6875L33.9132 26.6719C34.0069 26.6875 34.1007 26.6797 34.1944 26.6562L36.0538 26.1875L39.7335 36.1484C39.3663 36.3438 38.921 36.6328 38.5929 37.0156ZM41.5694 36.7344L36.9366 24.1875L36.96 24.1562L41.5772 22.8203L46.1163 35.2109L41.5694 36.7344Z"
    fill="#083350"
  />
  <path
    d="M27.2342 17.4406C27.2342 17.0867 27.1342 16.8055 26.9357 16.5984C26.7404 16.3859 26.4084 16.1922 25.9373 16.0148C25.5217 15.8615 25.1146 15.686 24.7178 15.4891C24.3987 15.3273 24.1022 15.1245 23.8357 14.8859C23.5946 14.6581 23.4008 14.3849 23.2654 14.082C23.131 13.775 23.0638 13.4102 23.0638 12.9859C23.0638 12.2555 23.2974 11.6562 23.7646 11.1891C24.231 10.7227 24.8513 10.4508 25.6256 10.3727V9.50312C25.6256 9.36554 25.6802 9.23359 25.7775 9.1363C25.8748 9.03902 26.0067 8.98438 26.1443 8.98438C26.2819 8.98438 26.4138 9.03902 26.5111 9.1363C26.6084 9.23359 26.6631 9.36554 26.6631 9.50312V10.3914C27.4287 10.4992 28.0271 10.8195 28.4599 11.3508C28.7506 11.7062 28.9435 12.132 29.0381 12.6297C29.1193 13.0539 28.7584 13.407 28.3271 13.407H28.0146C27.5834 13.407 27.2646 13.0445 27.124 12.6367C27.0777 12.4943 27.0051 12.3618 26.9099 12.2461C26.6974 11.9867 26.4123 11.857 26.0537 11.857C25.699 11.857 25.4248 11.9586 25.2303 12.1617C25.0349 12.3609 24.9381 12.6375 24.9381 12.9914C24.9381 13.3203 25.0334 13.5844 25.2232 13.7828C25.4138 13.982 25.7662 14.1852 26.2803 14.3922C26.7998 14.6 27.2256 14.7969 27.5584 14.9828C27.8912 15.1641 28.1717 15.3719 28.4013 15.6055C28.6303 15.8344 28.8053 16.0977 28.9263 16.3961C29.0474 16.6906 29.1076 17.0344 29.1076 17.4273C29.1076 18.1625 28.8787 18.7594 28.4201 19.2172C27.9623 19.6758 27.331 19.9461 26.5271 20.0281V20.8031C26.5271 20.9399 26.4728 21.071 26.3761 21.1677C26.2794 21.2644 26.1483 21.3188 26.0115 21.3188C25.8748 21.3188 25.7436 21.2644 25.6469 21.1677C25.5502 21.071 25.4959 20.9399 25.4959 20.8031V20.0344C24.6099 19.9391 23.9224 19.6258 23.4334 19.0945C23.1006 18.725 22.8818 18.2727 22.7771 17.7375C22.6959 17.3141 23.0568 16.9602 23.4881 16.9602H23.8006C24.2318 16.9602 24.5521 17.3234 24.7013 17.7289C24.7599 17.8898 24.842 18.0297 24.9443 18.1477C25.1912 18.4195 25.5435 18.5555 26.0013 18.5555C26.3818 18.5555 26.6826 18.4563 26.9029 18.2578C27.1232 18.0547 27.2342 17.782 27.2342 17.4406Z"
    fill="#083350"
  />
  <path
    d="M25.8906 22.5469C29.9292 22.5469 33.2031 19.273 33.2031 15.2344C33.2031 11.1958 29.9292 7.92191 25.8906 7.92191C21.852 7.92191 18.5781 11.1958 18.5781 15.2344C18.5781 19.273 21.852 22.5469 25.8906 22.5469Z"
    stroke="#083350"
  />
</svg>
