<svg width="24" height="24" viewBox="0 0 24 24" fill="none" xmlns="http://www.w3.org/2000/svg">
<path d="M17.1667 11.1667V6.16666L13 2H4.25C3.58333 2 3 2.58333 3 3.25V19.9167C3 20.5834 3.58333 21.1667 4.25 21.1667H15.9167C16.5833 21.1667 17.1667 20.5834 17.1667 19.9167V17.8334" stroke="#083350" stroke-width="1.6" stroke-linecap="round" stroke-linejoin="round"/>
<path d="M12.9998 2V4.91666C12.9998 5.58333 13.5832 6.16666 14.2498 6.16666H17.1665M7.1665 11.1667H20.4998V17.8334H7.1665V11.1667Z" stroke="#083350" stroke-width="1.5" stroke-linecap="round" stroke-linejoin="round"/>
<path d="M14.6665 12.8333H13.8332C13.3332 12.8333 12.9998 13.1666 12.9998 13.6666C12.9998 14.1666 13.3332 14.5 13.8332 14.5C14.3332 14.5 14.6665 14.8333 14.6665 15.3333C14.6665 15.8333 14.3332 16.1666 13.8332 16.1666H12.9998M11.3332 15.3333C11.3332 15.8333 10.9998 16.1666 10.4998 16.1666C9.99984 16.1666 9.6665 15.8333 9.6665 15.3333V13.6666C9.6665 13.1666 9.99984 12.8333 10.4998 12.8333C10.9998 12.8333 11.3332 13.1666 11.3332 13.6666M16.3332 12.8333V14.9166L17.1665 16.1666L17.9998 14.9166V12.8333" stroke="#083350" stroke-linecap="round" stroke-linejoin="round"/>
</svg>
