<svg width="24" height="24" viewBox="0 0 24 24" fill="none" xmlns="http://www.w3.org/2000/svg">
<path d="M4.13784 9.46854L10.5703 3.13903C10.8689 2.84516 11.3514 3.04861 11.3514 3.4555V6.52984C11.673 6.48463 12.0635 6.46202 12.4541 6.46202C17.1635 6.46202 21 10.1693 21 14.7356C21 17.7873 19.277 20.5 16.3824 21.9467C15.923 22.1728 15.5095 21.6302 15.8311 21.2459C16.6581 20.2739 17.0716 19.2341 17.0716 18.0812C17.0716 15.2329 14.6824 12.9046 11.7419 12.9046C11.6041 12.9046 11.4662 12.9046 11.3514 12.9272V16.1145C11.3514 16.5214 10.8689 16.7249 10.5703 16.431L4.13784 10.1015C3.95405 9.92064 3.95405 9.64938 4.13784 9.46854V9.46854ZM10.4324 15.0069V12.4977C10.4324 12.2716 10.5932 12.0908 10.823 12.0455C11.0986 12.0003 11.4203 11.9777 11.7419 11.9777C15.1878 11.9777 17.9905 14.713 17.9905 18.0586C17.9905 18.7367 17.8757 19.3923 17.623 20.0026C19.1851 18.6689 20.0811 16.7927 20.0811 14.7356C20.0811 10.6892 16.6581 7.38884 12.4541 7.38884C11.9027 7.38884 11.3514 7.47926 10.9838 7.54708C10.7081 7.59229 10.4324 7.38884 10.4324 7.09497V4.54056L5.1027 9.78501L10.4324 15.0069Z" fill="#083350" stroke="#083350"/>
</svg>
