<svg width="24" height="24" viewBox="-4 -4 24 24" fill="none" xmlns="http://www.w3.org/2000/svg">
<path d="m 15.44803,11.125 -1.4,-1.4 c -0.4,-0.4 -1,-0.7 -1.6,-0.7 -0.6,0 -1.2,0.2 -1.6,0.6 -0.2,0.3 -0.5,0.5 -0.9000001,0.5 -0.3,0 -0.6,-0.1 -0.9,-0.2 -1,-0.8 -2,-1.7 -2.7,-2.7 -0.1,-0.3 -0.2,-0.6 -0.2,-1 0,-0.3 0.2,-0.6 0.4,-0.9 0.4,-0.4 0.6,-1 0.6,-1.6 0,-0.6 -0.2,-1.2 -0.7,-1.6 l -1.3,-1.3 c -0.5,-0.5 -1,-0.7 -1.6,-0.7 -0.6,0 -1.2,0.2 -1.7,0.7 l -0.4,0.4 c -2.1,2.1 -2,6.6 2.5,11.1 2.7,2.7 5.4,3.8 7.6000001,3.8 0.6,0 1.3,-0.1 1.9,-0.3 0.6,-0.2 1.2,-0.6 1.6,-1 l 0.4,-0.4 c 0.4,-0.4 0.7,-1 0.7,-1.6 0,-0.7 -0.2,-1.2 -0.7,-1.7 z m -0.9,2.3 -0.4,0.4 c -1.7,1.7 -5.4000001,1.4 -9.3000001,-2.5 -3.8,-3.8 -4.1,-7.5 -2.4,-9.2 l 0.4,-0.4 c 0.2,-0.2 0.4,-0.3 0.7,-0.3 0.3,0 0.5,0.1 0.7,0.3 l 1.4,1.4 c 0.2,0.2 0.3,0.4 0.3,0.7 0,0.3 -0.1,0.5 -0.3,0.7 -0.4,0.4 -0.7,1 -0.8,1.6 0,0.6 0.1,1.3 0.4,1.8 0.9,1.2 1.9,2.2 3.1,3 0.5,0.3 1.1,0.5 1.8000001,0.4 0.6,-0.1 1.2,-0.3 1.6,-0.8 0.2,-0.2 0.4,-0.3 0.7,-0.3 0.3,0 0.5,0.1 0.7,0.3 l 1.4,1.4 c 0.1,0.1 0.2,0.2 0.2,0.3 0.1,0.1 0.1,0.2 0.1,0.4 0,0.1 0,0.3 -0.1,0.4 0,0.2 -0.1,0.3 -0.2,0.4 z" fill="#083350" />
</svg>
