<svg width="24" height="24" viewBox="0 0 24 24" fill="none" xmlns="http://www.w3.org/2000/svg">
<path d="M6.29177 12.7102C6.38473 12.804 6.49533 12.8784 6.61719 12.9291C6.73905 12.9799 6.86976 13.006 7.00177 13.006C7.13378 13.006 7.26449 12.9799 7.38635 12.9291C7.5082 12.8784 7.6188 12.804 7.71177 12.7102L11.0018 9.41024L11.0018 17.0002C11.0018 17.2655 11.1071 17.5198 11.2947 17.7074C11.4822 17.8949 11.7366 18.0002 12.0018 18.0002C12.267 18.0002 12.5213 17.8949 12.7089 17.7074C12.8964 17.5198 13.0018 17.2655 13.0018 17.0002L13.0018 9.41024L16.2918 12.7102C16.4801 12.8985 16.7355 13.0043 17.0018 13.0043C17.2681 13.0043 17.5235 12.8985 17.7118 12.7102C17.9001 12.5219 18.0059 12.2665 18.0059 12.0002C18.0059 11.7339 17.9001 11.4785 17.7118 11.2902L12.7118 6.29024C12.6167 6.1992 12.5045 6.12784 12.3818 6.08024C12.2621 6.02734 12.1326 6.00001 12.0018 6.00001C11.8709 6.00001 11.7415 6.02734 11.6218 6.08024C11.499 6.12784 11.3869 6.1992 11.2918 6.29024L6.29177 11.2902C6.19804 11.3832 6.12365 11.4938 6.07288 11.6157C6.02211 11.7375 5.99597 11.8682 5.99597 12.0002C5.99597 12.1323 6.02211 12.263 6.07288 12.3848C6.12365 12.5067 6.19804 12.6173 6.29177 12.7102Z" fill="#083350"/>
</svg>
