<svg width="24" height="24" viewBox="0 0 24 24" fill="none" xmlns="http://www.w3.org/2000/svg">
<path d="M15.2985 8.70153C15.2158 8.6182 15.1175 8.55206 15.0091 8.50692C14.9008 8.46178 14.7846 8.43854 14.6672 8.43854C14.5499 8.43854 14.4336 8.46178 14.3253 8.50692C14.217 8.55206 14.1186 8.6182 14.036 8.70153L12 10.7464L9.96402 8.70153C9.7966 8.53412 9.56954 8.44006 9.33277 8.44006C9.09601 8.44006 8.86895 8.53412 8.70153 8.70153C8.53412 8.86895 8.44006 9.09601 8.44006 9.33277C8.44006 9.56954 8.53412 9.7966 8.70153 9.96402L10.7464 12L8.70153 14.036C8.6182 14.1186 8.55206 14.217 8.50692 14.3253C8.46178 14.4336 8.43854 14.5499 8.43854 14.6672C8.43854 14.7846 8.46178 14.9008 8.50692 15.0091C8.55206 15.1175 8.6182 15.2158 8.70153 15.2985C8.78418 15.3818 8.88252 15.4479 8.99086 15.4931C9.0992 15.5382 9.21541 15.5615 9.33277 15.5615C9.45014 15.5615 9.56635 15.5382 9.67469 15.4931C9.78303 15.4479 9.88137 15.3818 9.96402 15.2985L12 13.2536L14.036 15.2985C14.1186 15.3818 14.217 15.4479 14.3253 15.4931C14.4336 15.5382 14.5499 15.5615 14.6672 15.5615C14.7846 15.5615 14.9008 15.5382 15.0091 15.4931C15.1175 15.4479 15.2158 15.3818 15.2985 15.2985C15.3818 15.2158 15.4479 15.1175 15.4931 15.0091C15.5382 14.9008 15.5615 14.7846 15.5615 14.6672C15.5615 14.5499 15.5382 14.4336 15.4931 14.3253C15.4479 14.217 15.3818 14.1186 15.2985 14.036L13.2536 12L15.2985 9.96402C15.3818 9.88137 15.4479 9.78303 15.4931 9.67469C15.5382 9.56635 15.5615 9.45014 15.5615 9.33277C15.5615 9.21541 15.5382 9.0992 15.4931 8.99086C15.4479 8.88252 15.3818 8.78418 15.2985 8.70153V8.70153ZM18.2858 5.71424C17.4656 4.86508 16.4846 4.18777 15.3999 3.72181C14.3152 3.25586 13.1485 3.01059 11.968 3.00034C10.7875 2.99008 9.61677 3.21503 8.52413 3.66206C7.43149 4.1091 6.43882 4.76926 5.60404 5.60404C4.76926 6.43882 4.1091 7.43149 3.66206 8.52413C3.21503 9.61677 2.99008 10.7875 3.00034 11.968C3.01059 13.1485 3.25586 14.3152 3.72181 15.3999C4.18777 16.4846 4.86508 17.4656 5.71424 18.2858C6.53438 19.1349 7.51543 19.8122 8.60014 20.2782C9.68484 20.7441 10.8515 20.9894 12.032 20.9997C13.2125 21.0099 14.3832 20.785 15.4759 20.3379C16.5685 19.8909 17.5612 19.2307 18.396 18.396C19.2307 17.5612 19.8909 16.5685 20.3379 15.4759C20.785 14.3832 21.0099 13.2125 20.9997 12.032C20.9894 10.8515 20.7441 9.68484 20.2782 8.60014C19.8122 7.51543 19.1349 6.53438 18.2858 5.71424V5.71424ZM17.0322 17.0322C15.8693 18.1963 14.3387 18.9213 12.7013 19.0835C11.0638 19.2458 9.4208 18.8353 8.05208 17.9219C6.68337 17.0086 5.67366 15.6489 5.195 14.0746C4.71633 12.5003 4.79832 10.8088 5.42699 9.28813C6.05567 7.76749 7.19213 6.51187 8.64276 5.73519C10.0934 4.95851 11.7684 4.70881 13.3825 5.02865C14.9966 5.34849 16.4499 6.21807 17.4947 7.48924C18.5395 8.76042 19.1113 10.3545 19.1126 12C19.1158 12.9347 18.9335 13.8607 18.5764 14.7245C18.2193 15.5882 17.6944 16.3726 17.0322 17.0322V17.0322Z" fill="#083350"/>
</svg>
