<svg width="24" height="24" viewBox="0 0 24 24" fill="none" xmlns="http://www.w3.org/2000/svg">
  <path
    d="m 7.8378041,18.444856 4.1245759,-2.469491 4.124571,2.495762 -1.103387,-4.676269 3.625419,-3.152541 -4.781351,-0.420339 -1.865252,-4.4135563 -1.865256,4.3872873 -4.7813549,0.420338 3.6254231,3.152541 z M 11.96238,17.814347 7.0759407,20.756719 Q 6.8657694,20.888074 6.6293282,20.874939 6.3928911,20.861803 6.2089893,20.730447 6.0250927,20.599092 5.9331459,20.388923 5.8411954,20.178753 5.8937542,19.916041 L 7.1810397,14.346554 2.8725666,10.589773 Q 2.6623997,10.405876 2.6229926,10.182571 2.5836009,9.9592672 2.6361355,9.7490959 2.6886773,9.5389287 2.8725769,9.3944383 3.0564742,9.2499436 3.3191896,9.2236738 L 9.0200314,8.7245216 11.226811,3.4702877 q 0.105084,-0.2364408 0.315252,-0.3546615 0.210171,-0.1182207 0.420342,-0.1182207 0.210167,0 0.420339,0.1182207 0.210167,0.1182207 0.315251,0.3546615 l 2.20678,5.2542339 5.700843,0.4991522 q 0.262714,0.026249 0.446612,0.1707645 0.183897,0.1444904 0.236441,0.3546576 0.05254,0.2101713 0.01314,0.4334751 -0.03939,0.223305 -0.249574,0.407202 l -4.308474,3.756781 1.28729,5.569487 q 0.05254,0.262712 -0.03939,0.472882 -0.09195,0.210169 -0.275848,0.341524 -0.183901,0.131356 -0.420338,0.144492 -0.236442,0.01314 -0.446613,-0.11822 z m 0,-5.411862 z"
    fill="#083350"
  />
</svg>
