<svg
width="24"
height="24"
viewBox="0 0 24 24"
fill="none"
xmlns="http://www.w3.org/2000/svg">
<path d="M20.8596 12.5C20.8596 12.9242 20.8315 13.3484 20.7752 13.7703C20.7846 13.707 20.7916 13.6461
20.801 13.5828C20.6885 14.4195 20.4658 15.2399 20.14 16.0203C20.1635 15.9641 20.1869 15.9078 20.2104 15.8516C20.0205 16.2992 19.7979 16.7328 19.5447 17.1477C19.4205 17.3492 19.2893 17.5461 19.151 17.7383C19.1205 17.7805 19.09 17.8203 19.0596 17.8625C19.0408 17.8883 19.0221 17.9117 19.0033 17.9352C18.9283 18.0359 19.1158 17.7922 19.0385 17.8906C18.9611 17.9867 18.8861 18.0828 18.8065 18.1766C18.5018 18.5352 18.1713 18.8727 17.8174 19.1844C17.733 19.2594 17.6463 19.332 17.5596 19.4024C17.5127 19.4422 17.4635 19.4797 17.4166 19.5172C17.3768 19.55 17.276 19.6227 17.4611 19.482C17.433 19.5031 17.4049 19.5266 17.3744 19.5477C17.1822 19.693 16.983 19.8289 16.7791 19.9602C16.3268 20.2484 15.8486 20.4992 15.3541 20.7078C15.4104 20.6844 15.4666 20.6609 15.5229 20.6375C14.7424 20.9633 13.9244 21.1859 13.0854 21.2985C13.1486 21.2891 13.2096 21.282 13.2729 21.2727C12.4268 21.3828 11.569 21.3828 10.7252 21.2727C10.7885 21.282 10.8494 21.2891 10.9127 21.2985C10.0783 21.1859 9.26505 20.9656 8.48926 20.6399C8.54551 20.6633 8.60176 20.6867 8.65801 20.7102C8.22442 20.5274 7.80255 20.3117 7.39942 20.068C7.20255 19.9485 7.00801 19.8195 6.82051 19.6859C6.72442 19.618 6.62598 19.55 6.53458 19.475C6.53692 19.4774 6.67989 19.5875 6.59317 19.5195C6.57442 19.5055 6.55567 19.4891 6.53692 19.475C6.48067 19.4305 6.42676 19.386 6.37286 19.3414C6.01895 19.0461 5.68614 18.725 5.37911 18.3828C5.29942 18.2938 5.21973 18.2024 5.14239 18.1086C5.10958 18.0711 5.07911 18.0313 5.04864 17.9938C5.0252 17.9656 5.00176 17.9352 4.97833 17.907C4.90098 17.8086 5.07911 18.0383 4.99708 17.9328C4.85176 17.7406 4.71114 17.5414 4.57989 17.3399C4.27755 16.8734 4.01739 16.3813 3.79942 15.8703C3.82286 15.9266 3.8463 15.9828 3.86973 16.0391C3.54395 15.2633 3.31895 14.4477 3.20411 13.6133C3.21348 13.6766 3.22051 13.7375 3.22989 13.8008C3.11505 12.9477 3.11505 12.0828 3.22755 11.2297C3.21817 11.293 3.21114 11.3539 3.20176 11.4172C3.31426 10.5828 3.53458 9.76954 3.86036 8.99142C3.83692 9.04767 3.81348 9.10392 3.79005 9.16017C3.9963 8.67267 4.24239 8.19923 4.52598 7.75157C4.6502 7.5547 4.78145 7.36251 4.91973 7.17501C4.95489 7.12814 4.99005 7.08126 5.0252 7.03673C4.88223 7.22892 5.0088 7.05782 5.04395 7.01564C5.11661 6.92423 5.19161 6.83517 5.26661 6.74845C5.5713 6.39689 5.89942 6.06876 6.25098 5.76407C6.33536 5.69142 6.41973 5.62111 6.50411 5.55314C6.54395 5.52032 6.58614 5.48986 6.62598 5.4547C6.43145 5.61173 6.63301 5.45001 6.67755 5.4172C6.86505 5.27892 7.05723 5.14767 7.25411 5.02345C7.69942 4.7422 8.16817 4.49845 8.65567 4.2922C8.59942 4.31564 8.54317 4.33907 8.48692 4.36251C9.26505 4.03673 10.0807 3.81642 10.915 3.70392C10.8518 3.71329 10.7908 3.72032 10.7275 3.7297C11.576 3.61954 12.4361 3.61954 13.2846 3.73204C13.2213 3.72267 13.1604 3.71564 13.0971 3.70626C13.9338 3.82111 14.7518 4.04376 15.5275 4.36954C15.4713 4.34611 15.415 4.32267 15.3588 4.29923C15.7994 4.48673 16.226 4.7047 16.6315 4.95314C16.833 5.07735 17.0322 5.20861 17.2244 5.34689C17.2713 5.3797 17.3158 5.41251 17.3604 5.44767C17.3885 5.46876 17.4143 5.48986 17.4424 5.50861C17.2713 5.38439 17.3533 5.44064 17.3932 5.47111C17.4869 5.54376 17.5783 5.61876 17.6697 5.69611C18.0307 6.00079 18.3705 6.33361 18.6822 6.68986C18.7596 6.77892 18.8369 6.86798 18.9119 6.96173C18.9471 7.00626 18.9822 7.04845 19.0174 7.09298C19.0479 7.13282 19.1065 7.21486 18.9799 7.04376C19.0033 7.07657 19.0268 7.10704 19.0525 7.13751C19.1955 7.32736 19.3291 7.52189 19.458 7.72345C19.7486 8.17814 19.9994 8.65861 20.2104 9.15782C20.1869 9.10157 20.1635 9.04532 20.14 8.98907C20.4658 9.7672 20.6861 10.5852 20.7986 11.4195C20.7893 11.3563 20.7822 11.2953 20.7729 11.232C20.8315 11.6516 20.8596 12.0758 20.8596 12.5C20.8596 12.868 21.183 13.2195 21.5627 13.2031C21.9424 13.1867 22.2658 12.8938 22.2658 12.5C22.2611 10.2852 21.5393 8.07735 20.1893 6.3172C19.5518 5.48517 18.8158 4.76564 17.9674 4.14923C17.1635 3.56564 16.2658 3.11329 15.326 2.78751C13.1018 2.01642 10.5752 2.04923 8.37676 2.89532C6.41739 3.65001 4.73926 4.96486 3.53926 6.68751C2.17989 8.63986 1.54473 11.1008 1.7838 13.468C1.90098 14.6305 2.19864 15.7391 2.68145 16.8031C3.12676 17.7852 3.74551 18.6899 4.47676 19.482C5.88301 21.0055 7.77911 22.0953 9.80645 22.5289C11.7354 22.9414 13.7908 22.8125 15.633 22.1C17.3205 21.4484 18.8416 20.375 19.9736 18.957C21.1268 17.5133 21.9049 15.7953 22.1557 13.9578C22.2213 13.4727 22.2635 12.9899 22.2635 12.5C22.2635 12.132 21.94 11.7805 21.5604 11.7969C21.1807 11.8133 20.8596 12.1063 20.8596 12.5Z" fill="#083350"/>
<path d="M9.01666 8.08201C8.6815 8.49451 8.34869 8.90467 8.01353 9.31717C7.82837 9.54451 7.64556 9.77186 7.46041 9.99686C7.39478 10.0789 7.32681 10.1586 7.26587 10.243C7.0315 10.564 6.97759 10.9906 7.08072 11.3703C7.21431 11.8695 7.35728 12.3734 7.51197 12.8656C7.62212 13.2148 7.8565 13.5359 8.194 13.693C8.28072 13.7328 8.36978 13.7703 8.4565 13.8101C8.75181 13.9414 9.04712 14.0703 9.34244 14.2015C9.4315 14.2414 9.51822 14.2836 9.60962 14.314C9.73619 14.3562 9.87212 14.3703 10.0034 14.3797C10.1463 14.389 10.2917 14.3984 10.4346 14.4078C10.7417 14.4265 11.0534 14.4406 11.3604 14.4664C11.2971 14.457 11.2362 14.45 11.1729 14.4406C11.2292 14.4476 11.2807 14.4617 11.3346 14.4828C11.2784 14.4594 11.2221 14.4359 11.1659 14.4125C11.2034 14.4289 11.2432 14.4617 11.2831 14.4734C11.187 14.3937 11.1659 14.3773 11.2198 14.4242C11.2362 14.4383 11.2526 14.4547 11.2667 14.4711C11.194 14.3703 11.1776 14.3492 11.2174 14.4078C11.2292 14.4265 11.2409 14.4476 11.2502 14.4664C11.2573 14.4805 11.2596 14.4898 11.2667 14.5015C11.2831 14.539 11.2995 14.5789 11.3159 14.6187C11.3956 14.8062 11.4776 14.9937 11.5573 15.1812C11.6956 15.5 11.8315 15.8187 11.9698 16.1375C11.9463 16.0812 11.9229 16.025 11.8995 15.9687C11.9229 16.0297 11.9393 16.0883 11.9487 16.1539C11.9393 16.0906 11.9323 16.0297 11.9229 15.9664C11.9276 16.018 11.9252 16.0672 11.9206 16.1187C11.9299 16.0555 11.937 15.9945 11.9463 15.9312C11.9229 16.0765 11.8901 16.2195 11.862 16.3625C11.8174 16.5805 11.7542 16.8125 11.7729 17.0351C11.801 17.375 11.9627 17.682 12.0893 17.9937C12.2135 18.2961 12.3354 18.5961 12.4596 18.8984C12.4924 18.9758 12.5229 19.0555 12.5581 19.1305C12.6588 19.3484 12.8393 19.5219 13.0362 19.6531C13.2846 19.8219 13.601 19.8758 13.8963 19.8476C14.0698 19.8312 14.2432 19.8148 14.4167 19.7961C14.5338 19.7844 14.6534 19.775 14.7682 19.7492C14.9979 19.6953 15.2252 19.5594 15.3893 19.393C15.5956 19.1797 15.7573 18.8914 15.926 18.6476C16.1299 18.3523 16.3338 18.057 16.5377 17.7617C16.5659 17.7195 16.594 17.6797 16.6221 17.6375C16.6877 17.5414 16.5917 17.689 16.5823 17.6867C16.5846 17.6867 16.6502 17.6211 16.6573 17.614C16.5331 17.743 16.5073 17.7289 16.5518 17.6961C16.5729 17.682 16.5917 17.6656 16.6127 17.6515C16.6854 17.5976 16.7581 17.5437 16.8284 17.4898C16.9854 17.3726 17.1659 17.2601 17.3065 17.1219C17.5737 16.8594 17.719 16.4773 17.7002 16.1047C17.6838 15.7812 17.6627 15.4601 17.644 15.139C17.6417 15.0805 17.6393 15.0219 17.644 14.9633C17.6346 15.0265 17.6276 15.0875 17.6182 15.1508C17.6276 15.0875 17.644 15.0289 17.6698 14.9703C17.6463 15.0265 17.6229 15.0828 17.5995 15.139C17.6323 15.0687 17.7354 14.9328 17.569 15.1484C17.5737 15.1437 17.5784 15.1367 17.5831 15.132C17.6042 15.1039 17.6252 15.0758 17.6463 15.05C17.7213 14.9539 17.7963 14.8578 17.8713 14.7594C18.0659 14.5086 18.2604 14.2555 18.4549 14.0047C18.6612 13.7375 18.9096 13.4726 18.9776 13.1328C19.0338 12.8539 19.0526 12.5586 19.0784 12.275C19.1135 11.8906 18.9354 11.4758 18.6518 11.2203C18.4877 11.075 18.2932 10.9578 18.0776 10.9062C17.8362 10.8476 17.6463 10.8664 17.4049 10.9039C17.4682 10.8945 17.5292 10.8875 17.5924 10.8781C17.5338 10.8851 17.4776 10.8828 17.4213 10.8758C17.4846 10.8851 17.5456 10.8922 17.6088 10.9015C17.5526 10.8922 17.4987 10.8781 17.4471 10.8547C17.5034 10.8781 17.5596 10.9015 17.6159 10.925C17.5807 10.9086 17.5456 10.8875 17.5127 10.8687C17.4424 10.8265 17.6299 10.9765 17.576 10.9156C17.5737 10.9133 17.5409 10.8781 17.5409 10.8781C17.5526 10.8734 17.6393 11.0211 17.5831 10.9297C17.5643 10.9015 17.5456 10.8734 17.5292 10.8453C17.4448 10.7117 17.3581 10.5805 17.2737 10.4469C17.0417 10.0859 16.8096 9.72498 16.5752 9.36405C16.3596 9.02655 16.1557 8.63514 15.7854 8.4453C15.5323 8.31639 15.2651 8.27186 14.9862 8.2953C14.8057 8.30936 14.6252 8.32342 14.4448 8.33983C14.2034 8.35858 13.9596 8.37967 13.7182 8.39842C13.5706 8.41014 13.4159 8.43592 13.2659 8.41717C13.3292 8.42655 13.3901 8.43358 13.4534 8.44295C13.4018 8.43358 13.3549 8.41951 13.3081 8.40076C13.3643 8.4242 13.4206 8.44764 13.4768 8.47108C13.4159 8.44295 13.3057 8.34686 13.4557 8.48045C13.4487 8.47342 13.4417 8.46873 13.4346 8.4617C13.3971 8.42889 13.3573 8.39608 13.3198 8.36561C13.2026 8.26483 13.0831 8.16639 12.9659 8.06561C12.8721 7.98826 12.7807 7.90858 12.687 7.83123C12.4174 7.60858 12.1245 7.46326 11.7682 7.46092C11.5784 7.45858 11.3838 7.49608 11.194 7.51483C10.887 7.5453 10.5799 7.57811 10.2729 7.60858C10.1721 7.61795 10.0713 7.62733 9.97056 7.63905C9.60025 7.68358 9.26041 7.79842 9.01666 8.08201C8.89244 8.22498 8.81041 8.38436 8.81041 8.57889C8.81041 8.75233 8.88775 8.95623 9.01666 9.07576C9.27916 9.31717 9.75494 9.37342 10.0104 9.07576C10.0245 9.05701 10.0409 9.03826 10.0596 9.02186C10.1135 8.97264 10.0924 8.9867 9.99869 9.06405C10.0409 9.04998 10.0831 9.01483 10.1229 8.99608C10.0667 9.01951 10.0104 9.04295 9.95416 9.06639C9.99869 9.04998 10.0432 9.03592 10.0924 9.02889C10.0292 9.03826 9.96822 9.0453 9.90494 9.05467C10.2167 9.01248 10.5331 8.98905 10.8471 8.95623C11.0487 8.93514 11.2479 8.91405 11.4495 8.8953C11.576 8.88123 11.7049 8.86014 11.8292 8.87186C11.7659 8.86248 11.7049 8.85545 11.6417 8.84608C11.7026 8.85545 11.7588 8.87186 11.8151 8.8953C11.7588 8.87186 11.7026 8.84842 11.6463 8.82498C11.7143 8.8578 11.8034 8.94217 11.6604 8.81092C11.6651 8.81561 11.6698 8.8203 11.6745 8.82264C11.7049 8.85076 11.7377 8.87655 11.7682 8.90233C11.8737 8.99139 11.9815 9.0828 12.087 9.17186C12.3471 9.39217 12.5956 9.63123 12.919 9.75545C13.1862 9.85858 13.4487 9.82576 13.7206 9.80233C14.0018 9.77889 14.2807 9.7578 14.562 9.73436C14.7752 9.71795 15.0073 9.67342 15.2206 9.69686C15.1573 9.68748 15.0963 9.68045 15.0331 9.67108C15.0893 9.68045 15.1432 9.69451 15.1971 9.71795C15.1409 9.69451 15.0846 9.67108 15.0284 9.64764C15.0542 9.65936 15.0799 9.67108 15.1034 9.68748C15.1854 9.7367 15.1057 9.73436 15.0565 9.64764C15.0635 9.65936 15.0987 9.68983 15.1057 9.69686C15.0096 9.6242 15.0237 9.57967 15.0588 9.63826C15.0635 9.6453 15.0682 9.65467 15.0752 9.6617C15.1104 9.71326 15.1432 9.76717 15.176 9.81873C15.3073 10.0226 15.4385 10.2265 15.5698 10.4305C15.8229 10.8242 16.076 11.218 16.3292 11.6117C16.4252 11.7617 16.5331 11.8953 16.6737 12.0031C16.826 12.1203 16.9971 12.2164 17.187 12.2562C17.4143 12.3055 17.6042 12.289 17.8338 12.2515C17.7706 12.2609 17.7096 12.268 17.6463 12.2773C17.7002 12.2726 17.7495 12.2703 17.8034 12.275C17.7401 12.2656 17.6792 12.2586 17.6159 12.2492C17.6768 12.2586 17.7331 12.2726 17.7917 12.2961C17.7354 12.2726 17.6792 12.2492 17.6229 12.2258C17.6581 12.2422 17.6909 12.268 17.7284 12.282C17.6276 12.2 17.6018 12.1812 17.6557 12.2258C17.6674 12.2351 17.6768 12.2469 17.6885 12.2562C17.7963 12.3476 17.6065 12.118 17.6604 12.2187C17.6792 12.2539 17.6979 12.2867 17.7143 12.3242C17.6909 12.268 17.6674 12.2117 17.644 12.1555C17.6627 12.2047 17.6745 12.2515 17.6838 12.3031C17.6745 12.2398 17.6674 12.1789 17.6581 12.1156C17.6745 12.2539 17.6463 12.3969 17.6299 12.5328C17.6159 12.657 17.6018 12.7812 17.5877 12.9078C17.5971 12.8445 17.6042 12.7836 17.6135 12.7203C17.6042 12.7859 17.5877 12.8445 17.5643 12.9055C17.5877 12.8492 17.6112 12.793 17.6346 12.7367C17.6299 12.7461 17.5901 12.8398 17.5784 12.8375C17.5784 12.8375 17.6674 12.725 17.6651 12.7273C17.6627 12.732 17.6581 12.7367 17.6534 12.7414C17.637 12.7648 17.6182 12.7859 17.6018 12.8094C17.5338 12.8961 17.4682 12.9828 17.4002 13.0695C17.2174 13.3062 17.0346 13.543 16.8518 13.7797C16.7182 13.9508 16.5776 14.1195 16.451 14.2976C16.2049 14.6445 16.219 15.0289 16.2424 15.425C16.2588 15.6922 16.3034 15.9758 16.2799 16.2453C16.2893 16.182 16.2963 16.1211 16.3057 16.0578C16.2987 16.1164 16.2846 16.1703 16.2635 16.2265C16.287 16.1703 16.3104 16.114 16.3338 16.0578C16.3221 16.0836 16.3104 16.1094 16.2963 16.1351C16.2495 16.2148 16.2424 16.1515 16.3362 16.093C16.3221 16.1023 16.2987 16.1328 16.287 16.1445C16.2049 16.2289 16.3713 16.0812 16.3737 16.0812C16.3456 16.1 16.3174 16.1234 16.2917 16.1422C16.1862 16.2219 16.0784 16.3015 15.9729 16.3789C15.8581 16.4656 15.7315 16.5476 15.626 16.6461C15.5323 16.7328 15.4596 16.843 15.387 16.9484C15.1057 17.3539 14.8245 17.7617 14.5432 18.1672C14.487 18.2469 14.4331 18.3265 14.3768 18.4086C14.3651 18.425 14.3534 18.4414 14.3417 18.4578C14.3393 18.4601 14.4565 18.3359 14.3838 18.3992C14.3651 18.4156 14.276 18.4906 14.3768 18.4109C14.4799 18.3289 14.3581 18.4133 14.3299 18.4273C14.3862 18.4039 14.4424 18.3805 14.4987 18.357C14.4448 18.3805 14.3909 18.3945 14.3323 18.4062C14.3956 18.3969 14.4565 18.3898 14.5198 18.3805C14.3838 18.3969 14.2456 18.4086 14.1073 18.4203C13.962 18.4344 13.812 18.4625 13.6643 18.4484C13.7276 18.4578 13.7885 18.4648 13.8518 18.4742C13.7862 18.4648 13.7252 18.4484 13.6643 18.4226C13.7206 18.4461 13.7768 18.4695 13.8331 18.493C13.8049 18.4789 13.7768 18.4625 13.7487 18.4484C13.6432 18.3922 13.8823 18.5726 13.7792 18.4672C13.6807 18.3664 13.8401 18.5703 13.8073 18.507C13.7885 18.4719 13.7698 18.439 13.7534 18.4039C13.7768 18.4601 13.8002 18.5164 13.8237 18.5726C13.7112 18.2984 13.5987 18.0219 13.4862 17.7476C13.4135 17.5695 13.3409 17.389 13.2659 17.2109C13.2167 17.0937 13.1627 16.9765 13.1417 16.85C13.151 16.9133 13.1581 16.9742 13.1674 17.0375C13.1627 16.9812 13.1627 16.9273 13.1674 16.8734C13.1581 16.9367 13.151 16.9976 13.1417 17.0609C13.219 16.6015 13.4159 16.093 13.2565 15.6336C13.1463 15.3148 12.9893 15.0055 12.8557 14.6961C12.7268 14.3984 12.6049 14.0984 12.4713 13.8031C12.3143 13.4539 11.9463 13.1633 11.569 13.093C11.3956 13.0601 11.2198 13.0531 11.044 13.0437C10.6737 13.0203 10.2987 13.0062 9.92837 12.9711C9.99166 12.9805 10.0526 12.9875 10.1159 12.9969C10.0526 12.9875 9.994 12.9711 9.93541 12.9476C9.99166 12.9711 10.0479 12.9945 10.1042 13.018C9.85572 12.9078 9.60728 12.7976 9.35884 12.6898C9.22291 12.6289 9.08697 12.5703 8.95103 12.5094C8.92994 12.5 8.90884 12.4906 8.88541 12.4812C8.85494 12.4672 8.82681 12.4508 8.79869 12.4344C8.69322 12.3781 8.91119 12.5492 8.83853 12.4625C8.73541 12.3406 8.88072 12.5375 8.85728 12.4906C8.83853 12.4555 8.81978 12.425 8.80572 12.3898C8.82916 12.4461 8.85259 12.5023 8.87603 12.5586C8.77525 12.2914 8.71197 12.0055 8.63462 11.7336C8.58306 11.5578 8.53384 11.382 8.48228 11.2062C8.45181 11.1008 8.41431 10.993 8.40025 10.8851C8.40962 10.9484 8.41666 11.0094 8.42603 11.0726C8.42134 11.0234 8.42134 10.9765 8.42603 10.9297C8.41666 10.993 8.40962 11.0539 8.40025 11.1172C8.40962 11.0562 8.42369 11.0023 8.44478 10.9437C8.42134 11 8.39791 11.0562 8.37447 11.1125C8.41431 11.0234 8.52447 10.8992 8.36041 11.0961C8.36978 11.0867 8.37681 11.075 8.38619 11.0656C8.42134 11.0211 8.4565 10.9765 8.494 10.9344C8.62291 10.775 8.75416 10.6156 8.88306 10.4562C9.18306 10.0859 9.48306 9.71795 9.78306 9.34764C9.85572 9.25858 9.92603 9.16951 9.99869 9.08045C10.1206 8.93045 10.2049 8.7828 10.2049 8.58358C10.2049 8.41014 10.1276 8.20623 9.99869 8.0867C9.75494 7.84764 9.26275 7.77733 9.01666 8.08201ZM6.04244 15.0265C5.74244 15.3687 5.44009 15.7109 5.14009 16.0531C5.09791 16.1 5.05572 16.1469 5.01353 16.1961C4.90806 16.3203 4.85181 16.4515 4.79791 16.5992C4.70884 16.843 4.62212 17.089 4.53306 17.3328C4.46041 17.5344 4.38775 17.7359 4.31509 17.9375C4.33853 17.8812 4.36197 17.825 4.38541 17.7687C4.30103 17.968 4.21666 18.1672 4.13228 18.3664C4.50025 18.3195 4.86822 18.2726 5.23619 18.2234C5.1565 18.1297 5.07681 18.0336 4.99947 17.9375C4.98306 17.9187 4.969 17.8976 4.95259 17.8789C5.0815 18.0383 5.01119 17.9562 4.98306 17.9187C4.94556 17.8695 4.90806 17.8203 4.87291 17.7687C4.72994 17.5742 4.594 17.3726 4.46744 17.1664C4.21197 16.7515 3.98697 16.318 3.79712 15.8703C3.82056 15.9265 3.844 15.9828 3.86744 16.039C3.54166 15.2633 3.31666 14.4476 3.20181 13.6133C3.21119 13.6765 3.21822 13.7375 3.22759 13.8008C3.11275 12.9476 3.11275 12.0828 3.22525 11.2297C3.21588 11.293 3.20884 11.3539 3.19947 11.4172C3.21119 11.3281 3.22525 11.239 3.23931 11.15C2.81041 11.2062 2.3815 11.2625 1.95494 11.3187C2.42838 11.9633 2.92525 12.5984 3.37759 13.257C3.63072 13.6226 3.86041 14.007 4.09947 14.382C4.17681 14.5039 4.25416 14.6164 4.369 14.7078C4.54712 14.8484 4.72525 14.9867 4.90337 15.1273C5.28306 15.4273 5.66275 15.725 6.04478 16.025C6.19712 16.1445 6.34009 16.2312 6.54166 16.2312C6.71509 16.2312 6.919 16.1539 7.03853 16.025C7.16041 15.8914 7.25181 15.7156 7.24478 15.5281C7.23775 15.3547 7.1815 15.1437 7.03853 15.0312C6.71509 14.7758 6.39166 14.5226 6.06822 14.2672C5.86666 14.1101 5.66744 13.9508 5.46587 13.7937C5.41197 13.7515 5.36041 13.707 5.30416 13.6672C5.19869 13.5922 5.44712 13.8828 5.36509 13.7515C5.11666 13.3578 4.86587 12.964 4.61041 12.575C4.42291 12.289 4.20728 12.0219 4.00572 11.7476C3.72681 11.368 3.44791 10.9883 3.169 10.6086C2.99791 10.3742 2.77056 10.2312 2.46822 10.2734C2.21744 10.3062 1.92681 10.5055 1.88463 10.7773C1.68306 12.0406 1.69478 13.3062 1.94322 14.5625C2.15884 15.6523 2.569 16.714 3.12916 17.6726C3.45025 18.2234 3.82759 18.739 4.24244 19.2219C4.38541 19.3883 4.62681 19.4422 4.83306 19.4164C5.02759 19.3906 5.26431 19.2758 5.34634 19.0812C5.46353 18.807 5.59244 18.5375 5.69322 18.2586C5.81744 17.914 5.94166 17.5695 6.06587 17.2273C6.10572 17.1148 6.14791 17.0023 6.18775 16.8898C6.12681 16.993 6.06822 17.0961 6.00728 17.1992C6.35181 16.8078 6.694 16.4187 7.03853 16.0273C7.16275 15.8867 7.24478 15.7226 7.24478 15.5305C7.24478 15.357 7.16744 15.1531 7.03853 15.0336C6.77134 14.7828 6.30259 14.7312 6.04244 15.0265Z" fill="#083350"/>
<path d="M20.3886 9.5258C20.3956 9.82814 20.405 10.1281 20.412 10.4305C20.4167 10.6344 20.4238 10.8406 20.4284 11.0445C20.4308 11.143 20.4425 11.2438 20.4331 11.3399C20.4425 11.2766 20.4495 11.2156 20.4589 11.1524C20.4566 11.1617 20.4519 11.1711 20.4495 11.1805C20.473 11.1242 20.4964 11.068 20.5199 11.0117C20.5831 10.9508 20.6464 10.8875 20.7097 10.8266C20.7659 10.8031 20.8222 10.7797 20.8784 10.7563C20.8691 10.761 20.8574 10.7633 20.848 10.768C20.9113 10.7586 20.9722 10.7516 21.0355 10.7422C21.0144 10.7469 20.9933 10.7469 20.9745 10.7422C21.0378 10.7516 21.0988 10.7586 21.162 10.768C21.1527 10.7656 21.1433 10.761 21.1339 10.7586C21.1902 10.782 21.2464 10.8055 21.3027 10.8289C21.3542 10.8617 21.537 11.1219 21.4644 10.9555C21.4409 10.8992 21.4152 10.843 21.3917 10.7867C21.3167 10.6156 21.2417 10.4422 21.1667 10.2711C21.0824 10.0766 21.012 9.85861 20.8972 9.67814C20.7214 9.40392 20.548 9.12736 20.3722 8.85314C20.3558 8.82736 20.3394 8.79923 20.3206 8.77345C20.1519 8.52736 19.88 8.33986 19.5683 8.36564C19.4206 8.37736 19.273 8.40548 19.1253 8.42423C18.9753 8.44533 18.837 8.45939 18.7034 8.54142C18.4878 8.67502 18.3402 8.89298 18.3074 9.14377C18.2863 9.29611 18.3097 9.43908 18.3472 9.58673C18.3847 9.74611 18.4245 9.90548 18.462 10.0649C18.4527 10.0016 18.4456 9.94064 18.4363 9.87736C18.4409 9.89611 18.4409 9.9172 18.4363 9.93595C18.4456 9.87267 18.4527 9.81173 18.462 9.74845C18.4597 9.75783 18.455 9.7672 18.4527 9.77658C18.4761 9.72033 18.4995 9.66408 18.523 9.60783C18.4152 9.84455 18.3097 10.0789 18.2019 10.3156C18.1292 10.475 18.0589 10.632 17.9863 10.7914C17.9628 10.843 17.9394 10.8922 17.9183 10.9438C17.8527 11.0867 17.8902 10.9297 18.0777 10.8172C18.1339 10.7938 18.1902 10.7703 18.2464 10.7469C18.237 10.7492 18.2253 10.7539 18.2159 10.7563C17.8644 10.8664 17.6042 11.2508 17.7238 11.6211C17.8386 11.9727 18.2136 12.2305 18.5886 12.1133C18.8113 12.043 19.0128 11.9024 19.1183 11.6891C19.1441 11.6375 19.1652 11.586 19.1886 11.5344C19.2753 11.3445 19.362 11.1547 19.4464 10.9625C19.5261 10.7867 19.6058 10.611 19.6855 10.4375C19.7019 10.4 19.7206 10.3625 19.737 10.325C19.8402 10.0953 19.8636 9.89845 19.8097 9.6547C19.7675 9.47189 19.7206 9.29142 19.6784 9.11095C19.6878 9.17423 19.6949 9.23517 19.7042 9.29845C19.6995 9.2797 19.6995 9.26095 19.7019 9.23986C19.6925 9.30314 19.6855 9.36408 19.6761 9.42736C19.6784 9.41798 19.6808 9.40861 19.6831 9.40158C19.6597 9.45783 19.6363 9.51408 19.6128 9.57033C19.5659 9.64064 19.5074 9.69923 19.4394 9.74845C19.3831 9.77189 19.3269 9.79533 19.2706 9.81877C19.28 9.81642 19.2894 9.81408 19.2988 9.81173C19.2355 9.82111 19.1745 9.82814 19.1113 9.83752C19.2753 9.81642 19.4441 9.77658 19.6105 9.77423C19.5472 9.76486 19.4863 9.75783 19.423 9.74845C19.4324 9.7508 19.4417 9.75314 19.4534 9.75548C19.3972 9.73205 19.3409 9.70861 19.2847 9.68517C19.2519 9.67111 19.0644 9.42502 19.1159 9.50705C19.13 9.53283 19.1464 9.55627 19.1628 9.5797C19.212 9.65705 19.2613 9.73205 19.3081 9.80939C19.4183 9.98517 19.5308 10.1586 19.6409 10.3344C19.7816 10.557 19.8706 10.8102 19.9761 11.0516C20.0581 11.2367 20.1378 11.4242 20.2199 11.6094C20.2363 11.6492 20.2527 11.6891 20.2714 11.7289C20.4495 12.0711 20.8902 12.2399 21.2534 12.1227C21.6097 12.0078 21.8394 11.682 21.8441 11.3094C21.8441 11.2672 21.8417 11.225 21.8417 11.1828C21.837 10.9953 21.8324 10.8102 21.8277 10.6227C21.8183 10.2594 21.8089 9.89611 21.7972 9.53283C21.7878 9.16486 21.4808 8.8133 21.0941 8.8297C20.7191 8.83908 20.3769 9.13205 20.3886 9.5258ZM9.76204 7.66486C9.75267 7.66486 9.74329 7.66486 9.73157 7.66486C9.79485 7.67423 9.85579 7.68127 9.91907 7.69064C9.9097 7.6883 9.90032 7.68595 9.89095 7.68361C9.9472 7.70705 10.0034 7.73048 10.0597 7.75392C10.1136 7.7797 10.2261 7.92033 10.2402 7.94611C10.2331 7.93673 10.2261 7.92502 10.2191 7.91564C10.198 7.88048 10.1745 7.84533 10.1511 7.81017C10.1136 7.75392 10.0738 7.69767 10.0433 7.63673C10.0667 7.69298 10.0902 7.74923 10.1136 7.80548C10.1113 7.79377 10.1089 7.78439 10.1066 7.77267C10.1159 7.83595 10.123 7.89689 10.1324 7.96017C10.1324 7.94845 10.1347 7.93673 10.1347 7.92736C10.1253 7.99064 10.1183 8.05158 10.1089 8.11486C10.1394 7.94142 10.1699 7.76564 10.2003 7.5922C10.2308 7.41877 10.2472 7.23361 10.2964 7.06486C10.273 7.12111 10.2495 7.17736 10.2261 7.23361C10.1792 7.30392 10.1206 7.36252 10.0527 7.40939C9.99642 7.43283 9.94017 7.45627 9.88392 7.4797C9.89329 7.47736 9.90267 7.47502 9.91204 7.47267C9.84876 7.48205 9.78782 7.48908 9.72454 7.49845C9.95188 7.48908 10.1816 7.5383 10.4089 7.54298C10.7769 7.55236 11.1167 7.29455 11.2222 6.94533C11.2925 6.70627 11.2386 6.49064 11.1378 6.27033C11.0863 6.15548 11.0324 6.04298 10.9784 5.93048C11.0019 5.98673 11.0253 6.04298 11.0488 6.09923C11.0464 6.08986 11.0417 6.08048 11.0394 6.07111C11.0488 6.13439 11.0558 6.19533 11.0652 6.25861C11.0605 6.23986 11.0605 6.22111 11.0652 6.2047C11.0558 6.26798 11.0488 6.32892 11.0394 6.3922C11.0417 6.38283 11.0441 6.3758 11.0464 6.36642C11.023 6.42267 10.9995 6.47892 10.9761 6.53517C10.9292 6.60548 10.8706 6.66408 10.8003 6.71095C10.7441 6.73439 10.6878 6.75783 10.6316 6.78127C10.9316 6.66408 11.2339 6.54923 11.5339 6.43205C11.6605 6.38283 11.7894 6.33361 11.9159 6.28439C12.0284 6.23986 12.1011 6.21173 12.1902 6.14142C12.387 5.98908 12.5277 5.7547 12.5253 5.49689C12.5253 5.30939 12.4644 5.15002 12.3777 4.9883C12.2909 4.82189 12.2019 4.65783 12.1152 4.49142C12.1386 4.54767 12.162 4.60392 12.1855 4.66017C12.1761 4.64142 12.1714 4.62267 12.1691 4.60158C12.1784 4.66486 12.1855 4.7258 12.1949 4.78908C12.1949 4.7797 12.1972 4.76798 12.1972 4.75861C12.1878 4.82189 12.1808 4.88283 12.1714 4.94611C12.1738 4.93673 12.1784 4.92736 12.1808 4.91798C12.1574 4.97423 12.1339 5.03048 12.1105 5.08673C12.0378 5.2133 12.0167 5.19689 12.0824 5.14064C12.1269 5.10314 12.1714 5.06564 12.2159 5.0258C12.3589 4.90392 12.5019 4.78205 12.6449 4.66252C12.7878 4.54064 12.9308 4.42111 13.0714 4.29923C13.1183 4.25939 13.1675 4.21955 13.2144 4.17736C13.2753 4.1258 13.3597 4.09298 13.1605 4.21955C13.1042 4.24298 13.048 4.26642 12.9917 4.28986C13.0034 4.28752 13.0152 4.28283 13.0269 4.28048C12.9636 4.28986 12.9027 4.29689 12.8394 4.30627C12.8511 4.30627 12.8628 4.30627 12.8745 4.30627C12.8113 4.29689 12.7503 4.28986 12.687 4.28048C12.8019 4.30861 12.912 4.36486 13.0222 4.40939C13.1886 4.47502 13.3527 4.54298 13.5191 4.60861C13.8495 4.73986 14.1917 4.67189 14.4566 4.43283C14.5667 4.33439 14.6699 4.22658 14.7777 4.12345C14.9675 3.94064 15.1949 3.76017 15.2464 3.48595C15.2816 3.29845 15.2745 3.11564 15.1761 2.94455C15.0917 2.79923 14.923 2.65861 14.7566 2.62111C14.4097 2.54142 13.9644 2.72658 13.8917 3.1133C13.8894 3.12502 13.887 3.13439 13.8847 3.14611C13.9081 3.08986 13.9316 3.03361 13.955 2.97736C13.9949 2.89064 14.0605 2.86486 14.0089 2.91173C13.9855 2.93283 13.962 2.95627 13.9409 2.97736C13.8753 3.04064 13.8097 3.10392 13.7441 3.1672C13.6784 3.23048 13.6128 3.29377 13.5472 3.35705C13.5238 3.37814 13.5003 3.40158 13.4792 3.42267C13.3995 3.50236 13.662 3.31252 13.5472 3.36408C13.6034 3.34064 13.6597 3.3172 13.7159 3.29377C13.7066 3.29611 13.6949 3.29845 13.6855 3.3008C13.7488 3.29142 13.8097 3.28439 13.873 3.27502C13.8636 3.27502 13.8519 3.27502 13.8425 3.27502C13.9058 3.28439 13.9667 3.29142 14.03 3.3008C13.7792 3.23283 13.5355 3.10627 13.2941 3.01017C13.0808 2.9258 12.9003 2.86252 12.6566 2.9258C12.4667 2.97502 12.3261 3.09689 12.1831 3.22111C11.9511 3.41798 11.7191 3.61486 11.487 3.81173C11.2972 3.97345 11.0464 4.13283 10.9128 4.3508C10.7464 4.62502 10.7652 4.93673 10.9058 5.2133C10.9363 5.27423 10.9714 5.33517 11.0019 5.39611C11.0675 5.52033 11.1331 5.64455 11.2011 5.77111C11.1777 5.71486 11.1542 5.65861 11.1308 5.60236C11.1402 5.61877 11.1449 5.63752 11.1472 5.65861C11.1378 5.59533 11.1308 5.53439 11.1214 5.47111C11.1214 5.48048 11.1214 5.48986 11.1191 5.49923C11.1284 5.43595 11.1355 5.37502 11.1449 5.31173C11.1425 5.32111 11.1402 5.33048 11.1378 5.33986C11.1613 5.28361 11.1847 5.22736 11.2081 5.17111C11.255 5.10314 11.3136 5.04455 11.3816 4.99767C11.4378 4.97423 11.4941 4.9508 11.5503 4.92736C11.2925 5.02814 11.0324 5.12892 10.7745 5.2297C10.6269 5.28595 10.4792 5.34455 10.3316 5.4008C10.3058 5.41017 10.2824 5.41955 10.2566 5.42892C10.0808 5.49923 9.94251 5.58361 9.82767 5.73361C9.71048 5.88361 9.6472 6.07345 9.65892 6.2633C9.67298 6.52345 9.82532 6.77423 9.93313 7.00861C9.9097 6.95236 9.88626 6.89611 9.86282 6.83986C9.86517 6.84923 9.86985 6.85861 9.8722 6.86798C9.86282 6.8047 9.85579 6.74377 9.84642 6.68048C9.8511 6.69923 9.8511 6.71798 9.84642 6.73673C9.85579 6.67345 9.86282 6.61252 9.8722 6.54923C9.86985 6.55861 9.86751 6.56564 9.86517 6.57502C9.8886 6.51877 9.91204 6.46252 9.93548 6.40627C9.98235 6.33595 10.0409 6.27736 10.1113 6.22814C10.1675 6.2047 10.2238 6.18127 10.28 6.15783C10.2706 6.16017 10.2613 6.16252 10.2519 6.16486C10.3152 6.15548 10.3761 6.14845 10.4394 6.13908C10.2613 6.14611 10.0761 6.11798 9.89564 6.10392C9.76204 6.09455 9.64017 6.08752 9.50892 6.12736C9.22298 6.21408 8.98626 6.45314 8.92767 6.74845C8.89017 6.9383 8.8597 7.13283 8.82689 7.32267C8.79173 7.52423 8.73548 7.73986 8.7261 7.94611C8.71673 8.18986 8.83626 8.37267 8.96048 8.56252C8.98392 8.59767 9.00501 8.63283 9.02845 8.66564C9.20423 8.91642 9.44798 9.06877 9.76204 9.0758C10.13 9.08283 10.4816 8.74767 10.4652 8.37267C10.4464 7.98127 10.1558 7.67189 9.76204 7.66486Z" fill="#083350"/>
</svg>
