<svg width="24" height="24" viewBox="0 0 24 24" fill="none" xmlns="http://www.w3.org/2000/svg">
<g clipPath="url(#clip0_584_439)">
<path d="M6 5.001C5.99974 5.53143 5.78877 6.04004 5.41351 6.41492C5.03825 6.78981 4.52943 7.00027 3.999 7C3.46857 6.99974 2.95996 6.78877 2.58508 6.41351C2.21019 6.03825 1.99974 5.52943 2 4.999C2.00027 4.46857 2.21123 3.95996 2.58649 3.58508C2.96175 3.21019 3.47057 2.99974 4.001 3C4.53143 3.00027 5.04004 3.21123 5.41492 3.58649C5.78981 3.96175 6.00027 4.47057 6 5.001ZM6.06 8.481H2.06V21.001H6.06V8.481ZM12.38 8.481H8.4V21.001H12.34V14.431C12.34 10.771 17.11 10.431 17.11 14.431V21.001H21.06V13.071C21.06 6.901 14 7.131 12.34 10.161L12.38 8.481Z" fill="#083350"/>
</g>
<defs>
<clipPath id="clip0_584_439">
<rect width="24" height="24" fill="white"/>
</clipPath>
</defs>
</svg>
