<svg width="42" height="42" viewBox="0 0 42 42" fill="none" xmlns="http://www.w3.org/2000/svg">
<path d="M39.5916 20.146H37.0291V17.5835C37.0291 17.1118 36.6467 16.7293 36.175 16.7293C35.7033 16.7293 35.3208 17.1118 35.3208 17.5835V20.146H32.7583C32.2866 20.146 31.9041 20.5285 31.9041 21.0002C31.9041 21.4719 32.2866 21.8543 32.7583 21.8543H35.3208V24.4168C35.3208 24.4171 35.3208 24.4175 35.3208 24.4178C35.3211 24.8893 35.7035 25.2713 36.175 25.271C36.1753 25.271 36.1756 25.271 36.176 25.271C36.6474 25.2707 37.0294 24.8883 37.0291 24.4168V21.8543H39.5916C40.0633 21.8543 40.4458 21.4719 40.4458 21.0002C40.4458 20.5285 40.0633 20.146 39.5916 20.146ZM24.8646 23.34C27.5168 21.8903 29.3379 19.1101 29.3416 15.8752C29.3416 11.1577 25.5174 7.3335 20.8 7.3335C16.0825 7.3335 12.2583 11.1577 12.2583 15.8752C12.2583 19.1101 14.0778 21.8909 16.7292 23.3407C11.5037 24.9763 7.55902 29.6729 7.17834 35.4643C7.14727 35.935 7.50345 36.3419 7.97412 36.3735C7.9957 36.3758 8.01728 36.3772 8.03897 36.3778C8.49306 36.3901 8.87114 36.0318 8.88334 35.5777C9.27549 29.5978 14.0387 24.8345 20.0186 24.4425C26.6 24.0109 32.2851 28.9963 32.7166 35.5777C32.7469 36.0263 33.1195 36.3749 33.5691 36.3752C33.5874 36.3752 33.6058 36.3752 33.6258 36.3735C34.0966 36.3419 34.4527 35.935 34.4216 35.4643C34.0448 29.7296 30.1455 24.987 24.8646 23.34ZM20.8 22.7085C17.026 22.7085 13.9666 19.6492 13.9666 15.8752C13.9666 12.1012 17.026 9.04183 20.8 9.04183C24.5724 9.04558 27.6295 12.1027 27.6333 15.8752C27.6333 19.6492 24.574 22.7085 20.8 22.7085Z" fill="#65829E" stroke="#65829E"/>
</svg>
