<svg width="24" height="24" viewBox="0 0 24 24" fill="none" xmlns="http://www.w3.org/2000/svg">
<path d="M12 2C6.5 2 2 6.5 2 12C2 17.5 6.5 22 12 22C17.5 22 22 17.5 22 12C22 6.5 17.5 2 12 2Z" fill="#083350"/>
<path d="M11.2902 15.29C11.2472 15.3375 11.2071 15.3876 11.1702 15.44C11.1324 15.4957 11.1021 15.5563 11.0802 15.62C11.0514 15.6767 11.0312 15.7374 11.0202 15.8C11.0153 15.8666 11.0153 15.9334 11.0202 16C11.0168 16.1312 11.0442 16.2613 11.1002 16.38C11.1451 16.5041 11.2168 16.6168 11.3101 16.7101C11.4034 16.8034 11.5161 16.8751 11.6402 16.92C11.7599 16.9729 11.8894 17.0002 12.0202 17.0002C12.1511 17.0002 12.2805 16.9729 12.4002 16.92C12.5243 16.8751 12.637 16.8034 12.7303 16.7101C12.8237 16.6168 12.8953 16.5041 12.9402 16.38C12.9846 16.2584 13.005 16.1294 13.0002 16C13.001 15.8684 12.9758 15.7379 12.926 15.6161C12.8762 15.4943 12.8029 15.3834 12.7102 15.29C12.6173 15.1963 12.5067 15.1219 12.3848 15.0711C12.2629 15.0203 12.1322 14.9942 12.0002 14.9942C11.8682 14.9942 11.7375 15.0203 11.6156 15.0711C11.4938 15.1219 11.3832 15.1963 11.2902 15.29ZM12.0002 7C11.4733 6.99966 10.9556 7.13812 10.4991 7.40144C10.0427 7.66477 9.66369 8.04366 9.40022 8.5C9.32787 8.61382 9.27929 8.7411 9.2574 8.87418C9.23551 9.00726 9.24077 9.14339 9.27285 9.27439C9.30494 9.40538 9.36319 9.52854 9.44411 9.63644C9.52503 9.74433 9.62693 9.83475 9.7437 9.90225C9.86046 9.96974 9.98967 10.0129 10.1236 10.0292C10.2574 10.0454 10.3932 10.0345 10.5228 9.99688C10.6523 9.9593 10.7729 9.89591 10.8773 9.81052C10.9817 9.72513 11.0677 9.61951 11.1302 9.5C11.2183 9.3474 11.3452 9.22078 11.498 9.13298C11.6507 9.04518 11.824 8.9993 12.0002 9C12.2654 9 12.5198 9.10536 12.7073 9.29289C12.8949 9.48043 13.0002 9.73478 13.0002 10C13.0002 10.2652 12.8949 10.5196 12.7073 10.7071C12.5198 10.8946 12.2654 11 12.0002 11C11.735 11 11.4807 11.1054 11.2931 11.2929C11.1056 11.4804 11.0002 11.7348 11.0002 12V13C11.0002 13.2652 11.1056 13.5196 11.2931 13.7071C11.4807 13.8946 11.735 14 12.0002 14C12.2654 14 12.5198 13.8946 12.7073 13.7071C12.8949 13.5196 13.0002 13.2652 13.0002 13V12.82C13.6616 12.58 14.2176 12.1152 14.571 11.5069C14.9244 10.8985 15.0528 10.1853 14.9336 9.49189C14.8145 8.79849 14.4554 8.16902 13.9192 7.71352C13.383 7.25801 12.7038 7.00546 12.0002 7Z" fill="white"/>
</svg>
