<svg
  width="24"
  height="24"
  viewBox="0 0 24 24"
  fill="none"
  xmlns="http://www.w3.org/2000/svg"
>
  <path
    d="M 11.989716,17.833594 7.0872333,20.785626 C 6.9466603,20.873483 6.7973017,20.913019 6.639157,20.904232 6.4810128,20.895477 6.3404391,20.84712 6.2174374,20.759264 6.094436,20.671406 6.0021856,20.557192 5.9406847,20.416619 5.8791846,20.276052 5.866005,20.117901 5.9011489,19.942186 L 7.1926623,14.354411 2.870043,10.585298 C 2.7294698,10.462297 2.6460048,10.326116 2.6196468,10.176758 2.5932909,10.0274 2.5976816,9.8824335 2.6328278,9.741861 2.6679684,9.6012881 2.7470432,9.4826792 2.8700443,9.3860353 2.9930461,9.2893913 3.142405,9.2322826 3.3181212,9.2147111 L 9.0376857,8.7139208 11.251711,3.4424337 c 0.07029,-0.1581459 0.175717,-0.2767544 0.316289,-0.3558273 0.140573,-0.079074 0.281146,-0.1186077 0.421718,-0.1186077 0.140573,0 0.281147,0.039536 0.42172,0.1186077 0.140573,0.079073 0.246003,0.1976814 0.316289,0.3558273 l 2.214025,5.2714871 5.719565,0.5007903 c 0.175715,0.01757 0.325075,0.07468 0.448074,0.1713242 0.123007,0.096644 0.202075,0.2152525 0.237219,0.3558257 0.03513,0.1405729 0.03953,0.285539 0.0132,0.434897 -0.02636,0.149358 -0.10982,0.285539 -0.250397,0.40854 l -4.322649,3.769113 1.291516,5.587778 c 0.03513,0.175715 0.02196,0.333861 -0.03953,0.474433 -0.0615,0.140567 -0.153751,0.254789 -0.276752,0.342645 -0.123006,0.08786 -0.263574,0.136181 -0.421718,0.144968 -0.158146,0.0088 -0.307505,-0.03074 -0.448079,-0.118606 z"
    fill="#083350"
  />
</svg>
