<svg
  viewBox="0 0 24 24"
  width="24"
  height="24"
  xmlns="http://www.w3.org/2000/svg"
  fill="none"
>
  <path
    d="M 11.736328,1.8964844 C 8.8672478,1.9803584 6.5859375,4.3983132 6.5859375,7.2578125 v 1.4648437 c 0,0.1652985 0.1411666,0.3300782 0.3300781,0.3300782 h 1.5820313 c 0.1889117,0 0.3300781,-0.141167 0.3300781,-0.3300782 V 7.2578125 c 0,-1.6529747 1.300152,-3.0699589 2.953125,-3.1171875 1.74743,-0.070839 3.1875,1.3230577 3.1875,3.046875 v 3.09375 H 6.6796875 c -1.1570821,0 -2.1015625,0.944484 -2.1015625,2.101562 v 7.650391 c 0,1.157082 0.9444804,2.101563 2.1015625,2.101563 H 17.117188 c 1.157079,0 2.101562,-0.944481 2.101562,-2.101563 v -7.650391 c 0,-1.133464 -0.897961,-2.054334 -2.007812,-2.101562 V 7.1640625 c 0,-2.8808995 -2.314413,-5.2203505 -5.195313,-5.2675781 -0.09372,-0.00221 -0.186746,-0.00271 -0.279297,0 z m 5.011333,10.9400066 c 0.0741,2.361796 0.105687,4.791569 0.0899,6.897313 -3.412872,-8.96e-4 -6.8963148,0.02782 -9.8843772,-0.08175 -0.032573,-2.989752 -0.01561,-6.484714 -0.032164,-6.849994 3.2611156,0.0077 6.6391496,-0.05176 9.8266416,0.03443 z"
    fill="#083350"
  />
</svg>
