<svg width="28" height="30" viewBox="0 0 28 30" fill="none" xmlns="http://www.w3.org/2000/svg">
<path d="M18.0646 16.4843C20.7168 15.0345 22.5379 12.2543 22.5416 9.01937C22.5416 4.30196 18.7174 0.477707 14 0.477707C9.28256 0.477707 5.45831 4.30196 5.45831 9.01937C5.45831 12.2543 7.27779 15.0351 9.92923 16.4849C4.70372 18.1205 0.759037 22.8171 0.378353 28.6085C0.347281 29.0793 0.703462 29.4861 1.17413 29.5177C1.19571 29.52 1.2173 29.5215 1.23898 29.522C1.69307 29.5343 2.07115 29.176 2.08335 28.7219C2.4755 22.742 7.23869 17.9787 13.2186 17.5867C19.8 17.1551 25.4851 22.1405 25.9166 28.7219C25.9469 29.1705 26.3195 29.5191 26.7691 29.5194C26.7875 29.5194 26.8058 29.5194 26.8258 29.5177C27.2966 29.4861 27.6527 29.0793 27.6216 28.6085C27.2448 22.8738 23.3456 18.1312 18.0646 16.4843ZM14 15.8527C10.226 15.8527 7.16664 12.7934 7.16664 9.01937C7.16664 5.24538 10.226 2.18604 14 2.18604C17.7724 2.18979 20.8296 5.24694 20.8333 9.01937C20.8333 12.7934 17.774 15.8527 14 15.8527Z" fill="#083350"/>
</svg>
