<svg
  width="24"
  height="24"
  viewBox="0 0 24 24"
  xmlns="http://www.w3.org/2000/svg"
>
  <path
    d="M17.26 5H6.73c-.55 0-1-.45-1-1s.45-1 1-1h10.53c.55 0 1 .45 1 1s-.45 1-1 1zM4 18.26c-.55 0-1-.45-1-1V7c0-.55.45-1 1-1s1 .45 1 1v10.26c0 .55-.45 1-1 1zM17.26 21H6.73c-.55 0-1-.45-1-1s.45-1 1-1h10.53c.55 0 1 .45 1 1s-.45 1-1 1zM20 18.26c-.55 0-1-.45-1-1V6.73c0-.55.45-1 1-1s1 .45 1 1v10.53c0 .55-.45 1-1 1z"
    fill="#083350"
  ></path>
  <path
    d="M5 8c-1.65 0-3-1.35-3-3s1.35-3 3-3 3 1.35 3 3-1.35 3-3 3zm0-4c-.55 0-1 .45-1 1s.45 1 1 1 1-.45 1-1-.45-1-1-1zM19 8c-1.65 0-3-1.35-3-3s1.35-3 3-3 3 1.35 3 3-1.35 3-3 3zm0-4c-.55 0-1 .45-1 1s.45 1 1 1 1-.45 1-1-.45-1-1-1zM5 22c-1.65 0-3-1.35-3-3s1.35-3 3-3 3 1.35 3 3-1.35 3-3 3zm0-4c-.55 0-1 .45-1 1s.45 1 1 1 1-.45 1-1-.45-1-1-1zM19 22c-1.65 0-3-1.35-3-3s1.35-3 3-3 3 1.35 3 3-1.35 3-3 3zm0-4c-.55 0-1 .45-1 1s.45 1 1 1 1-.45 1-1-.45-1-1-1zM10.92 17c-2.16 0-3.92-1.76-3.92-3.92s1.76-3.92 3.92-3.92 3.92 1.76 3.92 3.92-1.76 3.92-3.92 3.92zm0-5.84c-1.06 0-1.92.86-1.92 1.92s.86 1.92 1.92 1.92 1.92-.86 1.92-1.92-.86-1.92-1.92-1.92z"
    fill="#083350"
  ></path>
  <path
    d="m13.82,13.87c-.5,0-.94-.38-.99-.89-.06-.55.34-1.04.89-1.1.73-.08,1.29-.7,1.29-1.43,0-.79-.65-1.44-1.44-1.44-.74,0-1.36.55-1.43,1.29-.06.55-.53.95-1.1.89-.55-.06-.95-.55-.89-1.1.19-1.75,1.66-3.07,3.42-3.07,1.9,0,3.44,1.54,3.44,3.44,0,1.76-1.32,3.23-3.07,3.42-.04,0-.07,0-.11,0Z"
    fill="#083350"
  ></path>
</svg>
