<svg width="24" height="24" viewBox="0 0 24 24" fill="none" xmlns="http://www.w3.org/2000/svg">
<g clipPath="url(#clip0_1670_1247)">
<path d="M21.3017 10.08C21.0207 9.74268 20.669 9.47111 20.2716 9.2845C19.8741 9.09789 19.4406 9.00078 19.0015 9.00003H14.4411L15.0011 7.57003C15.2341 6.94392 15.3117 6.27064 15.2272 5.60796C15.1428 4.94527 14.8988 4.31297 14.5163 3.76527C14.1337 3.21757 13.624 2.77084 13.0309 2.46339C12.4378 2.15593 11.7789 1.99694 11.1108 2.00004C10.9184 2.00045 10.7302 2.05632 10.5688 2.16097C10.4074 2.26561 10.2796 2.41459 10.2007 2.59004L7.35047 9.00003H5.00026C4.20454 9.00003 3.44141 9.3161 2.87876 9.87871C2.3161 10.4413 2 11.2044 2 12V19C2 19.7957 2.3161 20.5587 2.87876 21.1213C3.44141 21.6839 4.20454 22 5.00026 22H17.7314C18.4332 21.9998 19.1128 21.7535 19.6519 21.304C20.1909 20.8546 20.5553 20.2304 20.6816 19.54L21.9517 12.54C22.0303 12.1074 22.0128 11.6628 21.9005 11.2377C21.7881 10.8126 21.5837 10.4174 21.3017 10.08ZM7.00044 20H5.00026C4.73502 20 4.48065 19.8946 4.29309 19.7071C4.10554 19.5196 4.00017 19.2652 4.00017 19V12C4.00017 11.7348 4.10554 11.4805 4.29309 11.2929C4.48065 11.1054 4.73502 11 5.00026 11H7.00044V20ZM20.0016 12.18L18.7315 19.18C18.6889 19.413 18.565 19.6232 18.3818 19.7734C18.1987 19.9236 17.9682 20.0039 17.7314 20H9.00061V10.21L11.7208 4.09004C12.0009 4.17167 12.2609 4.31045 12.4846 4.49762C12.7082 4.6848 12.8907 4.91631 13.0204 5.17753C13.15 5.43876 13.2242 5.72403 13.238 6.01534C13.2519 6.30665 13.2052 6.59767 13.101 6.87003L12.5709 8.30003C12.458 8.60229 12.4198 8.92738 12.4598 9.24756C12.4997 9.56774 12.6165 9.87351 12.8003 10.1388C12.984 10.404 13.2292 10.6209 13.5149 10.7709C13.8006 10.9208 14.1184 10.9995 14.4411 11H19.0015C19.1484 10.9998 19.2936 11.0319 19.4267 11.0941C19.5598 11.1564 19.6775 11.2471 19.7715 11.36C19.8679 11.4713 19.9385 11.6026 19.9782 11.7443C20.018 11.8861 20.026 12.0348 20.0016 12.18Z" fill="#083350"/>
</g>
<defs>
<clipPath id="clip0_1670_1247">
<rect width="24" height="24" fill="white"/>
</clipPath>
</defs>
</svg>
