<svg width="24" height="24" viewBox="0 0 24 24" fill="none" xmlns="http://www.w3.org/2000/svg">
  <path
    d="M12.3871 3.05811C7.45164 3.05811 3.44519 7.06456 3.44519 12C3.44519 13.742 3.92906 15.4065 4.87745 16.8581L3.52261 19.8581C3.40648 20.1291 3.44519 20.4581 3.63874 20.6904C3.79358 20.8646 4.00648 20.9613 4.23874 20.9613C4.31616 20.9613 4.37422 20.9613 4.45164 20.942L8.20648 19.9162C9.50326 20.6129 10.9549 20.9807 12.4258 20.9807C17.3613 20.9807 21.3678 16.9742 21.3678 12.0388C21.3291 7.06456 17.3226 3.05811 12.3871 3.05811ZM12.3871 19.3936C11.071 19.3936 9.79358 19.0452 8.671 18.3871C8.55487 18.3097 8.41938 18.271 8.2839 18.271C8.20648 18.271 8.14842 18.271 8.071 18.2904L5.61293 18.9678L6.46455 17.0904C6.58067 16.8388 6.54197 16.5291 6.38713 16.3162C5.47745 15.0581 4.99358 13.5678 4.99358 12C4.99358 7.93553 8.32261 4.60649 12.3871 4.60649C16.4516 4.60649 19.7807 7.91617 19.7807 12C19.7807 16.0646 16.471 19.3936 12.3871 19.3936Z"
    fill="#083350"
  />
  <path
    d="M15.8323 13.3355C15.4645 13.1032 14.9613 12.8516 14.5355 13.0451C14.2065 13.1806 13.9742 13.7226 13.7613 13.9935C13.6452 14.129 13.5097 14.1484 13.3355 14.0903C12.0581 13.5871 11.0903 12.7355 10.3936 11.5742C10.2774 11.4 10.2968 11.2451 10.4323 11.0709C10.6452 10.8193 10.9161 10.529 10.9742 10.2C11.0323 9.87095 10.8774 9.4645 10.7419 9.17417C10.5677 8.78708 10.3742 8.24514 9.9871 8.03224C9.63872 7.83869 9.1742 7.93546 8.86452 8.20643C8.32259 8.65159 8.05162 9.34837 8.07098 10.0258C8.07098 10.2193 8.09033 10.4129 8.14839 10.6064C8.26452 11.0516 8.45807 11.4774 8.70969 11.8839C8.88388 12.1935 9.07743 12.4839 9.29033 12.7548C9.96775 13.6839 10.8194 14.4774 11.7871 15.0774C12.271 15.3677 12.8129 15.6387 13.3548 15.8129C13.9742 16.0064 14.5161 16.2193 15.1742 16.1032C15.871 15.9677 16.5484 15.5419 16.8194 14.8839C16.8968 14.6903 16.9355 14.458 16.8968 14.2645C16.7613 13.8 16.1807 13.5484 15.8323 13.3355Z"
    fill="#083350"
  />
</svg>
