<svg xmlns="http://www.w3.org/2000/svg" width="24" height="24" viewBox="0 0 24 24" fill="none">
  <path d="M22.3338 20.6297C23.0854 19.6221 23.6012 18.4587 23.8431 17.2251C24.085 15.9916 24.0468 14.7194 23.7314 13.5026C23.416 12.2858 22.8314 11.1553 22.0207 10.1946C21.21 9.23396 20.194 8.46759 19.0476 7.95207C18.7979 6.51532 18.224 5.15439 17.3695 3.97268C16.515 2.79098 15.4025 1.81959 14.1163 1.13234C12.8302 0.44509 11.4044 0.0600491 9.94712 0.00647729C8.48989 -0.0470945 7.03962 0.232212 5.7065 0.823174C4.37338 1.41414 3.1925 2.3012 2.25358 3.41698C1.31465 4.53275 0.642389 5.84787 0.287871 7.26242C-0.0666478 8.67696 -0.0940951 10.1537 0.207615 11.5804C0.509324 13.0072 1.13225 14.3464 2.02907 15.4963L0.361996 17.1514C0.19558 17.3201 0.0828473 17.5343 0.0380233 17.767C-0.00680069 17.9996 0.0182925 18.2404 0.110137 18.4588C0.200111 18.6778 0.352903 18.8653 0.549258 18.9977C0.745613 19.13 0.976743 19.2012 1.21352 19.2024H8.03772C8.71732 20.6352 9.78879 21.8462 11.1281 22.6953C12.4674 23.5443 14.0198 23.9967 15.6055 24H22.8015C23.0383 23.9988 23.2694 23.9276 23.4658 23.7952C23.6621 23.6629 23.8149 23.4754 23.9049 23.2564C23.9967 23.038 24.0218 22.7972 23.977 22.5645C23.9322 22.3319 23.8194 22.1177 23.653 21.949L22.3338 20.6297ZM7.21018 15.6042C7.21183 16.0059 7.2439 16.4068 7.30613 16.8036H4.10391L4.52368 16.3958C4.63609 16.2843 4.72531 16.1517 4.7862 16.0055C4.84709 15.8594 4.87844 15.7026 4.87844 15.5443C4.87844 15.3859 4.84709 15.2292 4.7862 15.083C4.72531 14.9368 4.63609 14.8042 4.52368 14.6927C3.85152 14.0279 3.31865 13.2357 2.95622 12.3625C2.59378 11.4893 2.40906 10.5527 2.41285 9.60724C2.41285 7.69864 3.171 5.86822 4.52051 4.51863C5.87002 3.16905 7.70035 2.41086 9.60884 2.41086C11.098 2.40191 12.5526 2.8599 13.768 3.72044C14.9835 4.58098 15.8987 5.80081 16.3851 7.20845C16.1212 7.20845 15.8694 7.20845 15.6055 7.20845C13.3789 7.20845 11.2435 8.093 9.66912 9.66751C8.09469 11.242 7.21018 13.3775 7.21018 15.6042ZM19.8511 21.6012L19.9111 21.6612H15.6055C14.2183 21.6587 12.8748 21.1753 11.804 20.2934C10.7332 19.4114 10.0012 18.1855 9.73285 16.8244C9.46447 15.4633 9.67626 14.0513 10.3321 12.8288C10.988 11.6064 12.0474 10.6492 13.3298 10.1202C14.6123 9.59128 16.0384 9.52335 17.3653 9.92799C18.6922 10.3326 19.8378 11.1848 20.6069 12.3394C21.376 13.494 21.721 14.8795 21.5832 16.2599C21.4454 17.6404 20.8333 18.9303 19.8511 19.9101C19.6252 20.1315 19.4958 20.4333 19.4913 20.7496C19.492 20.9083 19.5241 21.0653 19.5859 21.2115C19.6477 21.3577 19.7378 21.4901 19.8511 21.6012Z" fill="#083350"/>
</svg>
