<svg width="24" height="24" viewBox="0 0 24 24" fill="none" xmlns="http://www.w3.org/2000/svg">
<path d="M19.216 4.62258C19.216 4.73684 19.216 4.84934 19.216 4.9636C19.216 5.27297 19.216 5.58235 19.216 5.89172C19.216 6.34875 19.216 6.80579 19.216 7.26282C19.216 7.82004 19.216 8.37727 19.216 8.9345C19.216 9.54446 19.216 10.1544 19.216 10.7644C19.216 11.3796 19.216 11.9948 19.216 12.6101C19.216 13.1831 19.216 13.7544 19.216 14.3275C19.216 14.8091 19.216 15.2907 19.216 15.7724C19.216 16.1169 19.216 16.4597 19.216 16.8042C19.216 16.9624 19.216 17.1206 19.216 17.2788C19.216 17.3157 19.2143 17.3544 19.2108 17.3913C19.2178 17.3439 19.2231 17.2982 19.2301 17.2507C19.2196 17.321 19.202 17.3878 19.1739 17.4546C19.1914 17.4124 19.209 17.3702 19.2266 17.3281C19.2072 17.3702 19.1844 17.4089 19.1598 17.4493C19.1176 17.5179 19.2371 17.365 19.1949 17.4072C19.1791 17.423 19.1651 17.4423 19.1492 17.4581C19.1352 17.4722 19.1211 17.4845 19.1071 17.4968C19.0438 17.5583 19.2178 17.4265 19.1405 17.4704C19.1 17.4933 19.0614 17.5179 19.0192 17.5372C19.0614 17.5197 19.1035 17.5021 19.1457 17.4845C19.0807 17.5126 19.0121 17.5302 18.9418 17.5407C18.9893 17.5337 19.035 17.5284 19.0824 17.5214C18.9506 17.5355 18.8153 17.5267 18.6852 17.5267C18.4215 17.5267 18.1578 17.5267 17.8942 17.5267C17.2824 17.5267 16.6707 17.5267 16.0572 17.5267C15.9149 17.5267 15.7725 17.5267 15.6319 17.5267C15.783 17.7904 15.936 18.0558 16.0871 18.3195C16.792 17.1066 16.9397 15.572 16.4246 14.2589C15.9852 13.1374 15.1467 12.1829 14.0481 11.6679C12.9213 11.1406 11.6047 11.0439 10.427 11.471C9.29846 11.8806 8.32991 12.7032 7.7885 13.7808C7.50022 14.3556 7.33147 14.9691 7.28401 15.6124C7.226 16.3823 7.37893 17.1488 7.68303 17.8536C7.75159 18.0136 7.83069 18.1683 7.91682 18.3177C8.06799 18.054 8.22092 17.7886 8.37209 17.5249C7.98537 17.5249 7.59866 17.5249 7.21369 17.5249C6.60725 17.5249 6.00256 17.5249 5.39612 17.5249C5.23967 17.5249 5.07619 17.5355 4.91975 17.5197C4.96721 17.5267 5.01291 17.532 5.06037 17.539C4.99006 17.5284 4.92326 17.5109 4.85647 17.4827C4.89866 17.5003 4.94084 17.5179 4.98303 17.5355C4.94084 17.5161 4.90217 17.4933 4.86174 17.4687C4.79319 17.4265 4.94612 17.546 4.90393 17.5038C4.88811 17.488 4.86877 17.474 4.85295 17.4581C4.83889 17.4441 4.82659 17.43 4.81428 17.4159C4.75276 17.3527 4.88459 17.5267 4.84065 17.4493C4.8178 17.4089 4.79319 17.3702 4.77385 17.3281C4.79143 17.3702 4.80901 17.4124 4.82659 17.4546C4.79846 17.3878 4.78088 17.321 4.77034 17.2507C4.77737 17.2982 4.78264 17.3439 4.78967 17.3913C4.77385 17.2542 4.7844 17.1118 4.7844 16.9747C4.7844 16.6689 4.7844 16.3648 4.7844 16.0589C4.7844 15.6054 4.7844 15.1519 4.7844 14.6984C4.7844 14.1411 4.7844 13.5822 4.7844 13.0249C4.7844 12.4132 4.7844 11.7997 4.7844 11.188C4.7844 10.5693 4.7844 9.95227 4.7844 9.33352C4.7844 8.75696 4.7844 8.18215 4.7844 7.60559C4.7844 7.12219 4.7844 6.64055 4.7844 6.15715C4.7844 5.81086 4.7844 5.46457 4.7844 5.11653C4.7844 4.95657 4.7844 4.79836 4.7844 4.6384C4.7844 4.60149 4.78616 4.56282 4.78967 4.5259C4.78264 4.57336 4.77737 4.61907 4.77034 4.66653C4.78088 4.59622 4.79846 4.52942 4.82659 4.46262C4.80901 4.50481 4.79143 4.547 4.77385 4.58918C4.79319 4.547 4.81604 4.50832 4.84065 4.46789C4.88284 4.39934 4.7633 4.55227 4.80549 4.51008C4.82131 4.49426 4.83537 4.47493 4.85119 4.45911C4.86526 4.44504 4.87932 4.43274 4.89338 4.42043C4.95666 4.35891 4.78264 4.49075 4.85998 4.4468C4.90041 4.42395 4.93909 4.39934 4.98127 4.38C4.93909 4.39758 4.8969 4.41516 4.85471 4.43274C4.91975 4.40461 4.9883 4.38704 5.05862 4.37649C5.01116 4.38352 4.96545 4.38879 4.91799 4.39582C5.06565 4.38 5.21858 4.39055 5.36799 4.39055C5.70549 4.39055 6.04299 4.39055 6.38049 4.39055C6.88147 4.39055 7.38244 4.39055 7.88518 4.39055C8.49866 4.39055 9.11213 4.39055 9.72561 4.39055C10.4024 4.39055 11.0774 4.39055 11.7541 4.39055C12.4344 4.39055 13.1129 4.39055 13.7932 4.39055C14.426 4.39055 15.0588 4.39055 15.6916 4.39055C16.226 4.39055 16.7586 4.39055 17.293 4.39055C17.6744 4.39055 18.0559 4.39055 18.4373 4.39055C18.6131 4.39055 18.7906 4.39055 18.9664 4.39055C19.0051 4.39055 19.042 4.39231 19.0807 4.39582C19.0332 4.38879 18.9875 4.38352 18.9401 4.37649C19.0104 4.38704 19.0772 4.40461 19.144 4.43274C19.1018 4.41516 19.0596 4.39758 19.0174 4.38C19.0596 4.39934 19.0983 4.42219 19.1387 4.4468C19.2072 4.48899 19.0543 4.36946 19.0965 4.41165C19.1123 4.42747 19.1317 4.44153 19.1475 4.45735C19.1615 4.47141 19.1739 4.48547 19.1862 4.49954C19.2477 4.56282 19.1158 4.38879 19.1598 4.46614C19.1826 4.50657 19.2072 4.54524 19.2266 4.58743C19.209 4.54524 19.1914 4.50305 19.1739 4.46086C19.202 4.5259 19.2196 4.59446 19.2301 4.66477C19.2231 4.61731 19.2178 4.57161 19.2108 4.52414C19.2125 4.5593 19.2143 4.59094 19.216 4.62258C19.2196 4.89856 19.4551 5.16223 19.7434 5.14993C20.0246 5.13762 20.276 4.9179 20.2707 4.62258C20.2602 3.91594 19.6906 3.34465 18.9822 3.33586C18.9278 3.33586 18.8733 3.33586 18.8205 3.33586C18.4936 3.33586 18.1649 3.33586 17.8379 3.33586C17.286 3.33586 16.734 3.33586 16.1821 3.33586C15.4789 3.33586 14.7776 3.33586 14.0744 3.33586C13.301 3.33586 12.5293 3.33586 11.7559 3.33586C10.9912 3.33586 10.2266 3.33586 9.46194 3.33586C8.78342 3.33586 8.10666 3.33586 7.42815 3.33586C6.91662 3.33586 6.4051 3.33586 5.89533 3.33586C5.62463 3.33586 5.35569 3.33586 5.08498 3.33586C4.84065 3.33586 4.6051 3.38157 4.38889 3.49934C3.97053 3.72786 3.73147 4.18137 3.72971 4.64895C3.72971 4.89329 3.72971 5.13762 3.72971 5.38196C3.72971 5.897 3.72971 6.41379 3.72971 6.92883C3.72971 7.61965 3.72971 8.31223 3.72971 9.00305C3.72971 9.77297 3.72971 10.5411 3.72971 11.3111C3.72971 12.0687 3.72971 12.8263 3.72971 13.5839C3.72971 14.2325 3.72971 14.8794 3.72971 15.5281C3.72971 15.971 3.72971 16.4157 3.72971 16.8587C3.72971 17.1365 3.70159 17.4511 3.80178 17.7148C3.94944 18.1032 4.24123 18.3968 4.64026 18.5251C4.77912 18.5708 4.92854 18.5814 5.07444 18.5814C5.30998 18.5814 5.54729 18.5814 5.78284 18.5814C6.50178 18.5814 7.21897 18.5814 7.93791 18.5814C8.08205 18.5814 8.22619 18.5814 8.37034 18.5814C8.77112 18.5814 9.026 18.1331 8.82561 17.7886C8.73596 17.6339 8.6551 17.474 8.58479 17.3105C8.60237 17.3527 8.61995 17.3948 8.63752 17.437C8.49162 17.0907 8.39319 16.7286 8.34221 16.3577C8.34924 16.4052 8.35451 16.4509 8.36155 16.4984C8.31233 16.1257 8.31233 15.7478 8.36155 15.3751C8.35451 15.4226 8.34924 15.4683 8.34221 15.5157C8.39319 15.1484 8.48987 14.788 8.63401 14.4452C8.61643 14.4874 8.59885 14.5296 8.58127 14.5718C8.66213 14.3802 8.75705 14.1939 8.86604 14.0146C8.92053 13.9267 8.97678 13.8388 9.0383 13.7544C9.05412 13.7333 9.06994 13.7105 9.08577 13.6894C9.0928 13.6806 9.09983 13.6718 9.10686 13.6613C9.13674 13.6191 9.05764 13.7316 9.0594 13.7228C9.06819 13.6841 9.13498 13.6296 9.16135 13.598C9.29494 13.4398 9.43909 13.2921 9.59553 13.155C9.63244 13.1216 9.67112 13.09 9.70979 13.0583C9.73088 13.0407 9.75198 13.0249 9.77307 13.0073C9.83284 12.9581 9.66409 13.0882 9.74846 13.0267C9.83108 12.9652 9.91721 12.9054 10.0033 12.8491C10.2055 12.7191 10.4182 12.6083 10.6379 12.5152C10.5957 12.5327 10.5535 12.5503 10.5114 12.5679C10.8541 12.4238 11.2127 12.3271 11.5819 12.2761C11.5344 12.2831 11.4887 12.2884 11.4412 12.2954C11.8139 12.2462 12.1901 12.2462 12.5627 12.2954C12.5153 12.2884 12.4696 12.2831 12.4221 12.2761C12.7895 12.3271 13.1498 12.4238 13.4926 12.5679C13.4504 12.5503 13.4082 12.5327 13.366 12.5152C13.5576 12.596 13.744 12.6909 13.9233 12.7999C14.0112 12.8544 14.099 12.9107 14.1834 12.9722C14.2045 12.988 14.2274 13.0038 14.2485 13.0197C14.2572 13.0267 14.266 13.0337 14.2766 13.0407C14.3188 13.0706 14.2063 12.9915 14.2151 12.9933C14.2537 13.0021 14.3082 13.0689 14.3399 13.0952C14.4981 13.2288 14.6457 13.373 14.7828 13.5294C14.8162 13.5663 14.8479 13.605 14.8795 13.6437C14.8971 13.6648 14.9129 13.6859 14.9305 13.707C14.9797 13.7667 14.8496 13.598 14.9112 13.6823C14.9727 13.765 15.0324 13.8511 15.0887 13.9372C15.2188 14.1394 15.3295 14.3521 15.4227 14.5718C15.4051 14.5296 15.3875 14.4874 15.3699 14.4452C15.5141 14.788 15.6108 15.1466 15.6617 15.5157C15.6547 15.4683 15.6494 15.4226 15.6424 15.3751C15.6916 15.7478 15.6899 16.124 15.6424 16.4984C15.6494 16.4509 15.6547 16.4052 15.6617 16.3577C15.6108 16.7304 15.5123 17.0907 15.3664 17.437C15.384 17.3948 15.4016 17.3527 15.4192 17.3105C15.3489 17.474 15.268 17.6339 15.1783 17.7886C14.978 18.1349 15.2328 18.5814 15.6336 18.5814C16.1697 18.5814 16.7041 18.5814 17.2403 18.5814C17.8203 18.5814 18.3987 18.5866 18.9787 18.5814C19.6889 18.5743 20.2655 18.0066 20.2742 17.2947C20.2742 17.2384 20.2742 17.1822 20.2742 17.1259C20.2742 16.755 20.2742 16.3859 20.2742 16.015C20.2742 15.3909 20.2742 14.7669 20.2742 14.1447C20.2742 13.3747 20.2742 12.6048 20.2742 11.8349C20.2742 11.0245 20.2742 10.2124 20.2742 9.40207C20.2742 8.66028 20.2742 7.91848 20.2742 7.17668C20.2742 6.61418 20.2742 6.05344 20.2742 5.49094C20.2742 5.21321 20.2742 4.93723 20.2742 4.6595C20.2742 4.64719 20.2742 4.63489 20.2742 4.62258C20.2742 4.34661 20.0317 4.08293 19.7469 4.09524C19.4569 4.1093 19.216 4.32727 19.216 4.62258Z" fill="#083350"/>
<path d="M13.4258 3.86321C13.4258 4.40461 13.4258 4.94602 13.4258 5.48743C13.4258 6.34348 13.4258 7.19954 13.4258 8.05559C13.4258 8.25247 13.4258 8.4511 13.4258 8.64797C13.6895 8.4968 13.9549 8.34387 14.2186 8.1927C13.642 7.89036 13.0672 7.58977 12.4906 7.28743C12.4168 7.24875 12.3412 7.20657 12.2656 7.16965C12.074 7.07649 11.8947 7.08528 11.7102 7.1802C11.6715 7.20129 11.6311 7.22063 11.5924 7.24172C11.2602 7.41575 10.9262 7.58977 10.594 7.76555C10.3233 7.90793 10.0508 8.05032 9.7801 8.1927C10.0438 8.34387 10.3092 8.4968 10.5729 8.64797C10.5729 8.10657 10.5729 7.56516 10.5729 7.02375C10.5729 6.1677 10.5729 5.31165 10.5729 4.45559C10.5729 4.25872 10.5729 4.06008 10.5729 3.86321C10.3971 4.03899 10.2213 4.21477 10.0455 4.39055C10.4867 4.39055 10.928 4.39055 11.3692 4.39055C12.0688 4.39055 12.7684 4.39055 13.468 4.39055C13.6297 4.39055 13.7914 4.39055 13.9514 4.39055C14.2274 4.39055 14.491 4.14797 14.4787 3.86321C14.4664 3.57668 14.2467 3.33586 13.9514 3.33586C13.5102 3.33586 13.069 3.33586 12.6278 3.33586C11.9281 3.33586 11.2285 3.33586 10.5289 3.33586C10.3672 3.33586 10.2055 3.33586 10.0455 3.33586C9.76076 3.33586 9.51819 3.57668 9.51819 3.86321C9.51819 4.40461 9.51819 4.94602 9.51819 5.48743C9.51819 6.34348 9.51819 7.19954 9.51819 8.05559C9.51819 8.25247 9.51819 8.4511 9.51819 8.64797C9.51819 9.06106 9.96291 9.28606 10.311 9.10325C10.8805 8.80442 11.4483 8.50735 12.0178 8.20852C12.1004 8.16633 12.1813 8.12239 12.2639 8.0802C12.0864 8.0802 11.9088 8.0802 11.7313 8.0802C12.3008 8.37903 12.8686 8.6761 13.4381 8.97493C13.5207 9.01711 13.6016 9.06106 13.6842 9.10325C14.034 9.28606 14.477 9.06106 14.477 8.64797C14.477 8.10657 14.477 7.56516 14.477 7.02375C14.477 6.1677 14.477 5.31165 14.477 4.45559C14.477 4.25872 14.477 4.06008 14.477 3.86321C14.477 3.58723 14.2344 3.32356 13.9496 3.33586C13.6666 3.34993 13.4258 3.56789 13.4258 3.86321ZM15.6758 15.9341C15.6758 16.1222 15.6635 16.3103 15.6389 16.4966C15.6459 16.4491 15.6512 16.4034 15.6582 16.356C15.6072 16.7286 15.5088 17.089 15.3629 17.4353C15.3805 17.3931 15.3981 17.3509 15.4156 17.3087C15.3014 17.5741 15.1625 17.8273 14.9973 18.0646C14.9639 18.1138 14.927 18.1595 14.8936 18.2087C14.9955 18.0646 14.9235 18.17 14.8971 18.2017C14.876 18.2281 14.8549 18.2544 14.8321 18.279C14.7494 18.3757 14.6633 18.4689 14.5737 18.5568C14.484 18.6447 14.3891 18.7308 14.2906 18.8099C14.2643 18.831 14.1473 18.9176 14.2115 18.8732C14.3487 18.7607 14.2502 18.8433 14.2168 18.8679C14.1694 18.9031 14.1201 18.9365 14.0709 18.9698C13.8512 19.1175 13.6192 19.2423 13.3766 19.346C13.4188 19.3284 13.461 19.3109 13.5031 19.2933C13.1586 19.4392 12.7965 19.5376 12.4256 19.5886C12.4731 19.5816 12.5188 19.5763 12.5662 19.5693C12.1918 19.6185 11.8139 19.6185 11.4395 19.5693C11.4869 19.5763 11.5326 19.5816 11.5801 19.5886C11.2092 19.5376 10.8471 19.4392 10.5026 19.2933C10.5447 19.3109 10.5869 19.3284 10.6291 19.346C10.3865 19.2423 10.1528 19.1175 9.93479 18.9698C9.88557 18.9365 9.83635 18.9031 9.78889 18.8679C9.75725 18.8433 9.65705 18.7607 9.79416 18.8732C9.7678 18.8521 9.74143 18.831 9.71506 18.8099C9.61662 18.729 9.52346 18.6447 9.43205 18.5568C9.34241 18.4689 9.25627 18.3757 9.17366 18.279C9.1305 18.2285 9.12971 18.2281 9.10862 18.2017C9.08225 18.17 9.01018 18.0646 9.11213 18.2087C9.17366 18.279 9.04182 18.1138 9.00842 18.0646C8.84319 17.8273 8.70432 17.5741 8.59006 17.3087C8.60764 17.3509 8.62522 17.3931 8.6428 17.4353C8.4969 17.089 8.39846 16.7269 8.34748 16.356C8.35452 16.4034 8.35979 16.4491 8.36682 16.4966C8.3176 16.124 8.3176 15.746 8.36682 15.3734C8.35979 15.4208 8.35452 15.4665 8.34748 15.514C8.39846 15.1466 8.49514 14.7863 8.63928 14.4435C8.6217 14.4857 8.60412 14.5279 8.58655 14.57C8.66741 14.3784 8.76233 14.1921 8.87131 14.0128C8.9258 13.9249 8.98205 13.837 9.04358 13.7527C9.0594 13.7316 9.07522 13.7087 9.09104 13.6876C9.09807 13.6788 9.1051 13.67 9.11213 13.6595C9.14202 13.6173 9.06291 13.7298 9.06467 13.721C9.07346 13.6824 9.14026 13.6279 9.16662 13.5962C9.30022 13.438 9.44436 13.2904 9.6008 13.1532C9.63772 13.1198 9.67639 13.0882 9.71506 13.0566C9.73616 13.039 9.75725 13.0232 9.77834 13.0056C9.83811 12.9564 9.66936 13.0865 9.75373 13.0249C9.83635 12.9634 9.92248 12.9036 10.0086 12.8474C10.2108 12.7173 10.4235 12.6066 10.6432 12.5134C10.601 12.531 10.5588 12.5486 10.5166 12.5661C10.8594 12.422 11.218 12.3253 11.5871 12.2743C11.5397 12.2814 11.494 12.2866 11.4465 12.2937C11.8192 12.2445 12.1953 12.2445 12.568 12.2937C12.5205 12.2866 12.4748 12.2814 12.4274 12.2743C12.7947 12.3253 13.1551 12.422 13.4979 12.5661C13.4557 12.5486 13.4135 12.531 13.3713 12.5134C13.5629 12.5943 13.7492 12.6892 13.9285 12.7982C14.0164 12.8527 14.1043 12.9089 14.1887 12.9704C14.2098 12.9863 14.2326 13.0021 14.2537 13.0179C14.2625 13.0249 14.2713 13.032 14.2819 13.039C14.324 13.0689 14.2115 12.9898 14.2203 12.9915C14.259 13.0003 14.3135 13.0671 14.3451 13.0935C14.5033 13.2271 14.651 13.3712 14.7881 13.5277C14.8215 13.5646 14.8531 13.6032 14.8848 13.6419C14.9024 13.663 14.9182 13.6841 14.9358 13.7052C14.985 13.765 14.8549 13.5962 14.9164 13.6806C14.978 13.7632 15.0377 13.8493 15.094 13.9355C15.224 14.1376 15.3348 14.3503 15.428 14.57C15.4104 14.5279 15.3928 14.4857 15.3752 14.4435C15.5194 14.7863 15.616 15.1448 15.667 15.514C15.66 15.4665 15.6547 15.4208 15.6477 15.3734C15.6635 15.5597 15.6758 15.746 15.6758 15.9341C15.6758 16.2101 15.9184 16.4738 16.2031 16.4615C16.4879 16.4491 16.7305 16.2294 16.7305 15.9341C16.7287 15.0341 16.4703 14.1288 15.9781 13.373C15.4983 12.6382 14.8162 12.0212 14.0147 11.6556C13.6069 11.4693 13.1832 11.3286 12.7367 11.2654C12.227 11.1933 11.7365 11.1933 11.2285 11.2706C10.3479 11.4025 9.52346 11.8173 8.85725 12.4009C8.19631 12.981 7.70764 13.7615 7.45979 14.6052C7.16799 15.5948 7.20842 16.7058 7.59866 17.662C7.80608 18.1718 8.0803 18.6288 8.43889 19.0472C8.75002 19.4093 9.12795 19.7222 9.53576 19.9736C10.376 20.4904 11.3955 20.7365 12.3781 20.6486C13.403 20.5572 14.3557 20.1546 15.1326 19.4779C15.9061 18.8046 16.458 17.8448 16.6426 16.8359C16.6971 16.5388 16.7287 16.2382 16.7305 15.9359C16.7322 15.6599 16.4879 15.3962 16.2031 15.4085C15.9166 15.4191 15.6758 15.637 15.6758 15.9341Z" fill="#083350"/>
<path d="M9.47424 16.5318C9.86623 16.9238 10.2582 17.3157 10.6502 17.7077C10.7065 17.764 10.7627 17.8202 10.8172 17.8747C11.0194 18.0769 11.3604 18.0769 11.5625 17.8747C11.8772 17.5601 12.1901 17.2472 12.5047 16.9325C13.0057 16.4316 13.5049 15.9323 14.0059 15.4314C14.1201 15.3171 14.2344 15.2029 14.3504 15.0868C14.5455 14.8917 14.5596 14.5331 14.3504 14.3415C14.1395 14.1482 13.8125 14.1323 13.6051 14.3415C13.2905 14.6562 12.9776 14.9691 12.6629 15.2837C12.1619 15.7847 11.6627 16.2839 11.1617 16.7849C11.0475 16.8991 10.9332 17.0134 10.8172 17.1294C11.0651 17.1294 11.3147 17.1294 11.5625 17.1294C11.1705 16.7374 10.7785 16.3454 10.3865 15.9534C10.3303 15.8972 10.274 15.8409 10.2196 15.7865C10.0244 15.5913 9.66584 15.5773 9.47424 15.7865C9.28088 15.9974 9.26682 16.3226 9.47424 16.5318Z" fill="#083350"/>
<path d="M19.216 4.62258C19.216 4.73684 19.216 4.84934 19.216 4.9636C19.216 5.27297 19.216 5.58235 19.216 5.89172C19.216 6.34875 19.216 6.80579 19.216 7.26282C19.216 7.82004 19.216 8.37727 19.216 8.9345C19.216 9.54446 19.216 10.1544 19.216 10.7644C19.216 11.3796 19.216 11.9948 19.216 12.6101C19.216 13.1831 19.216 13.7544 19.216 14.3275C19.216 14.8091 19.216 15.2907 19.216 15.7724C19.216 16.1169 19.216 16.4597 19.216 16.8042C19.216 16.9624 19.216 17.1206 19.216 17.2788C19.216 17.3157 19.2143 17.3544 19.2108 17.3913C19.2178 17.3439 19.2231 17.2982 19.2301 17.2507C19.2196 17.321 19.202 17.3878 19.1739 17.4546C19.1914 17.4124 19.209 17.3702 19.2266 17.3281C19.2072 17.3702 19.1844 17.4089 19.1598 17.4493C19.1176 17.5179 19.2371 17.365 19.1949 17.4072C19.1791 17.423 19.1651 17.4423 19.1492 17.4581C19.1352 17.4722 19.1211 17.4845 19.1071 17.4968C19.0438 17.5583 19.2178 17.4265 19.1405 17.4704C19.1 17.4933 19.0614 17.5179 19.0192 17.5372C19.0614 17.5197 19.1035 17.5021 19.1457 17.4845C19.0807 17.5126 19.0121 17.5302 18.9418 17.5407C18.9893 17.5337 19.035 17.5284 19.0824 17.5214C18.9506 17.5355 18.8153 17.5267 18.6852 17.5267C18.4215 17.5267 18.1578 17.5267 17.8942 17.5267C17.2824 17.5267 16.6707 17.5267 16.0572 17.5267C15.9149 17.5267 15.7725 17.5267 15.6319 17.5267C15.783 17.7904 15.936 18.0558 16.0871 18.3195C16.792 17.1066 16.9397 15.572 16.4246 14.2589C15.9852 13.1374 15.1467 12.1829 14.0481 11.6679C12.9213 11.1406 11.6047 11.0439 10.427 11.471C9.29846 11.8806 8.32991 12.7032 7.7885 13.7808C7.50022 14.3556 7.33147 14.9691 7.28401 15.6124C7.226 16.3823 7.37893 17.1488 7.68303 17.8536C7.75159 18.0136 7.83069 18.1683 7.91682 18.3177C8.06799 18.054 8.22092 17.7886 8.37209 17.5249C7.98537 17.5249 7.59866 17.5249 7.21369 17.5249C6.60725 17.5249 6.00256 17.5249 5.39612 17.5249C5.23967 17.5249 5.07619 17.5355 4.91975 17.5197C4.96721 17.5267 5.01291 17.532 5.06037 17.539C4.99006 17.5284 4.92326 17.5109 4.85647 17.4827C4.89866 17.5003 4.94084 17.5179 4.98303 17.5355C4.94084 17.5161 4.90217 17.4933 4.86174 17.4687C4.79319 17.4265 4.94612 17.546 4.90393 17.5038C4.88811 17.488 4.86877 17.474 4.85295 17.4581C4.83889 17.4441 4.82659 17.43 4.81428 17.4159C4.75276 17.3527 4.88459 17.5267 4.84065 17.4493C4.8178 17.4089 4.79319 17.3702 4.77385 17.3281C4.79143 17.3702 4.80901 17.4124 4.82659 17.4546C4.79846 17.3878 4.78088 17.321 4.77034 17.2507C4.77737 17.2982 4.78264 17.3439 4.78967 17.3913C4.77385 17.2542 4.7844 17.1118 4.7844 16.9747C4.7844 16.6689 4.7844 16.3648 4.7844 16.0589C4.7844 15.6054 4.7844 15.1519 4.7844 14.6984C4.7844 14.1411 4.7844 13.5822 4.7844 13.0249C4.7844 12.4132 4.7844 11.7997 4.7844 11.188C4.7844 10.5693 4.7844 9.95227 4.7844 9.33352C4.7844 8.75696 4.7844 8.18215 4.7844 7.60559C4.7844 7.12219 4.7844 6.64055 4.7844 6.15715C4.7844 5.81086 4.7844 5.46457 4.7844 5.11653C4.7844 4.95657 4.7844 4.79836 4.7844 4.6384C4.7844 4.60149 4.78616 4.56282 4.78967 4.5259C4.78264 4.57336 4.77737 4.61907 4.77034 4.66653C4.78088 4.59622 4.79846 4.52942 4.82659 4.46262C4.80901 4.50481 4.79143 4.547 4.77385 4.58918C4.79319 4.547 4.81604 4.50832 4.84065 4.46789C4.88284 4.39934 4.7633 4.55227 4.80549 4.51008C4.82131 4.49426 4.83537 4.47493 4.85119 4.45911C4.86526 4.44504 4.87932 4.43274 4.89338 4.42043C4.95666 4.35891 4.78264 4.49075 4.85998 4.4468C4.90041 4.42395 4.93909 4.39934 4.98127 4.38C4.93909 4.39758 4.8969 4.41516 4.85471 4.43274C4.91975 4.40461 4.9883 4.38704 5.05862 4.37649C5.01116 4.38352 4.96545 4.38879 4.91799 4.39582C5.06565 4.38 5.21858 4.39055 5.36799 4.39055C5.70549 4.39055 6.04299 4.39055 6.38049 4.39055C6.88147 4.39055 7.38244 4.39055 7.88518 4.39055C8.49866 4.39055 9.11213 4.39055 9.72561 4.39055C10.4024 4.39055 11.0774 4.39055 11.7541 4.39055C12.4344 4.39055 13.1129 4.39055 13.7932 4.39055C14.426 4.39055 15.0588 4.39055 15.6916 4.39055C16.226 4.39055 16.7586 4.39055 17.293 4.39055C17.6744 4.39055 18.0559 4.39055 18.4373 4.39055C18.6131 4.39055 18.7906 4.39055 18.9664 4.39055C19.0051 4.39055 19.042 4.39231 19.0807 4.39582C19.0332 4.38879 18.9875 4.38352 18.9401 4.37649C19.0104 4.38704 19.0772 4.40461 19.144 4.43274C19.1018 4.41516 19.0596 4.39758 19.0174 4.38C19.0596 4.39934 19.0983 4.42219 19.1387 4.4468C19.2072 4.48899 19.0543 4.36946 19.0965 4.41165C19.1123 4.42747 19.1317 4.44153 19.1475 4.45735C19.1615 4.47141 19.1739 4.48547 19.1862 4.49954C19.2477 4.56282 19.1158 4.38879 19.1598 4.46614C19.1826 4.50657 19.2072 4.54524 19.2266 4.58743C19.209 4.54524 19.1914 4.50305 19.1739 4.46086C19.202 4.5259 19.2196 4.59446 19.2301 4.66477C19.2231 4.61731 19.2178 4.57161 19.2108 4.52414C19.2125 4.5593 19.2143 4.59094 19.216 4.62258ZM19.216 4.62258C19.2196 4.89856 19.4551 5.16223 19.7434 5.14993C20.0246 5.13762 20.276 4.9179 20.2707 4.62258C20.2602 3.91594 19.6906 3.34465 18.9822 3.33586C18.9278 3.33586 18.8733 3.33586 18.8205 3.33586C18.4936 3.33586 18.1649 3.33586 17.8379 3.33586C17.286 3.33586 16.734 3.33586 16.1821 3.33586C15.4789 3.33586 14.7776 3.33586 14.0744 3.33586C13.301 3.33586 12.5293 3.33586 11.7559 3.33586C10.9912 3.33586 10.2266 3.33586 9.46194 3.33586C8.78342 3.33586 8.10666 3.33586 7.42815 3.33586C6.91662 3.33586 6.4051 3.33586 5.89533 3.33586C5.62463 3.33586 5.35569 3.33586 5.08498 3.33586C4.84065 3.33586 4.6051 3.38157 4.38889 3.49934C3.97053 3.72786 3.73147 4.18137 3.72971 4.64895C3.72971 4.89329 3.72971 5.13762 3.72971 5.38196C3.72971 5.897 3.72971 6.41379 3.72971 6.92883C3.72971 7.61965 3.72971 8.31223 3.72971 9.00305C3.72971 9.77297 3.72971 10.5411 3.72971 11.3111C3.72971 12.0687 3.72971 12.8263 3.72971 13.5839C3.72971 14.2325 3.72971 14.8794 3.72971 15.5281C3.72971 15.971 3.72971 16.4157 3.72971 16.8587C3.72971 17.1365 3.70159 17.4511 3.80178 17.7148C3.94944 18.1032 4.24123 18.3968 4.64026 18.5251C4.77912 18.5708 4.92854 18.5814 5.07444 18.5814C5.30998 18.5814 5.54729 18.5814 5.78284 18.5814C6.50178 18.5814 7.21897 18.5814 7.93791 18.5814C8.08205 18.5814 8.22619 18.5814 8.37034 18.5814C8.77112 18.5814 9.026 18.1331 8.82561 17.7886C8.73596 17.6339 8.6551 17.474 8.58479 17.3105C8.60237 17.3527 8.61995 17.3948 8.63752 17.437C8.49162 17.0907 8.39319 16.7286 8.34221 16.3577C8.34924 16.4052 8.35451 16.4509 8.36155 16.4984C8.31233 16.1257 8.31233 15.7478 8.36155 15.3751C8.35451 15.4226 8.34924 15.4683 8.34221 15.5157C8.39319 15.1484 8.48987 14.788 8.63401 14.4452C8.61643 14.4874 8.59885 14.5296 8.58127 14.5718C8.66213 14.3802 8.75705 14.1939 8.86604 14.0146C8.92053 13.9267 8.97678 13.8388 9.0383 13.7544C9.05412 13.7333 9.06995 13.7105 9.08577 13.6894C9.0928 13.6806 9.09983 13.6718 9.10686 13.6613C9.13674 13.6191 9.05764 13.7316 9.0594 13.7228C9.06819 13.6841 9.13498 13.6296 9.16135 13.598C9.29494 13.4398 9.43909 13.2921 9.59553 13.155C9.63245 13.1216 9.67112 13.09 9.70979 13.0583C9.73088 13.0407 9.75198 13.0249 9.77307 13.0073C9.83284 12.9581 9.66409 13.0882 9.74846 13.0267C9.83108 12.9652 9.91721 12.9054 10.0033 12.8491C10.2055 12.7191 10.4182 12.6083 10.6379 12.5152C10.5957 12.5327 10.5535 12.5503 10.5114 12.5679C10.8541 12.4238 11.2127 12.3271 11.5819 12.2761C11.5344 12.2831 11.4887 12.2884 11.4412 12.2954C11.8139 12.2462 12.1901 12.2462 12.5627 12.2954C12.5153 12.2884 12.4696 12.2831 12.4221 12.2761C12.7895 12.3271 13.1498 12.4238 13.4926 12.5679C13.4504 12.5503 13.4082 12.5327 13.366 12.5152C13.5576 12.596 13.744 12.6909 13.9233 12.7999C14.0112 12.8544 14.099 12.9107 14.1834 12.9722C14.2045 12.988 14.2274 13.0038 14.2485 13.0197C14.2572 13.0267 14.266 13.0337 14.2766 13.0407C14.3188 13.0706 14.2063 12.9915 14.2151 12.9933C14.2537 13.0021 14.3082 13.0689 14.3399 13.0952C14.4981 13.2288 14.6457 13.373 14.7828 13.5294C14.8162 13.5663 14.8479 13.605 14.8795 13.6437C14.8971 13.6648 14.9129 13.6859 14.9305 13.707C14.9797 13.7667 14.8496 13.598 14.9112 13.6823C14.9727 13.765 15.0324 13.8511 15.0887 13.9372C15.2188 14.1394 15.3295 14.3521 15.4227 14.5718C15.4051 14.5296 15.3875 14.4874 15.3699 14.4452C15.5141 14.788 15.6108 15.1466 15.6617 15.5157C15.6547 15.4683 15.6494 15.4226 15.6424 15.3751C15.6916 15.7478 15.6899 16.124 15.6424 16.4984C15.6494 16.4509 15.6547 16.4052 15.6617 16.3577C15.6108 16.7304 15.5123 17.0907 15.3664 17.437C15.384 17.3948 15.4016 17.3527 15.4192 17.3105C15.3489 17.474 15.268 17.6339 15.1783 17.7886C14.978 18.1349 15.2328 18.5814 15.6336 18.5814C16.1697 18.5814 16.7041 18.5814 17.2403 18.5814C17.8203 18.5814 18.3987 18.5866 18.9787 18.5814C19.6889 18.5743 20.2655 18.0066 20.2742 17.2947C20.2742 17.2384 20.2742 17.1822 20.2742 17.1259C20.2742 16.755 20.2742 16.3859 20.2742 16.015C20.2742 15.3909 20.2742 14.7669 20.2742 14.1447C20.2742 13.3747 20.2742 12.6048 20.2742 11.8349C20.2742 11.0245 20.2742 10.2124 20.2742 9.40207C20.2742 8.66028 20.2742 7.91848 20.2742 7.17668C20.2742 6.61418 20.2742 6.05344 20.2742 5.49094C20.2742 5.21321 20.2742 4.93723 20.2742 4.6595C20.2742 4.64719 20.2742 4.63489 20.2742 4.62258C20.2742 4.34661 20.0317 4.08293 19.7469 4.09524C19.4569 4.1093 19.216 4.32727 19.216 4.62258ZM15.6758 15.9341C15.6758 16.1222 15.6635 16.3103 15.6389 16.4966C15.6459 16.4491 15.6512 16.4034 15.6582 16.356C15.6072 16.7286 15.5088 17.089 15.3629 17.4353C15.3805 17.3931 15.3981 17.3509 15.4156 17.3087C15.3014 17.5741 15.1625 17.8273 14.9973 18.0646C14.9639 18.1138 14.927 18.1595 14.8936 18.2087C14.9955 18.0646 14.9235 18.17 14.8971 18.2017C14.876 18.2281 14.8549 18.2544 14.8321 18.279C14.7494 18.3757 14.6633 18.4689 14.5737 18.5568C14.484 18.6447 14.3891 18.7308 14.2906 18.8099C14.2643 18.831 14.1473 18.9176 14.2115 18.8732C14.3487 18.7607 14.2502 18.8433 14.2168 18.8679C14.1694 18.9031 14.1201 18.9365 14.0709 18.9698C13.8512 19.1175 13.6192 19.2423 13.3766 19.346C13.4188 19.3284 13.461 19.3109 13.5031 19.2933C13.1586 19.4392 12.7965 19.5376 12.4256 19.5886C12.4731 19.5816 12.5188 19.5763 12.5662 19.5693C12.1918 19.6185 11.8139 19.6185 11.4395 19.5693C11.4869 19.5763 11.5326 19.5816 11.5801 19.5886C11.2092 19.5376 10.8471 19.4392 10.5026 19.2933C10.5447 19.3109 10.5869 19.3284 10.6291 19.346C10.3865 19.2423 10.1528 19.1175 9.93479 18.9698C9.88557 18.9365 9.83635 18.9031 9.78889 18.8679C9.75725 18.8433 9.65705 18.7607 9.79416 18.8732C9.7678 18.8521 9.74143 18.831 9.71506 18.8099C9.61662 18.729 9.52346 18.6447 9.43205 18.5568C9.34241 18.4689 9.25627 18.3757 9.17366 18.279C9.1305 18.2285 9.12971 18.2281 9.10862 18.2017C9.08225 18.17 9.01018 18.0646 9.11213 18.2087C9.17366 18.279 9.04182 18.1138 9.00842 18.0646C8.84319 17.8273 8.70432 17.5741 8.59006 17.3087C8.60764 17.3509 8.62522 17.3931 8.6428 17.4353C8.4969 17.089 8.39846 16.7269 8.34748 16.356C8.35451 16.4034 8.35979 16.4491 8.36682 16.4966C8.3176 16.124 8.3176 15.746 8.36682 15.3734C8.35979 15.4208 8.35451 15.4665 8.34748 15.514C8.39846 15.1466 8.49514 14.7863 8.63928 14.4435C8.6217 14.4857 8.60412 14.5279 8.58655 14.57C8.66741 14.3784 8.76233 14.1921 8.87131 14.0128C8.9258 13.9249 8.98205 13.837 9.04358 13.7527C9.0594 13.7316 9.07522 13.7087 9.09104 13.6876C9.09807 13.6788 9.1051 13.67 9.11213 13.6595C9.14202 13.6173 9.06291 13.7298 9.06467 13.721C9.07346 13.6823 9.14026 13.6279 9.16662 13.5962C9.30022 13.438 9.44436 13.2904 9.6008 13.1532C9.63772 13.1198 9.67639 13.0882 9.71506 13.0566C9.73616 13.039 9.75725 13.0232 9.77834 13.0056C9.83811 12.9564 9.66936 13.0865 9.75373 13.0249C9.83635 12.9634 9.92248 12.9036 10.0086 12.8474C10.2108 12.7173 10.4235 12.6066 10.6432 12.5134C10.601 12.531 10.5588 12.5486 10.5166 12.5661C10.8594 12.422 11.218 12.3253 11.5871 12.2743C11.5397 12.2814 11.494 12.2866 11.4465 12.2937C11.8192 12.2445 12.1953 12.2445 12.568 12.2937C12.5205 12.2866 12.4748 12.2814 12.4274 12.2743C12.7947 12.3253 13.1551 12.422 13.4979 12.5661C13.4557 12.5486 13.4135 12.531 13.3713 12.5134C13.5629 12.5943 13.7492 12.6892 13.9285 12.7982C14.0164 12.8527 14.1043 12.9089 14.1887 12.9704C14.2098 12.9863 14.2326 13.0021 14.2537 13.0179C14.2625 13.0249 14.2713 13.032 14.2819 13.039C14.324 13.0689 14.2115 12.9898 14.2203 12.9915C14.259 13.0003 14.3135 13.0671 14.3451 13.0935C14.5033 13.2271 14.651 13.3712 14.7881 13.5277C14.8215 13.5646 14.8531 13.6032 14.8848 13.6419C14.9024 13.663 14.9182 13.6841 14.9358 13.7052C14.985 13.765 14.8549 13.5962 14.9164 13.6806C14.978 13.7632 15.0377 13.8493 15.094 13.9355C15.224 14.1376 15.3348 14.3503 15.428 14.57C15.4104 14.5279 15.3928 14.4857 15.3752 14.4435C15.5194 14.7863 15.616 15.1448 15.667 15.514C15.66 15.4665 15.6547 15.4208 15.6477 15.3734C15.6635 15.5597 15.6758 15.746 15.6758 15.9341ZM15.6758 15.9341C15.6758 16.2101 15.9184 16.4738 16.2031 16.4615C16.4879 16.4491 16.7305 16.2294 16.7305 15.9341C16.7287 15.0341 16.4703 14.1288 15.9781 13.373C15.4983 12.6382 14.8162 12.0212 14.0147 11.6556C13.6069 11.4693 13.1832 11.3286 12.7367 11.2654C12.227 11.1933 11.7365 11.1933 11.2285 11.2706C10.3479 11.4025 9.52346 11.8173 8.85725 12.4009C8.19631 12.981 7.70764 13.7615 7.45979 14.6052C7.16799 15.5948 7.20842 16.7058 7.59866 17.662C7.80608 18.1718 8.0803 18.6288 8.43889 19.0472C8.75002 19.4093 9.12795 19.7222 9.53576 19.9736C10.376 20.4904 11.3955 20.7365 12.3781 20.6486C13.403 20.5572 14.3557 20.1546 15.1326 19.4779C15.9061 18.8046 16.458 17.8448 16.6426 16.8359C16.6971 16.5388 16.7287 16.2382 16.7305 15.9359C16.7322 15.6599 16.4879 15.3962 16.2031 15.4085C15.9166 15.4191 15.6758 15.637 15.6758 15.9341ZM13.4258 3.86321C13.4258 4.40461 13.4258 4.94602 13.4258 5.48743C13.4258 6.34348 13.4258 7.19954 13.4258 8.05559C13.4258 8.25247 13.4258 8.4511 13.4258 8.64797C13.6895 8.4968 13.9549 8.34387 14.2186 8.1927C13.642 7.89036 13.0672 7.58977 12.4906 7.28743C12.4168 7.24875 12.3412 7.20657 12.2656 7.16965C12.074 7.07649 11.8947 7.08528 11.7102 7.1802C11.6715 7.20129 11.6311 7.22063 11.5924 7.24172C11.2602 7.41575 10.9262 7.58977 10.594 7.76555C10.3233 7.90793 10.0508 8.05032 9.7801 8.1927C10.0438 8.34387 10.3092 8.4968 10.5729 8.64797C10.5729 8.10657 10.5729 7.56516 10.5729 7.02375C10.5729 6.1677 10.5729 5.31165 10.5729 4.45559C10.5729 4.25872 10.5729 4.06008 10.5729 3.86321C10.3971 4.03899 10.2213 4.21477 10.0455 4.39055C10.4867 4.39055 10.928 4.39055 11.3692 4.39055C12.0688 4.39055 12.7684 4.39055 13.468 4.39055C13.6297 4.39055 13.7914 4.39055 13.9514 4.39055C14.2274 4.39055 14.491 4.14797 14.4787 3.86321C14.4664 3.57668 14.2467 3.33586 13.9514 3.33586C13.5102 3.33586 13.069 3.33586 12.6278 3.33586C11.9281 3.33586 11.2285 3.33586 10.5289 3.33586C10.3672 3.33586 10.2055 3.33586 10.0455 3.33586C9.76076 3.33586 9.51819 3.57668 9.51819 3.86321C9.51819 4.40461 9.51819 4.94602 9.51819 5.48743C9.51819 6.34348 9.51819 7.19954 9.51819 8.05559C9.51819 8.25247 9.51819 8.4511 9.51819 8.64797C9.51819 9.06106 9.96291 9.28606 10.311 9.10325C10.8805 8.80442 11.4483 8.50735 12.0178 8.20852C12.1004 8.16633 12.1813 8.12239 12.2639 8.0802C12.0864 8.0802 11.9088 8.0802 11.7313 8.0802C12.3008 8.37903 12.8686 8.6761 13.4381 8.97493C13.5207 9.01711 13.6016 9.06106 13.6842 9.10325C14.034 9.28606 14.477 9.06106 14.477 8.64797C14.477 8.10657 14.477 7.56516 14.477 7.02375C14.477 6.1677 14.477 5.31165 14.477 4.45559C14.477 4.25872 14.477 4.06008 14.477 3.86321C14.477 3.58723 14.2344 3.32356 13.9496 3.33586C13.6666 3.34993 13.4258 3.56789 13.4258 3.86321ZM9.47424 16.5318C9.86623 16.9238 10.2582 17.3157 10.6502 17.7077C10.7065 17.764 10.7627 17.8202 10.8172 17.8747C11.0194 18.0769 11.3604 18.0769 11.5625 17.8747C11.8772 17.5601 12.1901 17.2472 12.5047 16.9325C13.0057 16.4316 13.5049 15.9323 14.0059 15.4314C14.1201 15.3171 14.2344 15.2029 14.3504 15.0868C14.5455 14.8917 14.5596 14.5331 14.3504 14.3415C14.1395 14.1482 13.8125 14.1323 13.6051 14.3415C13.2905 14.6562 12.9776 14.9691 12.6629 15.2837C12.1619 15.7847 11.6627 16.2839 11.1617 16.7849C11.0475 16.8991 10.9332 17.0134 10.8172 17.1294C11.0651 17.1294 11.3147 17.1294 11.5625 17.1294C11.1705 16.7374 10.7785 16.3454 10.3865 15.9534C10.3303 15.8972 10.274 15.8409 10.2196 15.7865C10.0244 15.5913 9.66584 15.5773 9.47424 15.7865C9.28088 15.9974 9.26682 16.3226 9.47424 16.5318Z" stroke="#083350" stroke-width="0.4"/>
</svg>
