<svg width="24" height="24" viewBox="0 0 24 24" fill="none" xmlns="http://www.w3.org/2000/svg">
<g clipPath="url(#clip0_819_546)">
<path d="M16.5368 7.47638L16.5368 16.2445C16.5368 18.6487 14.6276 20.5579 12.2942 20.4872C9.89003 20.4872 7.98084 18.578 8.05155 16.2445L8.05155 4.9308C8.12226 3.5873 9.18292 2.52664 10.5264 2.45593C11.9406 2.45593 13.072 3.5873 13.0013 4.9308L13.0013 14.6889C13.0013 15.1131 12.6477 15.4667 12.2235 15.4667C11.7992 15.4667 11.4457 15.1131 11.4457 14.6889L11.4457 7.47638C11.4457 6.9107 11.0214 6.48643 10.4557 6.48643C9.89003 6.48643 9.46576 6.9107 9.46576 7.47638L9.53647 14.7596C9.53648 16.3152 10.7386 17.5173 12.2942 17.5173C13.7791 17.4466 14.9812 16.2445 15.0519 14.7596L15.0519 5.00151C15.0519 2.45593 13.072 0.476027 10.5264 0.476027C7.98084 0.476026 6.00094 2.45593 6.00094 5.00151L6.00094 16.3152C6.00094 18.0123 6.70805 19.5679 7.83942 20.6993C10.3143 23.1742 14.2034 23.1034 16.6783 20.6286C17.8803 19.4265 18.446 17.8709 18.5167 16.2445L18.5167 7.47638C18.5167 6.9107 18.0925 6.48643 17.5268 6.48643C16.9611 6.48643 16.5368 6.9107 16.5368 7.47638Z" fill="#083350"/>
</g>
<defs>
<clipPath id="clip0_819_546">
<rect width="24" height="24" fill="white"/>
</clipPath>
</defs>
</svg>
