<svg
  viewBox="0 0 24 24"
  width="24"
  height="24"
  xmlns="http://www.w3.org/2000/svg"
  fill="none"
>
  <path
    d="M 17.211678,10.280428 V 7.1633735 c 0,-2.880914 -2.314176,-5.2187043 -5.195091,-5.2659324 C 9.0176047,1.8265985 6.5853578,4.3060737 6.5853578,7.2578298 v 1.4640708 c 0,0.165299 0.1416841,0.3305969 0.3305966,0.3305969 h 1.5821411 c 0.1889127,0 0.3305967,-0.1416852 0.3305967,-0.3305969 V 7.2578298 c 0,-1.6529832 1.2987718,-3.0698258 2.9517548,-3.1170544 1.74744,-0.070839 3.187896,1.3223866 3.187896,3.0462124 V 10.280428 H 6.6798141 c -1.1570881,0 -2.1016502,0.944562 -2.1016502,2.10165 v 7.650952 c 0,1.157087 0.9445621,2.10165 2.1016502,2.10165 H 17.117222 c 1.157089,0 2.10165,-0.944563 2.10165,-2.10165 v -7.650952 c 0,-1.133474 -0.897333,-2.054422 -2.007194,-2.10165 z"
    fill="#083350"
  />
</svg>
