<svg width="24" height="24" viewBox="0 0 24 24" fill="none" xmlns="http://www.w3.org/2000/svg">
<path fill-rule="evenodd" clip-rule="evenodd" d="M21.9014 12.2464L21.9022 12.2474C21.9656 12.3281 22 12.4276 22 12.5301C22 12.6326 21.9656 12.7322 21.9022 12.8128L21.9014 12.8139L19.7822 15.4616L19.7799 15.4645C19.7372 15.5184 19.683 15.5621 19.621 15.5923C19.5595 15.6223 19.4919 15.6381 19.4234 15.6386H12.4583V21.0843H15.1822C15.3038 21.0843 15.4204 21.1326 15.5064 21.2185C15.5923 21.3044 15.6405 21.4208 15.6405 21.5422C15.6405 21.6635 15.5923 21.7799 15.5064 21.8658C15.4204 21.9517 15.3038 22 15.1822 22H8.81781C8.69617 22 8.57956 21.9517 8.49364 21.8658C8.40771 21.7799 8.35949 21.6635 8.35949 21.5422C8.35949 21.4208 8.40771 21.3044 8.49364 21.2185C8.57956 21.1326 8.69617 21.0843 8.81781 21.0843H11.5417V10.3373H4.57657C4.50806 10.3369 4.44054 10.3211 4.37896 10.2911C4.31705 10.2609 4.26277 10.2172 4.22011 10.1633L2.09864 7.51267L2.09774 7.51152C2.03441 7.43089 2 7.33138 2 7.22892C2 7.12645 2.03441 7.02694 2.09774 6.94631L4.21785 4.2974L4.2201 4.29456C4.26276 4.2406 4.31705 4.19691 4.37896 4.16676C4.44053 4.13678 4.50806 4.12096 4.57657 4.12048H11.5417V2.45783C11.5417 2.3365 11.5899 2.22008 11.6758 2.13419C11.7618 2.0483 11.8784 2 12 2C12.1216 2 12.2382 2.0483 12.3242 2.13419C12.4101 2.22008 12.4583 2.3365 12.4583 2.45783V9.42169H19.4234C19.4919 9.42217 19.5595 9.43798 19.621 9.46797C19.683 9.49812 19.7372 9.5418 19.7799 9.59576L19.7822 9.5986L21.9014 12.2464ZM11.5417 5.03614H4.7946L3.03957 7.22892L4.7946 9.42169H11.5417V5.03614ZM19.2054 10.3373H12.4583V14.7229H19.2054L20.9604 12.5301L19.2054 10.3373Z" fill="#083350" stroke="#083350"/>
</svg>
