<svg xmlns="http://www.w3.org/2000/svg" width="22" height="24" viewBox="0 0 22 24" fill="none">
  <path d="M15.6088 3.62526C15.8895 3.78994 16.2218 3.83323 16.5333 3.74567C16.8448 3.65811 17.1101 3.44682 17.2714 3.15789C17.4048 2.91456 17.6127 2.72386 17.8623 2.61572C18.1119 2.50758 18.3892 2.48811 18.6507 2.56035C18.9122 2.6326 19.1431 2.79248 19.3072 3.01492C19.4713 3.23736 19.5593 3.50979 19.5574 3.78947C19.5574 4.12448 19.4286 4.44577 19.1993 4.68266C18.9701 4.91955 18.6591 5.05263 18.3349 5.05263C18.0107 5.05263 17.6998 5.18571 17.4705 5.4226C17.2412 5.65949 17.1124 5.98078 17.1124 6.31579C17.1124 6.6508 17.2412 6.97209 17.4705 7.20898C17.6998 7.44586 18.0107 7.57895 18.3349 7.57895C18.9786 7.57852 19.6108 7.40306 20.1681 7.07019C20.7253 6.73732 21.188 6.25878 21.5095 5.68263C21.8311 5.10649 22.0003 4.45304 22 3.78796C21.9997 3.12287 21.8301 2.46956 21.5081 1.89368C21.1861 1.31781 20.723 0.839644 20.1655 0.507238C19.608 0.174832 18.9757 -0.000106477 18.332 4.86209e-08C17.6883 0.000106574 17.056 0.175254 16.4986 0.507845C15.9412 0.840435 15.4783 1.31875 15.1565 1.89474C15.0757 2.03891 15.0232 2.19817 15.0022 2.36337C14.9812 2.52856 14.992 2.69642 15.0341 2.85727C15.0761 3.01812 15.1486 3.16878 15.2472 3.30059C15.3458 3.4324 15.4687 3.54274 15.6088 3.62526ZM20.8654 12.6316C20.5446 12.5885 20.2202 12.6787 19.9636 12.8824C19.7069 13.086 19.5389 13.3865 19.4963 13.7179C19.2397 15.8591 18.2343 17.8296 16.6695 19.2581C15.1046 20.6866 13.0882 21.4746 11.0001 21.4737H4.16643L4.96104 20.6526C5.18872 20.416 5.31652 20.0958 5.31652 19.7621C5.31652 19.4284 5.18872 19.1082 4.96104 18.8716C3.76906 17.6351 2.95787 16.0618 2.62964 14.3498C2.30142 12.6379 2.47084 10.8638 3.11656 9.25115C3.76229 7.63849 4.85544 6.25935 6.25831 5.28744C7.66119 4.31553 9.31105 3.79432 11.0001 3.78947C11.3243 3.78947 11.6352 3.65639 11.8645 3.4195C12.0937 3.18261 12.2225 2.86133 12.2225 2.52631C12.2225 2.1913 12.0937 1.87002 11.8645 1.63313C11.6352 1.39624 11.3243 1.26316 11.0001 1.26316C8.93314 1.27207 6.91045 1.8824 5.16372 3.02425C3.41698 4.16609 2.01686 5.79325 1.12376 7.71931C0.230659 9.64538 -0.119301 11.7924 0.113974 13.9145C0.347249 16.0366 1.15432 18.0479 2.44273 19.7179L0.352301 21.84C0.182673 22.0176 0.0677649 22.2432 0.0220759 22.4882C-0.0236131 22.7333 0.00196439 22.9868 0.0955809 23.2168C0.187291 23.4475 0.343032 23.645 0.543176 23.7844C0.74332 23.9237 0.978911 23.9988 1.22026 24H11.0001C13.6791 24.0004 16.2662 22.9907 18.276 21.1605C20.2859 19.3303 21.5804 16.8052 21.9168 14.0589C21.9391 13.8938 21.9296 13.7257 21.8888 13.5644C21.848 13.403 21.7766 13.2517 21.6789 13.119C21.5811 12.9863 21.4589 12.8749 21.3193 12.7912C21.1797 12.7076 21.0255 12.6533 20.8654 12.6316ZM18.7995 8.93053C18.5769 8.82878 18.33 8.798 18.0904 8.8421L17.8704 8.91789L17.6503 9.03158L17.467 9.19579C17.357 9.31219 17.2698 9.44944 17.2102 9.6C17.138 9.75756 17.1044 9.9311 17.1124 10.1053C17.1089 10.2737 17.138 10.4412 17.198 10.5979C17.2612 10.7495 17.3526 10.8868 17.467 11.0021C17.5812 11.1192 17.7167 11.2118 17.8656 11.2747C18.0146 11.3375 18.174 11.3694 18.3349 11.3684C18.6591 11.3684 18.9701 11.2353 19.1993 10.9984C19.4286 10.7616 19.5574 10.4403 19.5574 10.1053C19.5615 9.93957 19.528 9.77517 19.4596 9.62526C19.3282 9.32173 19.0932 9.07889 18.7995 8.94316V8.93053Z" fill="#083350"/>
</svg>
