<svg width="26" height="26" viewBox="0 0 26 26" fill="none" xmlns="http://www.w3.org/2000/svg">
  <path
    d="M13.769 17.6476L13.6065 17.5176C13.5461 17.4766 13.4805 17.4438 13.4115 17.4201L13.2165 17.3334C13.0408 17.2967 12.8587 17.3042 12.6867 17.3552C12.5146 17.4063 12.3579 17.4993 12.2307 17.6259C12.135 17.7312 12.058 17.8521 12.0032 17.9834C11.9212 18.1808 11.8994 18.398 11.9406 18.6078C11.9818 18.8175 12.0841 19.0103 12.2347 19.1621C12.3852 19.3138 12.5773 19.4175 12.7867 19.4604C12.9961 19.5031 13.2135 19.483 13.4115 19.4026C13.541 19.3398 13.6612 19.2596 13.769 19.1642C13.9193 19.0119 14.0212 18.8184 14.0616 18.6083C14.1021 18.3981 14.0795 18.1807 13.9965 17.9834C13.9425 17.8581 13.8653 17.7442 13.769 17.6476ZM17.3332 2.16675H8.6665C7.80455 2.16675 6.9779 2.50916 6.36841 3.11865C5.75891 3.72814 5.4165 4.55479 5.4165 5.41675V20.5834C5.4165 21.4454 5.75891 22.272 6.36841 22.8815C6.9779 23.491 7.80455 23.8334 8.6665 23.8334H17.3332C18.1951 23.8334 19.0218 23.491 19.6313 22.8815C20.2408 22.272 20.5832 21.4454 20.5832 20.5834V5.41675C20.5832 4.55479 20.2408 3.72814 19.6313 3.11865C19.0218 2.50916 18.1951 2.16675 17.3332 2.16675ZM18.4165 20.5834C18.4165 20.8707 18.3024 21.1463 18.0992 21.3494C17.896 21.5526 17.6205 21.6667 17.3332 21.6667H8.6665C8.37919 21.6667 8.10364 21.5526 7.90047 21.3494C7.69731 21.1463 7.58317 20.8707 7.58317 20.5834V5.41675C7.58317 5.12943 7.69731 4.85388 7.90047 4.65072C8.10364 4.44755 8.37919 4.33341 8.6665 4.33341H17.3332C17.6205 4.33341 17.896 4.44755 18.0992 4.65072C18.3024 4.85388 18.4165 5.12943 18.4165 5.41675V20.5834Z"
    fill="#083350" />
</svg>
