<svg width="24" height="24" viewBox="0 0 20 24" fill="none" xmlns="http://www.w3.org/2000/svg">
<path d="M19.707 8.79279L11.707 0.792787C11.5671 0.652977 11.389 0.557771 11.195 0.519203C11.0011 0.480636 10.8 0.500439 10.6173 0.576109C10.4346 0.651779 10.2785 0.779918 10.1686 0.944328C10.0587 1.10874 10 1.30204 10 1.49979V5.04479C7.26829 5.29758 4.72923 6.56065 2.87969 8.58681C1.03015 10.613 0.00327173 13.2564 0 15.9998V17.4998C0.000157856 17.7074 0.0649097 17.9098 0.185274 18.0789C0.305639 18.248 0.475649 18.3755 0.671726 18.4436C0.867802 18.5118 1.08022 18.5172 1.27953 18.4592C1.47883 18.4011 1.65514 18.2825 1.784 18.1198C2.7637 16.9547 3.96576 15.9966 5.31994 15.3014C6.67413 14.6062 8.15329 14.1878 9.671 14.0708C9.721 14.0648 9.846 14.0548 10 14.0448V17.4998C10 17.6975 10.0587 17.8908 10.1686 18.0552C10.2785 18.2197 10.4346 18.3478 10.6173 18.4235C10.8 18.4991 11.0011 18.5189 11.195 18.4804C11.389 18.4418 11.5671 18.3466 11.707 18.2068L19.707 10.2068C19.8945 10.0193 19.9998 9.76495 19.9998 9.49979C19.9998 9.23462 19.8945 8.98032 19.707 8.79279ZM12 15.0858V12.9998C12 12.7346 11.8946 12.4802 11.7071 12.2927C11.5196 12.1051 11.2652 11.9998 11 11.9998C10.745 11.9998 9.704 12.0498 9.438 12.0848C6.74286 12.3331 4.17742 13.3571 2.052 15.0328C2.29324 12.8272 3.33954 10.7881 4.99055 9.30595C6.64157 7.82376 8.78128 7.00263 11 6.99979C11.2652 6.99979 11.5196 6.89443 11.7071 6.70689C11.8946 6.51936 12 6.265 12 5.99979V3.91379L17.586 9.49979L12 15.0858Z" fill="#083350"/>
</svg>
