<svg width="66" height="44" viewBox="0 0 66 44" fill="none" xmlns="http://www.w3.org/2000/svg" >
<path d="M35.7339 0.831543C35.1193 0.831543 34.54 1.07277 34.1052 1.50759L29.757 5.85271C29.3253 6.28511 29.0829 6.87114 29.0829 7.48213C29.0829 8.09313 29.3253 8.67916 29.757 9.11156L42.2531 21.6076C42.3971 21.7517 42.478 21.9471 42.478 22.1508C42.478 22.3545 42.3971 22.5498 42.2531 22.6939L37.3641 27.5829L36.8186 27.036C36.6047 26.8221 36.3508 26.6524 36.0714 26.5366C35.7919 26.4209 35.4924 26.3613 35.19 26.3613C34.8875 26.3613 34.588 26.4209 34.3085 26.5366C34.0291 26.6524 33.7752 26.8221 33.5613 27.036L24.8741 35.7293C24.4424 36.1617 24.2 36.7477 24.2 37.3587C24.2 37.9697 24.4424 38.5557 24.8741 38.9881L27.0482 41.1622C27.4969 41.6109 28.0869 41.8337 28.6769 41.8337C29.2669 41.8337 29.8584 41.6109 30.3055 41.1607L38.9973 32.4704C39.4278 32.0377 39.6694 31.4522 39.6694 30.8418C39.6694 30.2314 39.4278 29.6459 38.9973 29.2131L38.4534 28.6692L43.3424 23.7771C43.5563 23.5632 43.726 23.3093 43.8418 23.0299C43.9575 22.7505 44.0171 22.4509 44.0171 22.1485C44.0171 21.846 43.9575 21.5465 43.8418 21.267C43.726 20.9876 43.5563 20.7337 43.3424 20.5198L30.8448 8.02681C30.7008 7.88275 30.6199 7.68738 30.6199 7.48367C30.6199 7.27996 30.7008 7.0846 30.8448 6.94053L35.19 2.59541C35.2611 2.52349 35.3458 2.46647 35.4392 2.42769C35.5326 2.38891 35.6327 2.36914 35.7339 2.36955H35.7369C35.9405 2.37 36.1356 2.45123 36.2793 2.59541L37.908 4.22406L36.2793 5.85425C35.8484 6.28704 35.6064 6.87292 35.6064 7.48367C35.6064 8.09442 35.8484 8.6803 36.2793 9.11309L56.9202 29.757C57.3704 30.2057 57.9619 30.4285 58.5519 30.4285C59.1419 30.4285 59.7335 30.2057 60.1806 29.757L64.5272 25.4088C64.9586 24.9758 65.2006 24.3893 65.2 23.778C65.1994 23.1668 64.9564 22.5807 64.5242 22.1485L43.8848 1.50912C43.452 1.07772 42.8658 0.835477 42.2546 0.835477C41.6435 0.835477 41.0573 1.07772 40.6244 1.50912L38.9958 3.13778L37.3671 1.50912C37.1538 1.29398 36.8998 1.12341 36.6199 1.00735C36.3401 0.891284 36.0399 0.832046 35.7369 0.83308H35.7339V0.831543ZM42.2546 2.36801C42.4513 2.36801 42.648 2.44483 42.797 2.59387L63.441 23.2363C63.5124 23.3075 63.569 23.3921 63.6075 23.4853C63.6461 23.5785 63.6658 23.6784 63.6655 23.7793C63.6652 23.8802 63.645 23.98 63.6059 24.0729C63.5668 24.1659 63.5097 24.2502 63.4379 24.321L59.0928 28.6692C58.9479 28.8118 58.7528 28.8916 58.5496 28.8916C58.3464 28.8916 58.1513 28.8118 58.0065 28.6692L37.3656 8.02528C37.2223 7.88081 37.1419 7.68559 37.1419 7.48213C37.1419 7.27867 37.2223 7.08345 37.3656 6.93899L39.5382 4.7695V4.76643L39.5412 4.76336L41.7107 2.59387C41.782 2.52223 41.8668 2.46539 41.9601 2.42663C42.0535 2.38787 42.1536 2.36795 42.2546 2.36801Z" fill="#083350" stroke="#083350"/>
<path fill-rule="evenodd" clip-rule="evenodd" d="M11.8373 23.762L9.71587 25.891L1.19998 17.3676L3.32896 15.2386C3.78332 14.7925 4.34216 14.4671 4.9545 14.2924C5.56685 14.1176 6.2132 14.0989 6.83461 14.2381C6.55741 13.8043 6.43686 13.2887 6.49296 12.7769C6.54906 12.2652 6.77844 11.788 7.14305 11.4245L14.0566 4.511L18.6756 1.41158C19.352 0.96693 20.1607 0.768364 20.966 0.849177C21.7714 0.929989 22.5245 1.28526 23.0991 1.85542L23.6332 2.38955L19.3752 6.6174C19.2354 6.75714 19.1244 6.92308 19.0487 7.10573C18.9729 7.28838 18.934 7.48417 18.934 7.68189C18.934 7.87962 18.9729 8.0754 19.0487 8.25805C19.1244 8.44071 19.2354 8.60664 19.3752 8.74638L21.5042 10.8754C21.9269 11.2985 22.1642 11.8721 22.1642 12.4702C22.1642 13.0683 21.9269 13.6419 21.5042 14.0651L20.9603 14.6096L29.0572 22.7065C29.5795 23.2242 30.2405 23.5796 30.9605 23.7296C31.9752 23.9298 32.9074 24.4274 33.6386 25.1589L43.313 34.8409C43.8758 35.405 44.1918 36.1693 44.1918 36.9661C44.1918 37.7629 43.8758 38.5272 43.313 39.0913L40.1233 42.281C39.8443 42.5617 39.5126 42.7846 39.1473 42.9369C38.7819 43.0893 38.3902 43.168 37.9943 43.1687C37.1976 43.1653 36.4346 42.8461 35.8729 42.281L26.191 32.6066C25.4594 31.8754 24.9618 30.9432 24.7616 29.9285C24.6116 29.2085 24.2562 28.5474 23.7385 28.0252L15.6447 19.9314C15.2769 20.2774 14.8059 20.4939 14.3034 20.5477C13.7944 20.6021 13.2817 20.4865 12.8454 20.2188C12.9953 20.8462 12.9814 21.5017 12.8048 22.1223C12.6283 22.7428 12.2951 23.3075 11.8373 23.762ZM10.2425 18.97L11.9351 17.2848L13.53 18.8571C13.6709 18.9972 13.8616 19.0759 14.0603 19.0759C14.2591 19.0759 14.4497 18.9972 14.5907 18.8571L20.4435 13.0043C20.5836 12.8634 20.6623 12.6727 20.6623 12.474C20.6623 12.2752 20.5836 12.0846 20.4435 11.9436L18.3145 9.8372C18.0347 9.55773 17.8128 9.22585 17.6614 8.86055C17.5099 8.49524 17.432 8.10367 17.432 7.70822C17.432 7.31277 17.5099 6.9212 17.6614 6.5559C17.8128 6.19059 18.0347 5.85872 18.3145 5.57925L21.3989 2.49487C21.0939 2.36576 20.7616 2.31465 20.4319 2.34618C20.1023 2.3777 19.7856 2.49085 19.5107 2.67542L15.0722 5.63191L8.2113 12.5003C8.07118 12.6412 7.99254 12.8319 7.99254 13.0307C7.99254 13.2294 8.07118 13.4201 8.2113 13.561L9.80615 15.1559L8.1135 16.841L7.5869 16.3144C7.15688 15.902 6.58411 15.6717 5.98829 15.6717C5.39247 15.6717 4.8197 15.902 4.38968 16.3144L3.32896 17.3751L9.71587 23.762L10.7766 22.6938C11.1992 22.2706 11.4366 21.697 11.4366 21.0989C11.4366 20.5009 11.1992 19.9273 10.7766 19.5041L10.2425 18.97ZM28.019 23.7747L19.9094 15.7027L16.7347 18.8773L24.8067 26.987C25.5386 27.7081 26.0411 28.6293 26.2511 29.6351C26.3936 30.3561 26.7471 31.0186 27.2667 31.5383L36.9336 41.2203C37.0734 41.3602 37.2393 41.4711 37.4219 41.5469C37.6046 41.6226 37.8004 41.6616 37.9981 41.6616C38.1958 41.6616 38.3916 41.6226 38.5743 41.5469C38.7569 41.4711 38.9229 41.3602 39.0626 41.2203L42.2523 38.0306C42.3922 37.8909 42.5032 37.7249 42.5789 37.5423C42.6546 37.3596 42.6936 37.1638 42.6936 36.9661C42.6936 36.7684 42.6546 36.5726 42.5789 36.3899C42.5032 36.2073 42.3922 36.0413 42.2523 35.9016L32.5327 26.2347C32.0312 25.7198 31.3909 25.3618 30.6896 25.2041C29.6776 25.0025 28.7481 24.505 28.019 23.7747Z" fill="#083350"/>
<path d="M9.71587 25.891L9.36216 26.2444L9.71634 26.5989L10.0701 26.2439L9.71587 25.891ZM11.8373 23.762L11.485 23.4072L11.4831 23.4091L11.8373 23.762ZM1.19998 17.3676L0.846428 17.014L0.493031 17.3674L0.846272 17.721L1.19998 17.3676ZM3.32896 15.2386L2.97862 14.8818L2.9754 14.8851L3.32896 15.2386ZM4.9545 14.2924L5.09173 14.7732H5.09173L4.9545 14.2924ZM6.83461 14.2381L6.72537 14.726L7.9091 14.991L7.25594 13.9689L6.83461 14.2381ZM6.49296 12.7769L5.99594 12.7225V12.7225L6.49296 12.7769ZM7.14305 11.4245L7.49605 11.7786L7.49661 11.7781L7.14305 11.4245ZM14.0566 4.511L13.778 4.09581L13.7375 4.12297L13.703 4.15745L14.0566 4.511ZM18.6756 1.41158L18.4009 0.993755L18.397 0.996384L18.6756 1.41158ZM20.966 0.849177L21.016 0.351675V0.351675L20.966 0.849177ZM23.0991 1.85542L23.4526 1.50187L23.4513 1.50052L23.0991 1.85542ZM23.6332 2.38955L23.9855 2.74435L24.3416 2.39081L23.9867 2.036L23.6332 2.38955ZM19.3752 6.6174L19.0229 6.2626L19.0219 6.26365L19.3752 6.6174ZM19.0487 7.10573L19.5105 7.2972L19.5106 7.2972L19.0487 7.10573ZM19.0487 8.25805L19.5106 8.06659L19.5105 8.06658L19.0487 8.25805ZM19.3752 8.74638L19.7288 8.39282L19.7286 8.39263L19.3752 8.74638ZM21.5042 10.8754L21.858 10.522L21.8578 10.5218L21.5042 10.8754ZM21.5042 14.0651L21.1504 13.7117L21.1504 13.7117L21.5042 14.0651ZM20.9603 14.6096L20.6065 14.2563L20.2534 14.6099L20.6068 14.9632L20.9603 14.6096ZM29.0572 22.7065L28.7036 23.06L28.7052 23.0616L29.0572 22.7065ZM30.9605 23.7296L30.8584 24.2191L30.8637 24.2201L30.9605 23.7296ZM33.6386 25.1589L33.9923 24.8055L33.9923 24.8055L33.6386 25.1589ZM43.313 34.8409L43.667 34.4878L43.6667 34.4875L43.313 34.8409ZM43.313 39.0913L43.6666 39.4449L43.667 39.4444L43.313 39.0913ZM40.1233 42.281L39.7698 41.9275L39.7687 41.9285L40.1233 42.281ZM39.1473 42.9369L38.9548 42.4755L38.9548 42.4755L39.1473 42.9369ZM37.9943 43.1687L37.9922 43.6687L37.9952 43.6687L37.9943 43.1687ZM35.8729 42.281L36.2275 41.9285L36.2263 41.9273L35.8729 42.281ZM26.191 32.6066L25.8375 32.9602L25.8375 32.9603L26.191 32.6066ZM24.7616 29.9285L25.2522 29.8316L25.2511 29.8264L24.7616 29.9285ZM23.7385 28.0252L24.0936 27.6732L24.0921 27.6716L23.7385 28.0252ZM15.6447 19.9314L15.9983 19.5778L15.6553 19.2349L15.3021 19.5672L15.6447 19.9314ZM14.3034 20.5477L14.3566 21.0448H14.3566L14.3034 20.5477ZM12.8454 20.2188L13.1069 19.7926L12.0788 19.1618L12.3591 20.335L12.8454 20.2188ZM12.8048 22.1223L12.3239 21.9854L12.8048 22.1223ZM11.9351 17.2848L12.2861 16.9288L11.9334 16.581L11.5824 16.9305L11.9351 17.2848ZM10.2425 18.97L9.88971 18.6156L9.53458 18.9692L9.88892 19.3235L10.2425 18.97ZM13.53 18.8571L13.8825 18.5025L13.881 18.5011L13.53 18.8571ZM14.5907 18.8571L14.9432 19.2117L14.9443 19.2107L14.5907 18.8571ZM20.4435 13.0043L20.797 13.3579L20.7981 13.3568L20.4435 13.0043ZM20.4435 11.9436L20.7981 11.5911L20.7952 11.5882L20.4435 11.9436ZM18.3145 9.8372L17.9612 10.1909L17.9629 10.1926L18.3145 9.8372ZM17.6614 8.86055L18.1232 8.66908L18.1232 8.66908L17.6614 8.86055ZM17.6614 6.5559L18.1232 6.74737L18.1232 6.74737L17.6614 6.5559ZM18.3145 5.57925L18.6679 5.933L18.6681 5.9328L18.3145 5.57925ZM21.3989 2.49487L21.7525 2.84842L22.2772 2.32372L21.5938 2.03443L21.3989 2.49487ZM20.4319 2.34618L20.4795 2.84391L20.4319 2.34618ZM19.5107 2.67542L19.7878 3.09155L19.7893 3.09057L19.5107 2.67542ZM15.0722 5.63191L14.795 5.21578L14.7536 5.24335L14.7184 5.27855L15.0722 5.63191ZM8.2113 12.5003L7.85755 12.1469L7.8567 12.1478L8.2113 12.5003ZM8.2113 13.561L7.85669 13.9135L7.85775 13.9146L8.2113 13.561ZM9.80615 15.1559L10.1589 15.5102L10.514 15.1567L10.1597 14.8023L9.80615 15.1559ZM8.1135 16.841L7.75995 17.1945L8.11272 17.5473L8.46627 17.1953L8.1135 16.841ZM7.5869 16.3144L7.94053 15.9608L7.93299 15.9535L7.5869 16.3144ZM4.38968 16.3144L4.04351 15.9535L4.03613 15.9608L4.38968 16.3144ZM3.32896 17.3751L2.9754 17.0216L2.62185 17.3751L2.9754 17.7287L3.32896 17.3751ZM9.71587 23.762L9.36232 24.1156L9.71712 24.4704L10.0707 24.1143L9.71587 23.762ZM10.7766 22.6938L10.4228 22.3405L10.4218 22.3415L10.7766 22.6938ZM10.7766 19.5041L11.1304 19.1508L11.1302 19.1505L10.7766 19.5041ZM19.9094 15.7027L20.2621 15.3483L19.9085 14.9964L19.5558 15.3491L19.9094 15.7027ZM28.019 23.7747L28.3728 23.4215L28.3717 23.4204L28.019 23.7747ZM16.7347 18.8773L16.3812 18.5238L16.0284 18.8765L16.3803 19.2301L16.7347 18.8773ZM24.8067 26.987L24.4524 27.3398L24.4558 27.3432L24.8067 26.987ZM26.2511 29.6351L26.7417 29.5381L26.7406 29.5329L26.2511 29.6351ZM27.2667 31.5383L27.6206 31.1851L27.6203 31.1848L27.2667 31.5383ZM36.9336 41.2203L36.5798 41.5736L36.5799 41.5736L36.9336 41.2203ZM37.4219 41.5469L37.6134 41.085L37.6134 41.085L37.4219 41.5469ZM38.5743 41.5469L38.3828 41.085L38.3828 41.085L38.5743 41.5469ZM39.0626 41.2203L38.709 40.8667L38.7088 40.8669L39.0626 41.2203ZM42.2523 38.0306L41.8989 37.6768L41.8987 37.677L42.2523 38.0306ZM42.5789 37.5423L42.117 37.3508L42.117 37.3508L42.5789 37.5423ZM42.5789 36.3899L42.117 36.5814V36.5814L42.5789 36.3899ZM42.2523 35.9016L42.6057 35.5479L42.6049 35.5471L42.2523 35.9016ZM32.5327 26.2347L32.1745 26.5836L32.1801 26.5892L32.5327 26.2347ZM30.6896 25.2041L30.7994 24.7161L30.7873 24.7137L30.6896 25.2041ZM10.0701 26.2439L12.1915 24.115L11.4831 23.4091L9.3617 25.5381L10.0701 26.2439ZM0.846272 17.721L9.36216 26.2444L10.0696 25.5376L1.55369 17.0142L0.846272 17.721ZM2.9754 14.8851L0.846428 17.014L1.55354 17.7211L3.68251 15.5922L2.9754 14.8851ZM4.81728 13.8116C4.12466 14.0093 3.49256 14.3772 2.97863 14.8819L3.67928 15.5954C4.07407 15.2077 4.55965 14.925 5.09173 14.7732L4.81728 13.8116ZM6.94386 13.7502C6.24099 13.5928 5.50989 13.6139 4.81728 13.8116L5.09173 14.7732C5.6238 14.6213 6.18542 14.6051 6.72537 14.726L6.94386 13.7502ZM5.99594 12.7225C5.92741 13.3476 6.07466 13.9774 6.41328 14.5073L7.25594 13.9689C7.04015 13.6311 6.94631 13.2298 6.98998 12.8314L5.99594 12.7225ZM6.79006 11.0704C6.34467 11.5144 6.06447 12.0973 5.99594 12.7225L6.98998 12.8314C7.03365 12.433 7.21222 12.0616 7.49605 11.7786L6.79006 11.0704ZM13.703 4.15745L6.7895 11.071L7.49661 11.7781L14.4101 4.86455L13.703 4.15745ZM18.397 0.996384L13.778 4.09581L14.3352 4.92619L18.9542 1.82677L18.397 0.996384ZM21.016 0.351675C20.0964 0.25941 19.1732 0.486116 18.401 0.993773L18.9503 1.82938C19.5308 1.44774 20.2249 1.27732 20.9161 1.34668L21.016 0.351675ZM23.4513 1.50052C22.7953 0.849563 21.9355 0.443939 21.016 0.351675L20.9161 1.34668C21.6074 1.41604 22.2538 1.72097 22.7469 2.21033L23.4513 1.50052ZM23.9867 2.036L23.4526 1.50187L22.7455 2.20898L23.2796 2.7431L23.9867 2.036ZM19.7275 6.97221L23.9855 2.74435L23.2809 2.03474L19.0229 6.2626L19.7275 6.97221ZM19.5106 7.2972C19.5611 7.17524 19.6352 7.06445 19.7286 6.97116L19.0219 6.26365C18.8355 6.44983 18.6877 6.67091 18.5868 6.91426L19.5106 7.2972ZM19.434 7.68189C19.434 7.54988 19.46 7.41915 19.5105 7.2972L18.5868 6.91426C18.4859 7.15761 18.434 7.41846 18.434 7.68189H19.434ZM19.5105 8.06658C19.46 7.94463 19.434 7.81391 19.434 7.68189H18.434C18.434 7.94532 18.4859 8.20617 18.5868 8.44953L19.5105 8.06658ZM19.7286 8.39263C19.6352 8.29933 19.5611 8.18854 19.5106 8.06659L18.5868 8.44952C18.6877 8.69287 18.8355 8.91396 19.0219 9.10013L19.7286 8.39263ZM21.8578 10.5218L19.7288 8.39282L19.0217 9.09993L21.1507 11.2289L21.8578 10.5218ZM22.6642 12.4702C22.6642 11.7396 22.3743 11.0389 21.858 10.522L21.1504 11.2287C21.4794 11.5581 21.6642 12.0046 21.6642 12.4702H22.6642ZM21.858 14.4184C22.3743 13.9015 22.6642 13.2008 22.6642 12.4702H21.6642C21.6642 12.9358 21.4794 13.3823 21.1504 13.7117L21.858 14.4184ZM21.3141 14.963L21.858 14.4184L21.1504 13.7117L20.6065 14.2563L21.3141 14.963ZM29.4107 22.3529L21.3139 14.2561L20.6068 14.9632L28.7036 23.06L29.4107 22.3529ZM31.0625 23.2401C30.4371 23.1098 29.8629 22.8011 29.4092 22.3514L28.7052 23.0616C29.2961 23.6473 30.044 24.0494 30.8585 24.2191L31.0625 23.2401ZM33.9923 24.8055C33.191 24.0038 32.1693 23.4585 31.0573 23.2391L30.8637 24.2201C31.7811 24.4012 32.6239 24.851 33.285 25.5124L33.9923 24.8055ZM43.6667 34.4875L33.9923 24.8055L33.2849 25.5124L42.9593 35.1943L43.6667 34.4875ZM44.6918 36.9661C44.6918 36.0369 44.3233 35.1456 43.667 34.4878L42.959 35.194C43.4283 35.6644 43.6918 36.3017 43.6918 36.9661H44.6918ZM43.667 39.4444C44.3233 38.7866 44.6918 37.8953 44.6918 36.9661H43.6918C43.6918 37.6305 43.4283 38.2678 42.959 38.7382L43.667 39.4444ZM40.4769 42.6346L43.6666 39.4449L42.9595 38.7378L39.7698 41.9275L40.4769 42.6346ZM39.3397 43.3984C39.7657 43.2208 40.1525 42.9609 40.4779 42.6335L39.7687 41.9285C39.536 42.1626 39.2595 42.3484 38.9548 42.4755L39.3397 43.3984ZM37.9952 43.6687C38.4568 43.6679 38.9137 43.5761 39.3397 43.3984L38.9548 42.4755C38.6502 42.6025 38.3235 42.6681 37.9935 42.6687L37.9952 43.6687ZM35.5183 42.6335C36.1734 43.2925 37.0631 43.6648 37.9922 43.6687L37.9965 42.6687C37.3321 42.6659 36.6959 42.3997 36.2275 41.9285L35.5183 42.6335ZM25.8375 32.9603L35.5195 42.6347L36.2263 41.9273L26.5444 32.2529L25.8375 32.9603ZM24.2711 30.0252C24.4905 31.1373 25.0358 32.159 25.8375 32.9602L26.5444 32.2529C25.883 31.5919 25.4332 30.7491 25.2522 29.8317L24.2711 30.0252ZM23.3834 28.3772C23.8331 28.8308 24.1418 29.4051 24.2721 30.0305L25.2511 29.8264C25.0814 29.0119 24.6793 28.264 24.0936 27.6732L23.3834 28.3772ZM15.2911 20.2849L23.3849 28.3787L24.0921 27.6716L15.9983 19.5778L15.2911 20.2849ZM14.3566 21.0448C14.9675 20.9795 15.5401 20.7162 15.9873 20.2955L15.3021 19.5672C15.0137 19.8386 14.6443 20.0084 14.2503 20.0505L14.3566 21.0448ZM12.5839 20.645C13.1144 20.9704 13.7378 21.111 14.3566 21.0448L14.2503 20.0505C13.8511 20.0932 13.449 20.0025 13.1069 19.7926L12.5839 20.645ZM13.2857 22.2591C13.4857 21.5561 13.5016 20.8134 13.3317 20.1026L12.3591 20.335C12.4891 20.879 12.477 21.4474 12.3239 21.9854L13.2857 22.2591ZM12.1896 24.1168C12.7083 23.6018 13.0857 22.9621 13.2857 22.2591L12.3239 21.9854C12.1708 22.5235 11.8819 23.0131 11.485 23.4072L12.1896 24.1168ZM11.5824 16.9305L9.88971 18.6156L10.5952 19.3243L12.2879 17.6392L11.5824 16.9305ZM13.881 18.5011L12.2861 16.9288L11.5841 17.6409L13.1789 19.2132L13.881 18.5011ZM14.0603 18.5759C13.9937 18.5759 13.9297 18.5495 13.8825 18.5025L13.1775 19.2117C13.4121 19.445 13.7295 19.5759 14.0603 19.5759V18.5759ZM14.2382 18.5025C14.1909 18.5495 14.127 18.5759 14.0603 18.5759V19.5759C14.3912 19.5759 14.7086 19.445 14.9432 19.2117L14.2382 18.5025ZM20.0899 12.6508L14.2371 18.5036L14.9443 19.2107L20.797 13.3579L20.0899 12.6508ZM20.1623 12.474C20.1623 12.5406 20.1359 12.6046 20.0889 12.6518L20.7981 13.3568C21.0313 13.1222 21.1623 12.8048 21.1623 12.474H20.1623ZM20.0889 12.2961C20.1359 12.3434 20.1623 12.4073 20.1623 12.474H21.1623C21.1623 12.1431 21.0313 11.8257 20.7981 11.5911L20.0889 12.2961ZM17.9629 10.1926L20.0918 12.299L20.7952 11.5882L18.6662 9.48176L17.9629 10.1926ZM17.1995 9.05202C17.3761 9.47802 17.6349 9.86504 17.9612 10.1909L18.6679 9.48345C18.4346 9.25041 18.2495 8.97368 18.1232 8.66908L17.1995 9.05202ZM16.932 7.70822C16.932 8.16938 17.0229 8.62601 17.1995 9.05202L18.1232 8.66908C17.997 8.36447 17.932 8.03796 17.932 7.70822H16.932ZM17.1995 6.36443C17.0229 6.79043 16.932 7.24706 16.932 7.70822H17.932C17.932 7.37848 17.997 7.05197 18.1232 6.74737L17.1995 6.36443ZM17.9612 5.2255C17.6349 5.5514 17.3761 5.93842 17.1995 6.36443L18.1232 6.74737C18.2495 6.44276 18.4346 6.16603 18.6679 5.933L17.9612 5.2255ZM21.0453 2.14132L17.961 5.22569L18.6681 5.9328L21.7525 2.84842L21.0453 2.14132ZM20.4795 2.84391C20.7265 2.82029 20.9755 2.85858 21.204 2.95531L21.5938 2.03443C21.2124 1.87294 20.7967 1.80902 20.3843 1.84845L20.4795 2.84391ZM19.7893 3.09057C19.9953 2.9523 20.2325 2.86752 20.4795 2.84391L20.3843 1.84845C19.972 1.88787 19.5759 2.02941 19.232 2.26027L19.7893 3.09057ZM15.3493 6.04804L19.7878 3.09155L19.2335 2.25928L14.795 5.21578L15.3493 6.04804ZM8.56505 12.8537L15.4259 5.98527L14.7184 5.27855L7.85755 12.1469L8.56505 12.8537ZM8.49254 13.0307C8.49254 12.964 8.51892 12.9001 8.5659 12.8528L7.8567 12.1478C7.62345 12.3824 7.49254 12.6998 7.49254 13.0307H8.49254ZM8.5659 13.2085C8.51892 13.1613 8.49254 13.0973 8.49254 13.0307H7.49254C7.49254 13.3615 7.62345 13.6789 7.8567 13.9135L8.5659 13.2085ZM10.1597 14.8023L8.56485 13.2075L7.85775 13.9146L9.4526 15.5094L10.1597 14.8023ZM8.46627 17.1953L10.1589 15.5102L9.45339 14.8015L7.76074 16.4867L8.46627 17.1953ZM7.23335 16.6679L7.75995 17.1945L8.46706 16.4874L7.94045 15.9608L7.23335 16.6679ZM5.98829 16.1717C6.45512 16.1717 6.90389 16.3521 7.24081 16.6753L7.93299 15.9535C7.40988 15.4518 6.71311 15.1717 5.98829 15.1717V16.1717ZM4.73577 16.6753C5.07269 16.3521 5.52146 16.1717 5.98829 16.1717V15.1717C5.26348 15.1717 4.5667 15.4518 4.04359 15.9535L4.73577 16.6753ZM3.68251 17.7287L4.74323 16.6679L4.03613 15.9608L2.9754 17.0216L3.68251 17.7287ZM10.0694 23.4085L3.68251 17.0216L2.9754 17.7287L9.36232 24.1156L10.0694 23.4085ZM10.4218 22.3415L9.36107 23.4097L10.0707 24.1143L11.1314 23.0461L10.4218 22.3415ZM10.9366 21.0989C10.9366 21.5645 10.7518 22.011 10.4228 22.3405L11.1304 23.0471C11.6466 22.5302 11.9366 21.8295 11.9366 21.0989H10.9366ZM10.4228 19.8574C10.7518 20.1868 10.9366 20.6334 10.9366 21.0989H11.9366C11.9366 20.3684 11.6466 19.6677 11.1304 19.1508L10.4228 19.8574ZM9.88892 19.3235L10.423 19.8576L11.1302 19.1505L10.596 18.6164L9.88892 19.3235ZM19.5566 16.0571L27.6663 24.1291L28.3717 23.4204L20.2621 15.3483L19.5566 16.0571ZM17.0883 19.2309L20.2629 16.0562L19.5558 15.3491L16.3812 18.5238L17.0883 19.2309ZM25.1611 26.6343L17.0891 18.5246L16.3803 19.2301L24.4524 27.3397L25.1611 26.6343ZM26.7406 29.5329C26.5104 28.4307 25.9597 27.4211 25.1577 26.6308L24.4558 27.3432C25.1175 27.9951 25.5718 28.828 25.7617 29.7373L26.7406 29.5329ZM27.6203 31.1848C27.1707 30.7351 26.8649 30.162 26.7417 29.5381L25.7606 29.732C25.9223 30.5502 26.3234 31.302 26.9131 31.8919L27.6203 31.1848ZM37.2875 40.867L27.6206 31.1851L26.9129 31.8916L36.5798 41.5736L37.2875 40.867ZM37.6134 41.085C37.4915 41.0344 37.3807 40.9603 37.2874 40.8669L36.5799 41.5736C36.766 41.76 36.9871 41.9079 37.2305 42.0088L37.6134 41.085ZM37.9981 41.1616C37.8661 41.1616 37.7354 41.1355 37.6134 41.085L37.2305 42.0087C37.4738 42.1096 37.7347 42.1616 37.9981 42.1616V41.1616ZM38.3828 41.085C38.2608 41.1355 38.1301 41.1616 37.9981 41.1616V42.1616C38.2615 42.1616 38.5224 42.1096 38.7657 42.0087L38.3828 41.085ZM38.7088 40.8669C38.6155 40.9603 38.5048 41.0344 38.3828 41.085L38.7657 42.0088C39.0091 41.9079 39.2302 41.76 39.4164 41.5736L38.7088 40.8669ZM41.8987 37.677L38.709 40.8667L39.4161 41.5738L42.6059 38.3841L41.8987 37.677ZM42.117 37.3508C42.0664 37.4727 41.9923 37.5835 41.8989 37.6768L42.6057 38.3843C42.792 38.1982 42.9399 37.9771 43.0408 37.7337L42.117 37.3508ZM42.1936 36.9661C42.1936 37.0981 42.1675 37.2288 42.117 37.3508L43.0408 37.7337C43.1416 37.4904 43.1936 37.2295 43.1936 36.9661H42.1936ZM42.117 36.5814C42.1675 36.7034 42.1936 36.8341 42.1936 36.9661H43.1936C43.1936 36.7027 43.1416 36.4418 43.0408 36.1985L42.117 36.5814ZM41.8989 36.2554C41.9923 36.3487 42.0664 36.4595 42.117 36.5814L43.0408 36.1985C42.9399 35.9551 42.792 35.734 42.6057 35.5479L41.8989 36.2554ZM32.1801 26.5892L41.8997 36.2561L42.6049 35.5471L32.8853 25.8802L32.1801 26.5892ZM30.5799 25.6919C31.1867 25.8283 31.7407 26.1381 32.1746 26.5836L32.8909 25.8858C32.3218 25.3015 31.5951 24.8952 30.7993 24.7163L30.5799 25.6919ZM27.6652 24.128C28.4642 24.9283 29.4828 25.4735 30.5919 25.6944L30.7873 24.7137C29.8723 24.5314 29.032 24.0817 28.3728 23.4215L27.6652 24.128Z" fill="#083350"/>
</svg>
