<svg width="24" height="24" viewBox="0 0 24 24" fill="none" xmlns="http://www.w3.org/2000/svg">
<path d="M19.119 15.159H15.042C14.8033 15.159 14.5744 15.2538 14.4056 15.4226C14.2368 15.5914 14.142 15.8203 14.142 16.059C14.142 16.2977 14.2368 16.5266 14.4056 16.6954C14.5744 16.8642 14.8033 16.959 15.042 16.959H17.202C16.2092 17.9965 14.929 18.7134 13.5256 19.0177C12.1223 19.3219 10.6601 19.1996 9.3268 18.6665C7.99351 18.1334 6.85008 17.2138 6.04343 16.0259C5.23678 14.8379 4.80376 13.4359 4.8 12C4.8 11.7613 4.70518 11.5324 4.5364 11.3636C4.36761 11.1948 4.13869 11.1 3.9 11.1C3.66131 11.1 3.43239 11.1948 3.2636 11.3636C3.09482 11.5324 3 11.7613 3 12C3.00476 13.7575 3.524 15.4752 4.49364 16.941C5.46329 18.4069 6.8409 19.5567 8.45647 20.2487C10.072 20.9407 11.8549 21.1445 13.5849 20.835C15.315 20.5255 16.9166 19.7162 18.192 18.507V20.1C18.192 20.3387 18.2868 20.5676 18.4556 20.7364C18.6244 20.9052 18.8533 21 19.092 21C19.3307 21 19.5596 20.9052 19.7284 20.7364C19.8972 20.5676 19.992 20.3387 19.992 20.1V16.05C19.9898 15.8175 19.8976 15.5948 19.7349 15.4287C19.5722 15.2626 19.3514 15.166 19.119 15.159ZM12 3C9.69275 3.00658 7.47614 3.89902 5.808 5.493V3.9C5.808 3.66131 5.71318 3.43239 5.5444 3.2636C5.37561 3.09482 5.14669 3 4.908 3C4.66931 3 4.44039 3.09482 4.2716 3.2636C4.10282 3.43239 4.008 3.66131 4.008 3.9V7.95C4.008 8.18869 4.10282 8.41761 4.2716 8.5864C4.44039 8.75518 4.66931 8.85 4.908 8.85H8.958C9.19669 8.85 9.42561 8.75518 9.5944 8.5864C9.76318 8.41761 9.858 8.18869 9.858 7.95C9.858 7.71131 9.76318 7.48239 9.5944 7.3136C9.42561 7.14482 9.19669 7.05 8.958 7.05H6.798C7.79022 6.01308 9.06968 5.29635 10.4722 4.9918C11.8746 4.68724 13.3361 4.80877 14.669 5.34078C16.002 5.87278 17.1455 6.79099 17.9528 7.97754C18.7601 9.1641 19.1945 10.5648 19.2 12C19.2 12.2387 19.2948 12.4676 19.4636 12.6364C19.6324 12.8052 19.8613 12.9 20.1 12.9C20.3387 12.9 20.5676 12.8052 20.7364 12.6364C20.9052 12.4676 21 12.2387 21 12C21 10.8181 20.7672 9.64778 20.3149 8.55585C19.8626 7.46392 19.1997 6.47177 18.364 5.63604C17.5282 4.80031 16.5361 4.13738 15.4442 3.68508C14.3522 3.23279 13.1819 3 12 3V3Z" fill="#083350"/>
</svg>
