<svg
  width="24"
  height="24"
  viewBox="0 0 24 24"
  fill="none"
  xmlns="http://www.w3.org/2000/svg"
>
  <path
    d="M 13.213598,10.84682 16.183036,7.8773812 6.7788024,2.6866301 C 6.4108855,2.4821769 5.9967115,2.3753881 5.5758117,2.3764487 5.1548885,2.3775093 4.7412789,2.4863864 4.3743967,2.6926926 Z M 3.4904743,3.5269081 C 3.2746462,3.8797508 3.1509701,4.283507 3.1509701,4.7115322 V 19.438673 c 0,0.414691 0.1127644,0.809957 0.316465,1.155534 l 8.8889119,-8.888914 z m 16.6295897,6.5233109 -2.832431,-1.5629352 -3.182828,3.1816292 3.900648,3.597518 2.11581,-1.167645 c 0.761467,-0.421958 1.21736,-1.178556 1.21736,-2.024894 -7.29e-4,-0.416056 -0.114505,-0.824116 -0.329115,-1.180532 -0.214635,-0.356441 -0.522068,-0.647859 -0.889444,-0.843141 z m -6.872509,2.477143 -8.9131836,8.913183 c 0.3762889,0.218234 0.8030207,0.334429 1.2379834,0.337063 0.4122456,0 0.826937,-0.104275 1.2064476,-0.31404 L 16.887498,15.884824 Z"
    fill="#083350"
  />
</svg>
