<svg width="24" height="24" viewBox="0 0 24 24" fill="none" xmlns="http://www.w3.org/2000/svg">
<path d="M15.2935 16.1528H9.28922C9.02381 16.1528 8.76927 16.2583 8.5816 16.4459C8.39393 16.6336 8.2885 16.8881 8.2885 17.1535C8.2885 17.4189 8.39393 17.6735 8.5816 17.8611C8.76927 18.0488 9.02381 18.1543 9.28922 18.1543H15.2935C15.5589 18.1543 15.8134 18.0488 16.0011 17.8611C16.1888 17.6735 16.2942 17.4189 16.2942 17.1535C16.2942 16.8881 16.1888 16.6336 16.0011 16.4459C15.8134 16.2583 15.5589 16.1528 15.2935 16.1528ZM9.28922 10.1485H10.2899C10.5553 10.1485 10.8099 10.0431 10.9975 9.85543C11.1852 9.66776 11.2906 9.41323 11.2906 9.14782C11.2906 8.88242 11.1852 8.62788 10.9975 8.44021C10.8099 8.25254 10.5553 8.14711 10.2899 8.14711H9.28922C9.02381 8.14711 8.76927 8.25254 8.5816 8.44021C8.39393 8.62788 8.2885 8.88242 8.2885 9.14782C8.2885 9.41323 8.39393 9.66776 8.5816 9.85543C8.76927 10.0431 9.02381 10.1485 9.28922 10.1485V10.1485ZM15.2935 12.15H9.28922C9.02381 12.15 8.76927 12.2554 8.5816 12.4431C8.39393 12.6307 8.2885 12.8853 8.2885 13.1507C8.2885 13.4161 8.39393 13.6706 8.5816 13.8583C8.76927 14.046 9.02381 14.1514 9.28922 14.1514H15.2935C15.5589 14.1514 15.8134 14.046 16.0011 13.8583C16.1888 13.6706 16.2942 13.4161 16.2942 13.1507C16.2942 12.8853 16.1888 12.6307 16.0011 12.4431C15.8134 12.2554 15.5589 12.15 15.2935 12.15ZM20.0069 15.4423C19.9117 15.3512 19.7995 15.2798 19.6766 15.2322C19.5572 15.178 19.4275 15.15 19.2964 15.15C19.1652 15.15 19.0355 15.178 18.9161 15.2322C18.7932 15.2798 18.681 15.3512 18.5859 15.4423C18.4975 15.5396 18.4264 15.6513 18.3757 15.7726C18.2991 15.9548 18.2781 16.1556 18.3155 16.3498C18.3529 16.5439 18.447 16.7226 18.5859 16.8633C18.6794 16.9561 18.7903 17.0295 18.9122 17.0793C19.0341 17.1291 19.1647 17.1543 19.2964 17.1535C19.4271 17.152 19.5563 17.1248 19.6766 17.0735C19.7979 17.0228 19.9096 16.9517 20.0069 16.8633C20.1457 16.7226 20.2398 16.5439 20.2772 16.3498C20.3146 16.1556 20.2937 15.9548 20.217 15.7726C20.1663 15.6513 20.0953 15.5396 20.0069 15.4423V15.4423ZM20.2971 9.08778C20.2866 8.99585 20.2665 8.90528 20.237 8.81759V8.72752C20.1889 8.62463 20.1247 8.53005 20.0469 8.44732V8.44732L14.0426 2.44304C13.9599 2.3652 13.8653 2.30102 13.7624 2.2529C13.7325 2.24866 13.7022 2.24866 13.6723 2.2529C13.5707 2.1946 13.4584 2.15718 13.3421 2.14282H7.28779C6.49157 2.14282 5.72796 2.45912 5.16495 3.02213C4.60194 3.58514 4.28564 4.34875 4.28564 5.14497V19.155C4.28564 19.9512 4.60194 20.7148 5.16495 21.2778C5.72796 21.8408 6.49157 22.1571 7.28779 22.1571H15.2935C15.5589 22.1571 15.8134 22.0517 16.0011 21.864C16.1888 21.6763 16.2942 21.4218 16.2942 21.1564C16.2942 20.891 16.1888 20.6365 16.0011 20.4488C15.8134 20.2611 15.5589 20.1557 15.2935 20.1557H7.28779C7.02238 20.1557 6.76785 20.0502 6.58018 19.8626C6.39251 19.6749 6.28707 19.4204 6.28707 19.155V5.14497C6.28707 4.87956 6.39251 4.62502 6.58018 4.43735C6.76785 4.24968 7.02238 4.14425 7.28779 4.14425H12.2914V7.14639C12.2914 7.94261 12.6077 8.70622 13.1707 9.26923C13.7337 9.83224 14.4973 10.1485 15.2935 10.1485H18.2956V12.15C18.2956 12.4154 18.4011 12.6699 18.5887 12.8576C18.7764 13.0452 19.031 13.1507 19.2964 13.1507C19.5618 13.1507 19.8163 13.0452 20.004 12.8576C20.1916 12.6699 20.2971 12.4154 20.2971 12.15V9.14782C20.2971 9.14782 20.2971 9.14782 20.2971 9.08778ZM15.2935 8.14711C15.0281 8.14711 14.7736 8.04168 14.5859 7.85401C14.3982 7.66634 14.2928 7.4118 14.2928 7.14639V5.55526L16.8846 8.14711H15.2935ZM19.2964 18.1543C19.031 18.1543 18.7764 18.2597 18.5887 18.4474C18.4011 18.635 18.2956 18.8896 18.2956 19.155V21.1564C18.2956 21.4218 18.4011 21.6763 18.5887 21.864C18.7764 22.0517 19.031 22.1571 19.2964 22.1571C19.5618 22.1571 19.8163 22.0517 20.004 21.864C20.1916 21.6763 20.2971 21.4218 20.2971 21.1564V19.155C20.2971 18.8896 20.1916 18.635 20.004 18.4474C19.8163 18.2597 19.5618 18.1543 19.2964 18.1543Z" fill="#083350"/>
</svg>
