<svg
  width="24"
  height="24"
  viewBox="0 0 24 24"
  fill="none"
  xmlns:svg="http://www.w3.org/2000/svg"
>
  <path
    d="m 14.765877,16.843529 c 0.559704,-1.050444 -0.16402,-2.569496 -1.45528,-2.569496 H 9.3235696 L 14.834863,4.7314511 C 15.186309,4.1131651 14.979349,3.3256501 14.362339,2.9741976 13.744053,2.6227474 12.957853,2.8310147 12.605087,3.4467071 L 12.03236,4.4333732 11.473932,3.4480072 C 11.114676,2.8297124 10.33237,2.6214451 9.7166804,2.9754999 9.0983724,3.3347618 8.8914118,4.1157609 9.2441775,4.7327489 L 10.55495,7.0067857 6.3596642,14.27533 H 3.0820446 c -0.7107143,0 -1.2847528,0.574025 -1.2847528,1.284748 0,0.710723 0.5727362,1.284749 1.2847528,1.284749 z"
    fill="#083350"
  />
  <path
    d="m 4.5267827,17.437573 -0.9189816,1.586742 c -0.3514547,0.618286 -0.1457832,1.405805 0.4725028,1.757251 0.6183079,0.351446 1.4058054,0.143187 1.7572512,-0.472503 l 1.235296,-2.141254 C 6.4050908,17.360777 5.5590119,17.116067 4.5267827,17.437573 Z M 13.924857,7.7296959 c -0.762771,0.6300111 -1.532054,2.4939981 -0.454266,4.3514951 1.050444,1.827537 2.638484,4.567565 4.748501,8.225276 0.359255,0.618286 1.140263,0.825247 1.757251,0.472503 0.618308,-0.359277 0.825268,-1.140263 0.472503,-1.757273 l -1.252213,-2.171173 h 1.858796 c 0.710723,0 1.28477,-0.574047 1.28477,-1.28477 0,-0.710701 -0.572749,-1.284748 -1.28477,-1.284748 H 17.711436 C 16.029683,11.365255 14.76966,9.1784421 13.924857,7.7296959 Z"
    fill="#083350"
  />
</svg>
