<svg width="24" height="24" viewBox="0 0 24 24" fill="none" xmlns="http://www.w3.org/2000/svg">
<path d="M18.5556 6.44444L14.1111 2H5.22222C3.99489 2 3 2.99489 3 4.22222V19.7778C3 21.0051 3.99489 22 5.22222 22H16.3333C17.5607 22 18.5556 21.0051 18.5556 19.7778V18.6667H22.4444V9.77778H18.5556V6.44444ZM13.5556 3.80156L16.754 7H14.1111C13.9638 6.99982 13.8226 6.94124 13.7185 6.83709C13.6143 6.73294 13.5557 6.59173 13.5556 6.44444V3.80156ZM16.8889 19.7778C16.8889 20.084 16.6396 20.3333 16.3333 20.3333H5.22222C5.07493 20.3332 4.93373 20.2746 4.82958 20.1704C4.72543 20.0663 4.66684 19.9251 4.66667 19.7778V4.22222C4.66667 3.91578 4.916 3.66667 5.22222 3.66667H11.8889V6.44444C11.8889 7.67178 12.8838 8.66667 14.1111 8.66667H16.8889V9.77778H6.88889V18.6667H16.8889V19.7778ZM21.3333 10.8889V17.5556H8V10.8889H21.3333Z" fill="#083350"/>
<path d="M10.2224 15.3333H10.778C11.6971 15.3333 12.4447 14.5858 12.4447 13.6667C12.4447 12.7476 11.6971 12 10.778 12H9.11133V16.4444H10.2224V15.3333ZM10.2224 13.1111H10.778C11.0844 13.1111 11.3336 13.3604 11.3336 13.6667C11.3336 13.9729 11.0844 14.2222 10.778 14.2222H10.2224V13.1111ZM18.0002 15.3333H19.6669V14.2222H18.0002V13.1111H20.2224V12H16.8891V16.4444H18.0002V15.3333ZM16.3335 14.7778V13.6667C16.3335 12.7476 15.586 12 14.6669 12H13.0002V16.4444H14.6669C15.586 16.4444 16.3335 15.6969 16.3335 14.7778ZM14.1113 13.1111H14.6669C14.9733 13.1111 15.2224 13.3604 15.2224 13.6667V14.7778C15.2224 15.084 14.9733 15.3333 14.6669 15.3333H14.1113V13.1111Z" fill="#083350"/>
</svg>
