<svg width="24" height="24" viewBox="0 0 24 24" fill="none" xmlns="http://www.w3.org/2000/svg">
<path d="M13.2625 13.5903L17.3677 9.29076C17.5469 9.10453 17.7895 9 18.0423 9C18.2951 9 18.5376 9.10453 18.7169 9.29076C18.8066 9.38371 18.8778 9.4943 18.9263 9.61614C18.9749 9.73799 18.9999 9.86868 18.9999 10.0007C18.9999 10.1327 18.9749 10.2634 18.9263 10.3852C18.8778 10.5071 18.8066 10.6176 18.7169 10.7106L13.9324 15.71C13.7541 15.8947 13.5136 15.9989 13.2625 16C13.1366 16.0007 13.0118 15.9755 12.8952 15.9258C12.7786 15.876 12.6725 15.8027 12.5831 15.71L11.1038 14.1577L12.4559 12.7474L13.2625 13.5903Z" fill="#083350"/>
<path d="M12.3677 9.29076L8.2626 13.5903L6.68371 11.9405C6.59793 11.8358 6.49236 11.7508 6.37365 11.6908C6.25493 11.6307 6.12562 11.597 5.99384 11.5917C5.86205 11.5864 5.73064 11.6096 5.60784 11.6598C5.48505 11.7101 5.37353 11.7864 5.28027 11.8838C5.18702 11.9813 5.11404 12.0978 5.06594 12.2261C5.01783 12.3544 4.99562 12.4917 5.00071 12.6294C5.0058 12.7671 5.03808 12.9022 5.09552 13.0263C5.15295 13.1503 5.23431 13.2607 5.33448 13.3503L7.5832 15.71C7.67261 15.8027 7.77865 15.876 7.89524 15.9258C8.01183 15.9755 8.13667 16.0007 8.2626 16C8.51364 15.9989 8.7542 15.8947 8.93244 15.71L13.7169 10.7106C13.8066 10.6176 13.8778 10.5071 13.9264 10.3852C13.975 10.2634 14 10.1327 14 10.0007C14 9.86868 13.975 9.73799 13.9264 9.61614C13.8778 9.4943 13.8066 9.38371 13.7169 9.29076C13.5377 9.10453 13.2951 9 13.0423 9C12.7895 9 12.547 9.10453 12.3677 9.29076Z" fill="#083350"/>
</svg>
