<svg width="24" height="24" viewBox="0 0 24 24" fill="none" xmlns="http://www.w3.org/2000/svg">
<path d="M17.0002 13.4099L12.7102 9.16994C12.6172 9.07622 12.5066 9.00182 12.3848 8.95105C12.2629 8.90028 12.1322 8.87415 12.0002 8.87415C11.8682 8.87415 11.7375 8.90028 11.6156 8.95105C11.4938 9.00182 11.3832 9.07622 11.2902 9.16994L7.05019 13.4099C6.95646 13.5029 6.88207 13.6135 6.8313 13.7354C6.78053 13.8572 6.75439 13.9879 6.75439 14.1199C6.75439 14.252 6.78053 14.3827 6.8313 14.5045C6.88207 14.6264 6.95646 14.737 7.05019 14.8299C7.23756 15.0162 7.49101 15.1207 7.75519 15.1207C8.01938 15.1207 8.27283 15.0162 8.46019 14.8299L12.0002 11.2899L15.5402 14.8299C15.7265 15.0147 15.9779 15.1188 16.2402 15.1199C16.3718 15.1207 16.5023 15.0955 16.6241 15.0457C16.7459 14.996 16.8568 14.9226 16.9502 14.8299C17.0473 14.7403 17.1256 14.6324 17.1807 14.5123C17.2358 14.3922 17.2666 14.2624 17.2713 14.1304C17.2759 13.9983 17.2543 13.8667 17.2078 13.743C17.1613 13.6194 17.0907 13.5062 17.0002 13.4099Z" fill="#083350"/>
</svg>
