<svg width="50" height="49" viewBox="0 0 50 49" fill="none" xmlns="http://www.w3.org/2000/svg">
<path d="M48.5 24.5C48.5 37.4787 37.9787 48 25 48C12.0213 48 1.5 37.4787 1.5 24.5C1.5 11.5213 12.0213 1 25 1C37.9787 1 48.5 11.5213 48.5 24.5Z" stroke="#083350" stroke-width="2"/>
<path d="M7.34015 28.3086L12.1832 29.9039C12.9239 30.1318 13.7215 29.8469 14.0634 29.2202L22.2111 35.7155C22.2681 35.7725 22.2681 35.7725 22.325 35.7725C23.6925 36.3423 25.2308 36.5702 26.3704 35.6586L26.9971 36.2853C27.6239 36.8551 29.2762 36.9121 29.9029 36.2283C30.1308 35.9434 30.2448 35.6586 30.3018 35.3737C31.0994 35.4307 31.8401 35.0888 31.8971 35.0318C32.5808 34.7469 32.8657 34.0632 32.9797 33.4934C34.3471 33.6074 35.2018 33.0376 35.5436 32.126C35.7715 31.5562 35.7146 30.8725 35.4297 30.3597L36.2843 29.79C36.6262 30.1888 37.082 30.4167 37.5948 30.4167C37.8227 30.4167 38.0506 30.3597 38.2785 30.3028L42.7227 28.3655C43.5774 27.9667 43.9762 26.9981 43.6343 26.1435L39.8169 16.7423C39.475 15.8876 38.4494 15.4888 37.5948 15.7737L32.7518 17.5969C32.296 17.7679 31.8971 18.1667 31.7262 18.7365C27.7378 17.0272 21.2994 17.1411 16.9692 17.6539C16.8553 17.1981 16.4564 16.7993 16.0006 16.5714L11.3285 14.919C10.4169 14.5772 9.44829 15.09 9.1634 16.0016L6.25759 26.3144C6.02968 27.169 6.4855 28.0237 7.34015 28.3086ZM34.4611 31.7272C34.1762 32.4679 33.4355 32.4679 32.6948 32.2969L28.7064 27.6248C28.4785 27.3969 28.1367 27.34 27.9088 27.5679C27.6808 27.7958 27.6239 28.1376 27.8518 28.3655L31.8401 33.0376C31.8401 33.2655 31.7832 33.8353 31.3843 34.0062C31.3274 34.0062 30.7576 34.2911 30.1308 34.1772L25.9146 28.9353C25.7436 28.7074 25.3448 28.6504 25.1169 28.8214C24.889 28.9923 24.832 29.3911 25.0029 29.619L29.2192 34.8609C29.1622 35.7155 28.5925 35.4876 28.5355 35.5446C27.4529 35.5446 27.7378 35.2597 26.7692 34.4621L23.4076 30.3597C23.1797 30.1318 22.8378 30.0748 22.6099 30.3028C22.382 30.5307 22.325 30.8725 22.5529 31.1004L25.6297 34.8039C24.832 35.3737 23.7494 35.1458 22.8948 34.7469L14.4053 28.0807C14.6332 27.1121 13.4936 31.4993 16.8553 18.9074C17.425 18.8504 18.6215 18.7365 20.1029 18.6225C19.3053 20.0469 18.1657 22.6109 19.4192 24.2062C21.1285 26.3144 24.0343 23.7504 25.2308 23.0667C25.5727 23.0667 29.3901 23.2376 34.0622 30.5307C34.2332 30.5876 34.746 30.9865 34.4611 31.7272ZM33.1506 18.7365L37.9936 16.9132C38.2785 16.7993 38.6204 16.9702 38.7343 17.2551L42.6087 26.5993C42.7227 26.8841 42.6087 27.226 42.3239 27.34L40.7855 28.0237C41.2983 27.7388 41.6401 27.226 41.6401 26.5993C41.6401 25.6876 40.8994 24.9469 39.9878 24.9469C39.0762 24.9469 38.3355 25.6876 38.3355 26.5993C38.3355 27.6818 39.3611 28.4795 40.4436 28.1376L37.8227 29.2772C37.5378 29.3911 37.196 29.2772 37.082 28.9923C36.9681 28.5935 32.9227 19.5911 32.8088 19.4772C32.6948 19.1353 32.8657 18.8504 33.1506 18.7365ZM40.5006 26.5423C40.5006 26.8272 40.2727 27.0551 39.9878 27.0551C39.7029 27.0551 39.475 26.8272 39.475 26.5423C39.475 26.2574 39.7029 26.0295 39.9878 26.0295C40.2727 26.0295 40.5006 26.2574 40.5006 26.5423ZM31.8971 20.1609L35.8285 28.7644L34.8599 29.3911C30.0739 22.2121 25.8576 21.6993 25.0029 21.9272C24.832 21.9841 24.6611 22.0981 24.2622 22.383C22.7239 23.4655 21.1285 24.4341 20.3878 23.4655C19.4192 22.269 20.7867 19.7051 21.5274 18.5086C24.6611 18.4516 29.0483 18.6795 31.8971 20.1609ZM7.34015 26.6562L10.3029 16.3435C10.3599 16.0586 10.6448 15.8876 10.9297 16.0016L15.5448 17.7679C15.7727 17.8818 15.8867 18.1097 15.8297 18.3376C12.1262 32.3539 13.3797 27.5109 13.0948 28.5365C13.0378 28.8214 12.7529 28.9353 12.4681 28.8783L7.62503 27.283C7.4541 27.169 7.28317 26.8841 7.34015 26.6562Z" fill="#083350"/>
</svg>
