<svg width="42" height="42" viewBox="0 0 42 42" fill="none" xmlns="http://www.w3.org/2000/svg">
<path d="M32.5583 7.3335H8.6416C7.28237 7.3335 5.9788 7.87345 5.01768 8.83457C4.05656 9.7957 3.5166 11.0993 3.5166 12.4585V29.5418C3.5166 30.9011 4.05656 32.2046 5.01768 33.1658C5.9788 34.1269 7.28237 34.6668 8.6416 34.6668H32.5583C33.9175 34.6668 35.2211 34.1269 36.1822 33.1658C37.1433 32.2046 37.6833 30.9011 37.6833 29.5418V12.4585C37.6833 11.0993 37.1433 9.7957 36.1822 8.83457C35.2211 7.87345 33.9175 7.3335 32.5583 7.3335ZM8.6416 10.7502H32.5583C33.0113 10.7502 33.4459 10.9301 33.7662 11.2505C34.0866 11.5709 34.2666 12.0054 34.2666 12.4585L20.5999 20.7952L6.93327 12.4585C6.93327 12.0054 7.11325 11.5709 7.43363 11.2505C7.754 10.9301 8.18852 10.7502 8.6416 10.7502ZM34.2666 29.5418C34.2666 29.9949 34.0866 30.4294 33.7662 30.7498C33.4459 31.0702 33.0113 31.2502 32.5583 31.2502H8.6416C8.18852 31.2502 7.754 31.0702 7.43363 30.7498C7.11325 30.4294 6.93327 29.9949 6.93327 29.5418V16.3535L19.7116 24.1606C19.9713 24.3105 20.2659 24.3895 20.5658 24.3895C20.8656 24.3895 21.1602 24.3105 21.4199 24.1606L34.2666 16.3535V29.5418Z" fill="#65829E"/>
</svg>
