<svg
   width="24"
   height="24"
   viewBox="0 0 24 24"
   fill="none"
   mlns="http://www.w3.org/2000/svg">
  <path
     d="m 12.71103,6.29094 c 0.0938,0.09296 0.1682,0.20356 0.2189,0.32542 0.0508,0.12186 0.0769,0.25257 0.0769,0.38458 0,0.13201 -0.0261,0.26272 -0.0769,0.38458 -0.0507,0.12185 -0.1251,0.23245 -0.2189,0.32542 l -3.29996,3.29003 h 7.58996 c 0.2653,0 0.5196,0.1053 0.7072,0.2929 0.1875,0.1875 0.2928,0.4419 0.2928,0.7071 0,0.2652 -0.1053,0.5195 -0.2928,0.7071 -0.1876,0.1875 -0.4419,0.2929 -0.7072,0.2929 H 9.41107 l 3.29996,3.29 c 0.1883,0.1883 0.2941,0.4437 0.2941,0.71 0,0.2663 -0.1058,0.5217 -0.2941,0.71 -0.1883,0.1883 -0.4437,0.2941 -0.71,0.2941 -0.2663,0 -0.5217,-0.1058 -0.71,-0.2941 l -4.99996,-5 c -0.09104,-0.0951 -0.1624,-0.2073 -0.21,-0.33 -0.0529,-0.1197 -0.08023,-0.2492 -0.08023,-0.38 0,-0.1309 0.02733,-0.2603 0.08023,-0.38 0.0476,-0.1228 0.11896,-0.2349 0.21,-0.33 l 4.99996,-5.00003 c 0.093,-0.09373 0.2036,-0.16812 0.3255,-0.21889 0.1218,-0.05077 0.2525,-0.07691 0.3845,-0.07691 0.1321,0 0.2628,0.02614 0.3846,0.07691 0.1219,0.05077 0.2325,0.12516 0.3254,0.21889 z"
     fill="#083350" />
</svg>
