<svg width="47" height="54" viewBox="0 0 47 54" fill="none" xmlns="http://www.w3.org/2000/svg">
  <path
    d="M21.0681 46.2536H8.84137C4.01265 46.2536 0.0839844 42.3249 0.0839844 37.4962V8.75739C0.0839844 3.92866 4.01265 0 8.84137 0H27.3292C32.1579 0 36.0866 3.92866 36.0866 8.75739V27.289H33.1675V8.75739C33.1675 5.53807 30.5485 2.91913 27.3292 2.91913H8.84137C5.62206 2.91913 3.00311 5.53807 3.00311 8.75739V37.4962C3.00311 40.7155 5.62206 43.3345 8.84137 43.3345H21.0681V46.2536Z"
    fill="#083350" />
  <path
    d="M29.0337 12.7043H7.13339C6.32723 12.7043 5.67383 12.0509 5.67383 11.2447C5.67383 10.4386 6.32723 9.78516 7.13339 9.78516H29.0337C29.8398 9.78516 30.4932 10.4386 30.4932 11.2447C30.4932 12.0509 29.8398 12.7043 29.0337 12.7043Z"
    fill="#083350" />
  <path
    d="M29.0337 22.9562H7.13339C6.32723 22.9562 5.67383 22.3028 5.67383 21.4967C5.67383 20.6905 6.32723 20.0371 7.13339 20.0371H29.0337C29.8398 20.0371 30.4932 20.6905 30.4932 21.4967C30.4932 22.3028 29.8398 22.9562 29.0337 22.9562Z"
    fill="#083350" />
  <path
    d="M22.5892 33.2062H7.13339C6.32723 33.2062 5.67383 32.5528 5.67383 31.7467C5.67383 30.9405 6.32723 30.2871 7.13339 30.2871H22.5892C23.3954 30.2871 24.0488 30.9405 24.0488 31.7467C24.0488 32.5528 23.3954 33.2062 22.5892 33.2062Z"
    fill="#083350" />
  <path
    d="M32.8083 53.9975C25.0289 53.9975 18.6992 47.6679 18.6992 39.8884C18.6992 32.1089 25.0289 25.7793 32.8083 25.7793C40.5878 25.7793 46.9175 32.1089 46.9175 39.8884C46.9175 47.6679 40.5878 53.9975 32.8083 53.9975ZM32.8083 28.6984C26.6378 28.6984 21.6183 33.7179 21.6183 39.8884C21.6183 46.059 26.6378 51.0784 32.8083 51.0784C38.9789 51.0784 43.9983 46.059 43.9983 39.8884C43.9983 33.7179 38.9789 28.6984 32.8083 28.6984Z"
    fill="#083350" />
  <path
    d="M38.159 41.3469H32.8072C32.0011 41.3469 31.3477 40.6935 31.3477 39.8873C31.3477 39.0811 32.0011 38.4277 32.8072 38.4277H38.159C38.9651 38.4277 39.6185 39.0811 39.6185 39.8873C39.6185 40.6935 38.9651 41.3469 38.159 41.3469Z"
    fill="#083350" />
  <path
    d="M32.8072 41.3478C32.0011 41.3478 31.3477 40.6944 31.3477 39.8882L31.3477 32.5904C31.3477 31.7843 32.0011 31.1309 32.8072 31.1309C33.6134 31.1309 34.2668 31.7843 34.2668 32.5904L34.2668 39.8882C34.2668 40.6944 33.6134 41.3478 32.8072 41.3478Z"
    fill="#083350" />
</svg>
