<svg width="24" height="24" viewBox="0 0 24 24" fill="none" xmlns="http://www.w3.org/2000/svg">
<mask id="path-1-outside-1_1_7" maskUnits="userSpaceOnUse" x="0.241043" y="2.89951" width="23" height="18" fill="black">
<rect fill="white" x="0.241043" y="2.89951" width="23" height="18"/>
<path d="M22.7213 15.4421C22.2353 14.4585 21.3406 13.7822 20.2975 13.572C20.2404 13.293 20.1822 13.0141 20.1228 12.7356L18.9154 7.07807C19.1777 7.04063 19.4652 6.96575 19.6639 6.87671C19.7054 6.85799 20.6813 6.41111 20.6813 5.50175C20.6808 5.07696 20.5118 4.66972 20.2114 4.36935C19.9111 4.06898 19.5038 3.90001 19.079 3.89951H14.8015C14.3383 3.89951 13.9615 4.27631 13.9615 4.73951V5.21951C13.9615 5.68271 14.3383 6.05951 14.8015 6.05951H16.4818C16.4818 6.05951 16.4786 6.45503 16.4734 6.48671L15.3055 13.3325C15.2467 13.6771 14.8886 13.9795 14.5392 13.9795H11.9213C11.7689 13.9795 11.633 13.9219 11.5382 13.8175C11.4434 13.7129 11.3998 13.5717 11.4149 13.4201L11.7041 10.5305C11.7279 10.2942 11.6832 10.0561 11.5754 9.84455C11.8483 9.76362 12.0877 9.59679 12.2581 9.36886C12.4285 9.14094 12.5208 8.86409 12.5213 8.57951C12.5213 7.85159 11.929 7.25951 11.2013 7.25951H5.92128C5.57131 7.25989 5.23579 7.39908 4.98832 7.64655C4.74086 7.89401 4.60166 8.22954 4.60128 8.57951C4.60128 8.80199 4.65696 9.01151 4.75488 9.19559C4.15416 9.27215 3.49392 9.66407 3.18024 10.1537L1.8156 12.2839C1.49352 12.7869 1.24104 13.649 1.24104 14.2464V16.0195C1.24104 16.7474 1.83312 17.3395 2.56104 17.3395H3.28704C3.3504 18.8738 4.61112 20.0995 6.16104 20.0995C7.71072 20.0995 8.97144 18.8738 9.03504 17.3395H16.4602C16.4671 17.34 16.4741 17.3417 16.481 17.3417H16.727C16.7916 18.8748 18.0518 20.0995 19.601 20.0995C21.1913 20.0995 22.481 18.8097 22.481 17.2195C22.481 16.7971 22.3884 16.3973 22.2245 16.0363L22.5096 15.9434C22.5587 15.9274 22.6037 15.9011 22.6417 15.8662C22.6797 15.8313 22.7098 15.7886 22.7298 15.741C22.7499 15.6935 22.7595 15.6422 22.7581 15.5906C22.7566 15.539 22.744 15.4884 22.7213 15.4421ZM21.8614 15.3981L18.1044 16.6221H16.865C17.0419 15.2697 18.2016 14.2221 19.6015 14.2221C20.0453 14.2206 20.4827 14.3268 20.8764 14.5316C21.27 14.7365 21.608 15.0338 21.8614 15.3981ZM19.9615 5.50223C19.9615 5.93639 19.3745 6.21767 19.3697 6.22007C19.1741 6.30767 18.8138 6.38471 18.5988 6.38471H17.3218C17.2901 6.38427 17.2598 6.37149 17.2374 6.34908C17.215 6.32667 17.2022 6.2964 17.2018 6.26471V4.73999C17.2018 4.67495 17.2567 4.61999 17.3218 4.61999H19.0793C19.3132 4.62024 19.5374 4.71327 19.7028 4.87867C19.8682 5.04407 19.9613 5.26832 19.9615 5.50223ZM14.8015 5.33999C14.7698 5.33955 14.7396 5.32677 14.7172 5.30436C14.6947 5.28195 14.682 5.25168 14.6815 5.21999V4.73999C14.6815 4.67495 14.7365 4.61999 14.8015 4.61999H16.494C16.4885 4.65959 16.4818 4.69895 16.4818 4.73999V5.33999H14.8015ZM5.92152 7.97999H11.2015C11.5322 7.97999 11.8015 8.24927 11.8015 8.57999C11.8015 8.91071 11.5322 9.17999 11.2015 9.17999H5.92152C5.59056 9.17999 5.32152 8.91071 5.32152 8.57999C5.32152 8.24927 5.59056 7.97999 5.92152 7.97999ZM1.96152 16.02V14.2469C1.96152 13.7916 2.1768 13.056 2.42232 12.6727L3.78696 10.5425C4.00632 10.2002 4.55496 9.89999 4.96176 9.89999H10.4818C10.6342 9.89999 10.77 9.95759 10.8648 10.062C10.9596 10.1666 11.0033 10.3077 10.9882 10.4594L10.699 13.349C10.6634 13.7057 10.7722 14.0438 11.005 14.3011C11.2378 14.5584 11.5632 14.7002 11.9215 14.7002H14.5392C15.2477 14.7002 15.8962 14.153 16.0152 13.4544L17.1041 7.07255C17.1739 7.09151 17.2462 7.10471 17.3218 7.10471H18.1848L19.4191 12.8863C19.4599 13.0778 19.5048 13.2929 19.5487 13.505C17.7763 13.5319 16.3207 14.8884 16.1407 16.6202H2.56152C2.40243 16.62 2.24993 16.5566 2.13745 16.4441C2.02498 16.3316 1.96171 16.1791 1.96152 16.02ZM6.16152 19.38C5.01096 19.38 4.0704 18.4752 4.00752 17.34H8.31528C8.25264 18.4752 7.31208 19.38 6.16152 19.38ZM21.7615 17.22C21.7615 18.4111 20.7926 19.38 19.6015 19.38C18.4517 19.38 17.5116 18.4761 17.4475 17.3421H18.1615C18.1992 17.3421 18.2369 17.3361 18.2731 17.3244L21.535 16.2617C21.684 16.5591 21.7616 16.8873 21.7615 17.22Z"/>
</mask>
<path d="M22.7213 15.4421C22.2353 14.4585 21.3406 13.7822 20.2975 13.572C20.2404 13.293 20.1822 13.0141 20.1228 12.7356L18.9154 7.07807C19.1777 7.04063 19.4652 6.96575 19.6639 6.87671C19.7054 6.85799 20.6813 6.41111 20.6813 5.50175C20.6808 5.07696 20.5118 4.66972 20.2114 4.36935C19.9111 4.06898 19.5038 3.90001 19.079 3.89951H14.8015C14.3383 3.89951 13.9615 4.27631 13.9615 4.73951V5.21951C13.9615 5.68271 14.3383 6.05951 14.8015 6.05951H16.4818C16.4818 6.05951 16.4786 6.45503 16.4734 6.48671L15.3055 13.3325C15.2467 13.6771 14.8886 13.9795 14.5392 13.9795H11.9213C11.7689 13.9795 11.633 13.9219 11.5382 13.8175C11.4434 13.7129 11.3998 13.5717 11.4149 13.4201L11.7041 10.5305C11.7279 10.2942 11.6832 10.0561 11.5754 9.84455C11.8483 9.76362 12.0877 9.59679 12.2581 9.36886C12.4285 9.14094 12.5208 8.86409 12.5213 8.57951C12.5213 7.85159 11.929 7.25951 11.2013 7.25951H5.92128C5.57131 7.25989 5.23579 7.39908 4.98832 7.64655C4.74086 7.89401 4.60166 8.22954 4.60128 8.57951C4.60128 8.80199 4.65696 9.01151 4.75488 9.19559C4.15416 9.27215 3.49392 9.66407 3.18024 10.1537L1.8156 12.2839C1.49352 12.7869 1.24104 13.649 1.24104 14.2464V16.0195C1.24104 16.7474 1.83312 17.3395 2.56104 17.3395H3.28704C3.3504 18.8738 4.61112 20.0995 6.16104 20.0995C7.71072 20.0995 8.97144 18.8738 9.03504 17.3395H16.4602C16.4671 17.34 16.4741 17.3417 16.481 17.3417H16.727C16.7916 18.8748 18.0518 20.0995 19.601 20.0995C21.1913 20.0995 22.481 18.8097 22.481 17.2195C22.481 16.7971 22.3884 16.3973 22.2245 16.0363L22.5096 15.9434C22.5587 15.9274 22.6037 15.9011 22.6417 15.8662C22.6797 15.8313 22.7098 15.7886 22.7298 15.741C22.7499 15.6935 22.7595 15.6422 22.7581 15.5906C22.7566 15.539 22.744 15.4884 22.7213 15.4421ZM21.8614 15.3981L18.1044 16.6221H16.865C17.0419 15.2697 18.2016 14.2221 19.6015 14.2221C20.0453 14.2206 20.4827 14.3268 20.8764 14.5316C21.27 14.7365 21.608 15.0338 21.8614 15.3981ZM19.9615 5.50223C19.9615 5.93639 19.3745 6.21767 19.3697 6.22007C19.1741 6.30767 18.8138 6.38471 18.5988 6.38471H17.3218C17.2901 6.38427 17.2598 6.37149 17.2374 6.34908C17.215 6.32667 17.2022 6.2964 17.2018 6.26471V4.73999C17.2018 4.67495 17.2567 4.61999 17.3218 4.61999H19.0793C19.3132 4.62024 19.5374 4.71327 19.7028 4.87867C19.8682 5.04407 19.9613 5.26832 19.9615 5.50223ZM14.8015 5.33999C14.7698 5.33955 14.7396 5.32677 14.7172 5.30436C14.6947 5.28195 14.682 5.25168 14.6815 5.21999V4.73999C14.6815 4.67495 14.7365 4.61999 14.8015 4.61999H16.494C16.4885 4.65959 16.4818 4.69895 16.4818 4.73999V5.33999H14.8015ZM5.92152 7.97999H11.2015C11.5322 7.97999 11.8015 8.24927 11.8015 8.57999C11.8015 8.91071 11.5322 9.17999 11.2015 9.17999H5.92152C5.59056 9.17999 5.32152 8.91071 5.32152 8.57999C5.32152 8.24927 5.59056 7.97999 5.92152 7.97999ZM1.96152 16.02V14.2469C1.96152 13.7916 2.1768 13.056 2.42232 12.6727L3.78696 10.5425C4.00632 10.2002 4.55496 9.89999 4.96176 9.89999H10.4818C10.6342 9.89999 10.77 9.95759 10.8648 10.062C10.9596 10.1666 11.0033 10.3077 10.9882 10.4594L10.699 13.349C10.6634 13.7057 10.7722 14.0438 11.005 14.3011C11.2378 14.5584 11.5632 14.7002 11.9215 14.7002H14.5392C15.2477 14.7002 15.8962 14.153 16.0152 13.4544L17.1041 7.07255C17.1739 7.09151 17.2462 7.10471 17.3218 7.10471H18.1848L19.4191 12.8863C19.4599 13.0778 19.5048 13.2929 19.5487 13.505C17.7763 13.5319 16.3207 14.8884 16.1407 16.6202H2.56152C2.40243 16.62 2.24993 16.5566 2.13745 16.4441C2.02498 16.3316 1.96171 16.1791 1.96152 16.02ZM6.16152 19.38C5.01096 19.38 4.0704 18.4752 4.00752 17.34H8.31528C8.25264 18.4752 7.31208 19.38 6.16152 19.38ZM21.7615 17.22C21.7615 18.4111 20.7926 19.38 19.6015 19.38C18.4517 19.38 17.5116 18.4761 17.4475 17.3421H18.1615C18.1992 17.3421 18.2369 17.3361 18.2731 17.3244L21.535 16.2617C21.684 16.5591 21.7616 16.8873 21.7615 17.22Z" fill="#083350"/>
<path d="M22.7213 15.4421C22.2353 14.4585 21.3406 13.7822 20.2975 13.572C20.2404 13.293 20.1822 13.0141 20.1228 12.7356L18.9154 7.07807C19.1777 7.04063 19.4652 6.96575 19.6639 6.87671C19.7054 6.85799 20.6813 6.41111 20.6813 5.50175C20.6808 5.07696 20.5118 4.66972 20.2114 4.36935C19.9111 4.06898 19.5038 3.90001 19.079 3.89951H14.8015C14.3383 3.89951 13.9615 4.27631 13.9615 4.73951V5.21951C13.9615 5.68271 14.3383 6.05951 14.8015 6.05951H16.4818C16.4818 6.05951 16.4786 6.45503 16.4734 6.48671L15.3055 13.3325C15.2467 13.6771 14.8886 13.9795 14.5392 13.9795H11.9213C11.7689 13.9795 11.633 13.9219 11.5382 13.8175C11.4434 13.7129 11.3998 13.5717 11.4149 13.4201L11.7041 10.5305C11.7279 10.2942 11.6832 10.0561 11.5754 9.84455C11.8483 9.76362 12.0877 9.59679 12.2581 9.36886C12.4285 9.14094 12.5208 8.86409 12.5213 8.57951C12.5213 7.85159 11.929 7.25951 11.2013 7.25951H5.92128C5.57131 7.25989 5.23579 7.39908 4.98832 7.64655C4.74086 7.89401 4.60166 8.22954 4.60128 8.57951C4.60128 8.80199 4.65696 9.01151 4.75488 9.19559C4.15416 9.27215 3.49392 9.66407 3.18024 10.1537L1.8156 12.2839C1.49352 12.7869 1.24104 13.649 1.24104 14.2464V16.0195C1.24104 16.7474 1.83312 17.3395 2.56104 17.3395H3.28704C3.3504 18.8738 4.61112 20.0995 6.16104 20.0995C7.71072 20.0995 8.97144 18.8738 9.03504 17.3395H16.4602C16.4671 17.34 16.4741 17.3417 16.481 17.3417H16.727C16.7916 18.8748 18.0518 20.0995 19.601 20.0995C21.1913 20.0995 22.481 18.8097 22.481 17.2195C22.481 16.7971 22.3884 16.3973 22.2245 16.0363L22.5096 15.9434C22.5587 15.9274 22.6037 15.9011 22.6417 15.8662C22.6797 15.8313 22.7098 15.7886 22.7298 15.741C22.7499 15.6935 22.7595 15.6422 22.7581 15.5906C22.7566 15.539 22.744 15.4884 22.7213 15.4421ZM21.8614 15.3981L18.1044 16.6221H16.865C17.0419 15.2697 18.2016 14.2221 19.6015 14.2221C20.0453 14.2206 20.4827 14.3268 20.8764 14.5316C21.27 14.7365 21.608 15.0338 21.8614 15.3981ZM19.9615 5.50223C19.9615 5.93639 19.3745 6.21767 19.3697 6.22007C19.1741 6.30767 18.8138 6.38471 18.5988 6.38471H17.3218C17.2901 6.38427 17.2598 6.37149 17.2374 6.34908C17.215 6.32667 17.2022 6.2964 17.2018 6.26471V4.73999C17.2018 4.67495 17.2567 4.61999 17.3218 4.61999H19.0793C19.3132 4.62024 19.5374 4.71327 19.7028 4.87867C19.8682 5.04407 19.9613 5.26832 19.9615 5.50223ZM14.8015 5.33999C14.7698 5.33955 14.7396 5.32677 14.7172 5.30436C14.6947 5.28195 14.682 5.25168 14.6815 5.21999V4.73999C14.6815 4.67495 14.7365 4.61999 14.8015 4.61999H16.494C16.4885 4.65959 16.4818 4.69895 16.4818 4.73999V5.33999H14.8015ZM5.92152 7.97999H11.2015C11.5322 7.97999 11.8015 8.24927 11.8015 8.57999C11.8015 8.91071 11.5322 9.17999 11.2015 9.17999H5.92152C5.59056 9.17999 5.32152 8.91071 5.32152 8.57999C5.32152 8.24927 5.59056 7.97999 5.92152 7.97999ZM1.96152 16.02V14.2469C1.96152 13.7916 2.1768 13.056 2.42232 12.6727L3.78696 10.5425C4.00632 10.2002 4.55496 9.89999 4.96176 9.89999H10.4818C10.6342 9.89999 10.77 9.95759 10.8648 10.062C10.9596 10.1666 11.0033 10.3077 10.9882 10.4594L10.699 13.349C10.6634 13.7057 10.7722 14.0438 11.005 14.3011C11.2378 14.5584 11.5632 14.7002 11.9215 14.7002H14.5392C15.2477 14.7002 15.8962 14.153 16.0152 13.4544L17.1041 7.07255C17.1739 7.09151 17.2462 7.10471 17.3218 7.10471H18.1848L19.4191 12.8863C19.4599 13.0778 19.5048 13.2929 19.5487 13.505C17.7763 13.5319 16.3207 14.8884 16.1407 16.6202H2.56152C2.40243 16.62 2.24993 16.5566 2.13745 16.4441C2.02498 16.3316 1.96171 16.1791 1.96152 16.02ZM6.16152 19.38C5.01096 19.38 4.0704 18.4752 4.00752 17.34H8.31528C8.25264 18.4752 7.31208 19.38 6.16152 19.38ZM21.7615 17.22C21.7615 18.4111 20.7926 19.38 19.6015 19.38C18.4517 19.38 17.5116 18.4761 17.4475 17.3421H18.1615C18.1992 17.3421 18.2369 17.3361 18.2731 17.3244L21.535 16.2617C21.684 16.5591 21.7616 16.8873 21.7615 17.22Z" stroke="#083350" stroke-width="0.6" mask="url(#path-1-outside-1_1_7)"/>
</svg>
