<svg width="24" height="24" viewBox="0 0 24 24" fill="none" xmlns="http://www.w3.org/2000/svg">
<path d="M9.63028 21.6113C9.43137 21.6113 9.2406 21.5323 9.09995 21.3916C8.9593 21.251 8.88028 21.0602 8.88028 20.8613V13.875L2.52403 7.2488C2.12973 6.8433 1.86391 6.33041 1.75991 5.77445C1.65592 5.21849 1.71836 4.6442 1.93942 4.12359C2.16048 3.60298 2.53032 3.15921 3.00256 2.84793C3.4748 2.53665 4.02843 2.37171 4.59403 2.3738H19.4065C19.9752 2.37295 20.5313 2.54115 21.0042 2.85702C21.4771 3.17288 21.8454 3.62218 22.0624 4.14782C22.2795 4.67347 22.3353 5.25176 22.223 5.80923C22.1107 6.36671 21.8352 6.87822 21.4315 7.2788L14.824 13.875V19.2C14.8245 19.3533 14.7781 19.503 14.6909 19.6291C14.6038 19.7551 14.4801 19.8514 14.3365 19.905L9.89278 21.5625C9.80926 21.5956 9.72011 21.6122 9.63028 21.6113V21.6113ZM4.59403 3.8888C4.32487 3.88815 4.06149 3.96688 3.83684 4.11513C3.61219 4.26338 3.43624 4.47457 3.33098 4.7223C3.22573 4.97003 3.19585 5.24329 3.24508 5.50791C3.29431 5.77252 3.42047 6.01675 3.60778 6.21005L10.1703 13.0388C10.3052 13.1788 10.3805 13.3656 10.3803 13.56V19.7813L13.324 18.6788V13.5713C13.3249 13.3727 13.4044 13.1826 13.5453 13.0425L20.374 6.23255C20.5661 6.04082 20.6969 5.79648 20.7501 5.53039C20.8033 5.2643 20.7765 4.98842 20.6729 4.73759C20.5694 4.48677 20.3938 4.27227 20.1684 4.12119C19.943 3.97012 19.6779 3.88924 19.4065 3.8888H4.59403Z" fill="#083350" stroke="#083350" stroke-width="0.75"/>
</svg>
