<svg width="24" height="24" viewBox="0 0 24 24" fill="none"
  xmlns="http://www.w3.org/2000/svg">
  <g clip-path="url(#clip0_1_9)">
    <path d="M21.85 3.29999H11.1C9.9 3.29999 8.95 4.24999 8.95 5.44999V6.99999H4.4C2.9 6.99999 1.6 7.99999 1.2 9.44999L0 13.95V18.2C0 18.5 0.2 18.7 0.5 18.7H1.55C1.8 19.85 2.8 20.7 4 20.7C5.2 20.7 6.2 19.85 6.45 18.7H16.7C16.95 19.85 17.95 20.7 19.15 20.7C20.35 20.7 21.35 19.85 21.6 18.7H23.5C23.8 18.7 24 18.5 24 18.2V5.44999C24 4.24999 23.05 3.29999 21.85 3.29999ZM9.9 5.44999C9.9 4.79999 10.4 4.29999 11.05 4.29999H21.8C22.45 4.29999 22.95 4.79999 22.95 5.44999V14.25H9.9V5.44999ZM2.15 9.69999C2.4 8.69999 3.3 7.99999 4.35 7.99999H8.9V13.55H1.15L2.15 9.69999ZM1 14.55H8.9V17.7H6.4C6.15 16.55 5.15 15.7 3.95 15.7C2.75 15.7 1.7 16.55 1.5 17.7H1V14.55ZM4 19.7C3.15 19.7 2.5 19 2.5 18.2C2.5 17.35 3.2 16.7 4 16.7C4.85 16.7 5.5 17.4 5.5 18.2C5.5 19.05 4.8 19.7 4 19.7ZM19.2 19.7C18.35 19.7 17.7 19 17.7 18.2C17.7 17.35 18.4 16.7 19.2 16.7C20.05 16.7 20.7 17.4 20.7 18.2C20.7 19.05 20 19.7 19.2 19.7ZM23 17.7H21.65C21.4 16.55 20.4 15.7 19.2 15.7C18 15.7 16.95 16.55 16.75 17.7H9.9V15.25H23V17.7Z" fill="#083350" stroke="#083350" stroke-width="0.5"/>
  </g>
  <defs>
    <clipPath id="clip0_1_9">
      <rect width="24" height="24" fill="white"/>
    </clipPath>
  </defs>
</svg>
