<svg width="24
" height="24" viewBox="0 0 16 24" fill="none" xmlns="http://www.w3.org/2000/svg">
<path d="M8 11.5C7.73478 11.5 7.48043 11.6054 7.29289 11.7929C7.10536 11.9804 7 12.2348 7 12.5V15.5C7 15.7652 7.10536 16.0196 7.29289 16.2071C7.48043 16.3946 7.73478 16.5 8 16.5C8.26522 16.5 8.51957 16.3946 8.70711 16.2071C8.89464 16.0196 9 15.7652 9 15.5V12.5C9 12.2348 8.89464 11.9804 8.70711 11.7929C8.51957 11.6054 8.26522 11.5 8 11.5ZM13 7.5V5.5C13 4.17392 12.4732 2.90215 11.5355 1.96447C10.5979 1.02678 9.32608 0.5 8 0.5C6.67392 0.5 5.40215 1.02678 4.46447 1.96447C3.52678 2.90215 3 4.17392 3 5.5V7.5C2.20435 7.5 1.44129 7.81607 0.87868 8.37868C0.316071 8.94129 0 9.70435 0 10.5V17.5C0 18.2956 0.316071 19.0587 0.87868 19.6213C1.44129 20.1839 2.20435 20.5 3 20.5H13C13.7956 20.5 14.5587 20.1839 15.1213 19.6213C15.6839 19.0587 16 18.2956 16 17.5V10.5C16 9.70435 15.6839 8.94129 15.1213 8.37868C14.5587 7.81607 13.7956 7.5 13 7.5ZM5 5.5C5 4.70435 5.31607 3.94129 5.87868 3.37868C6.44129 2.81607 7.20435 2.5 8 2.5C8.79565 2.5 9.55871 2.81607 10.1213 3.37868C10.6839 3.94129 11 4.70435 11 5.5V7.5H5V5.5ZM14 17.5C14 17.7652 13.8946 18.0196 13.7071 18.2071C13.5196 18.3946 13.2652 18.5 13 18.5H3C2.73478 18.5 2.48043 18.3946 2.29289 18.2071C2.10536 18.0196 2 17.7652 2 17.5V10.5C2 10.2348 2.10536 9.98043 2.29289 9.79289C2.48043 9.60536 2.73478 9.5 3 9.5H13C13.2652 9.5 13.5196 9.60536 13.7071 9.79289C13.8946 9.98043 14 10.2348 14 10.5V17.5Z" fill="#083350"/>
</svg>
