<svg width="25" height="24" viewBox="0 0 25 24" fill="none" xmlns="http://www.w3.org/2000/svg">
  <g clipPath="url(#clip0_382_1883)">
    <path d="M17.0371 7.47638V16.2445C17.0371 18.6487 15.1279 20.5579 12.7944 20.4871C10.3903 20.4871 8.48108 18.578 8.55179 16.2445L8.55179 4.9308C8.6225 3.5873 9.68316 2.52664 11.0267 2.45593C12.4409 2.45593 13.5723 3.5873 13.5015 4.9308V14.6889C13.5015 15.1131 13.148 15.4667 12.7237 15.4667C12.2995 15.4667 11.9459 15.1131 11.9459 14.6889L11.9459 7.47638C11.9459 6.9107 11.5216 6.48644 10.956 6.48643C10.3903 6.48643 9.96601 6.9107 9.96601 7.47638L10.0367 14.7596C10.0367 16.3152 11.2388 17.5173 12.7944 17.5173C14.2794 17.4466 15.4814 16.2445 15.5521 14.7596L15.5522 5.00151C15.5521 2.45593 13.5723 0.476028 11.0267 0.476028C8.48108 0.476028 6.50118 2.45593 6.50118 5.00151L6.50118 16.3152C6.50118 18.0123 7.20829 19.5679 8.33966 20.6993C10.8145 23.1742 14.7036 23.1034 17.1785 20.6286C18.3806 19.4265 18.9463 17.8709 19.017 16.2445L19.017 7.47638C19.017 6.9107 18.5927 6.48643 18.027 6.48643C17.4613 6.48643 17.0371 6.9107 17.0371 7.47638Z" fill="#083350"/>
  </g>
  <defs>
    <clipPath id="clip0_382_1883">
      <rect width="24" height="24" fill="white" transform="translate(0.5)"/>
    </clipPath>
  </defs>
</svg>
