<svg width="51" height="51" viewBox="0 0 51 51" fill="none" xmlns="http://www.w3.org/2000/svg">
<path d="M2.65625 9.06313H0.53125V41.9263H2.65625V9.06313Z" fill="#083350"/>
<path d="M7.4375 9.06313H5.3125V38.0056H7.4375V9.06313Z" fill="#083350"/>
<path d="M12.2188 9.06313H10.0938V38.0056H12.2188V9.06313Z" fill="#083350"/>
<path d="M17 9.06313H14.875V38.0056H17V9.06313Z" fill="#083350"/>
<path d="M21.7812 9.06313H19.6562V38.0056H21.7812V9.06313Z" fill="#083350"/>
<path d="M26.5625 9.06313H24.4375V38.0056H26.5625V9.06313Z" fill="#083350"/>
<path d="M31.3438 9.06313H29.2188V38.0056H31.3438V9.06313Z" fill="#083350"/>
<path d="M36.125 9.06313H34V38.0056H36.125V9.06313Z" fill="#083350"/>
<path d="M40.9062 9.06313H38.7812V38.0056H40.9062V9.06313Z" fill="#083350"/>
<path d="M45.6875 9.06313H43.5625V38.0056H45.6875V9.06313Z" fill="#083350"/>
<path d="M50.4688 9.06313H48.3438V41.9263H50.4688V9.06313Z" fill="#083350"/>
</svg>
