<svg width="24" height="24" viewBox="0 0 24 24" fill="none" xmlns="http://www.w3.org/2000/svg">
  <path
    d="M18.5556 6.44444L14.1111 2H5.22222C3.99489 2 3 2.99489 3 4.22222V19.7778C3 21.0051 3.99489 22 5.22222 22H16.3333C17.5607 22 18.5556 21.0051 18.5556 19.7778V18.6667H22.4444V9.77778H18.5556V6.44444ZM13.5556 3.80156L16.754 7H14.1111C13.9638 6.99982 13.8226 6.94124 13.7185 6.83709C13.6143 6.73294 13.5557 6.59173 13.5556 6.44444V3.80156ZM16.8889 19.7778C16.8889 20.084 16.6396 20.3333 16.3333 20.3333H5.22222C5.07493 20.3332 4.93373 20.2746 4.82958 20.1704C4.72543 20.0663 4.66684 19.9251 4.66667 19.7778V4.22222C4.66667 3.91578 4.916 3.66667 5.22222 3.66667H11.8889V6.44444C11.8889 7.67178 12.8838 8.66667 14.1111 8.66667H16.8889V9.77778H6.88889V18.6667H16.8889V19.7778ZM21.3333 10.8889V17.5556H8V10.8889H21.3333Z"
    fill="#083350" />
  <path
    d="M8.83678 12.276C8.86011 12.2107 8.89278 12.1453 8.93478 12.08C8.97678 12.0147 9.02811 11.9563 9.08878 11.905C9.15411 11.849 9.22878 11.8047 9.31278 11.772C9.39678 11.7347 9.49011 11.716 9.59278 11.716C9.72811 11.716 9.84711 11.751 9.94978 11.821C10.0524 11.8863 10.1574 12.0007 10.2648 12.164L10.8108 12.997L11.6158 11.807C11.6531 11.7883 11.7044 11.772 11.7698 11.758C11.8398 11.7393 11.9074 11.73 11.9728 11.73C12.1874 11.73 12.3554 11.7813 12.4768 11.884C12.5981 11.9867 12.6588 12.1127 12.6588 12.262C12.6588 12.3927 12.6238 12.5093 12.5538 12.612C12.4884 12.7147 12.3974 12.8383 12.2808 12.983L11.5598 13.865L12.7008 15.496C12.6634 15.6687 12.5818 15.8063 12.4558 15.909C12.3344 16.007 12.1688 16.056 11.9588 16.056C11.8234 16.056 11.7068 16.0233 11.6088 15.958C11.5108 15.888 11.4104 15.7713 11.3078 15.608L10.7408 14.712L9.85878 16.042C9.82145 16.0467 9.78645 16.049 9.75378 16.049C9.72111 16.0537 9.68845 16.056 9.65578 16.056C9.38978 16.056 9.19378 16.0023 9.06778 15.895C8.94178 15.7877 8.87878 15.6547 8.87878 15.496C8.87878 15.3607 8.90678 15.244 8.96278 15.146C9.02345 15.0433 9.10745 14.9243 9.21478 14.789L9.94978 13.844L8.83678 12.276ZM13.9859 16.021C13.7852 16.021 13.6265 15.9627 13.5099 15.846C13.3932 15.7293 13.3349 15.5707 13.3349 15.37V11.751C13.3862 11.7417 13.4679 11.73 13.5799 11.716C13.6919 11.6973 13.7992 11.688 13.9019 11.688C14.0092 11.688 14.1025 11.6973 14.1819 11.716C14.2659 11.73 14.3359 11.758 14.3919 11.8C14.4479 11.842 14.4899 11.9003 14.5179 11.975C14.5459 12.0497 14.5599 12.1477 14.5599 12.269V15.034H16.1629C16.1955 15.0853 16.2259 15.1553 16.2539 15.244C16.2819 15.328 16.2959 15.4167 16.2959 15.51C16.2959 15.6967 16.2562 15.8297 16.1769 15.909C16.0975 15.9837 15.9925 16.021 15.8619 16.021H13.9859ZM18.1278 14.313C17.9224 14.243 17.7358 14.173 17.5678 14.103C17.3998 14.0283 17.2551 13.9397 17.1338 13.837C17.0124 13.7343 16.9168 13.613 16.8468 13.473C16.7814 13.3283 16.7488 13.1533 16.7488 12.948C16.7488 12.5513 16.9004 12.234 17.2038 11.996C17.5118 11.758 17.9411 11.639 18.4918 11.639C18.6924 11.639 18.8791 11.653 19.0518 11.681C19.2244 11.709 19.3714 11.7533 19.4928 11.814C19.6188 11.87 19.7168 11.9447 19.7868 12.038C19.8568 12.1267 19.8918 12.2317 19.8918 12.353C19.8918 12.4743 19.8638 12.5793 19.8078 12.668C19.7518 12.752 19.6841 12.8243 19.6048 12.885C19.5021 12.8197 19.3644 12.7637 19.1918 12.717C19.0191 12.6657 18.8301 12.64 18.6248 12.64C18.4148 12.64 18.2608 12.6703 18.1628 12.731C18.0648 12.787 18.0158 12.8593 18.0158 12.948C18.0158 13.018 18.0461 13.0763 18.1068 13.123C18.1674 13.165 18.2584 13.2047 18.3798 13.242L18.7508 13.361C19.1894 13.501 19.5254 13.6807 19.7588 13.9C19.9968 14.1147 20.1158 14.4087 20.1158 14.782C20.1158 15.1787 19.9594 15.5007 19.6468 15.748C19.3341 15.9907 18.8744 16.112 18.2677 16.112C18.0531 16.112 17.8524 16.0933 17.6658 16.056C17.4838 16.0233 17.3228 15.9743 17.1828 15.909C17.0474 15.839 16.9401 15.755 16.8608 15.657C16.7861 15.5543 16.7488 15.4377 16.7488 15.307C16.7488 15.1717 16.7884 15.0573 16.8678 14.964C16.9471 14.866 17.0334 14.7913 17.1268 14.74C17.2574 14.8427 17.4161 14.9313 17.6028 15.006C17.7941 15.0807 18.0018 15.118 18.2258 15.118C18.4544 15.118 18.6154 15.083 18.7088 15.013C18.8021 14.943 18.8488 14.8613 18.8488 14.768C18.8488 14.6747 18.8114 14.6047 18.7368 14.558C18.6621 14.5067 18.5571 14.4577 18.4218 14.411L18.1278 14.313Z"
    fill="#083350" />
</svg>
