<svg xmlns="http://www.w3.org/2000/svg" width="22" height="24" viewBox="0 0 22 24" fill="none">
  <path d="M15.0655 15.3225L15.0751 15.3128L15.0842 15.3028C15.1956 15.1807 15.3063 15.0548 15.4134 14.924L21.0127 19.8545L21.014 19.8557C21.477 20.261 21.5136 20.9931 21.07 21.4543C20.6452 21.8961 19.9399 21.874 19.534 21.3904L19.5069 21.3582L19.4758 21.3299L14.023 16.37C14.1222 16.2743 14.2216 16.1762 14.3143 16.0839C14.5209 15.878 14.738 15.6564 14.8926 15.4985C14.9678 15.4217 15.0282 15.36 15.0655 15.3225Z" stroke="#083350" stroke-width="1.25"/>
  <path d="M11.2882 17.0665C9.74739 17.0665 8.30139 16.4708 7.23467 15.3508C5.00641 13.087 5.00641 9.39348 7.23467 7.10585C8.3251 6.0097 9.77109 5.39014 11.2882 5.39014C12.829 5.39014 14.275 5.98587 15.3417 7.10585C17.57 9.36965 17.57 13.0632 15.3417 15.3508C14.275 16.447 12.829 17.0665 11.2882 17.0665ZM11.2882 6.36714C10.0081 6.36714 8.79919 6.86756 7.89841 7.79691C6.02572 9.70326 6.02572 12.8011 7.89841 14.6836C8.79919 15.6129 10.0081 16.1134 11.2882 16.1134C12.5683 16.1134 13.7772 15.6129 14.678 14.6836C16.5507 12.7772 16.5507 9.67943 14.678 7.79691C13.7772 6.86756 12.5683 6.36714 11.2882 6.36714Z" fill="#083350"/>
  <path d="M5.43123 1.34239V5.50964H1.31932L5.43123 1.34239Z" fill="#083350" stroke="#083350"/>
  <path d="M20 18L18.8696 17.4848L18.3044 2.0303H7L7.00026 1H19.7821L20 18Z" fill="#083350" stroke="#083350"/>
  <path d="M20 24L0.123535 23.9999V7.27246H1.64913V22.5H19V21L20 21.8728V24Z" fill="#083350" stroke="#083350"/>
  <path d="M11.2887 15.4223C10.1983 15.4223 9.15527 14.9934 8.37301 14.207C6.76108 12.5866 6.76108 9.91773 8.37301 8.29733C9.15527 7.51096 10.1746 7.08203 11.2887 7.08203C12.4028 7.08203 13.4222 7.51096 14.2044 8.29733C15.8163 9.91773 15.8163 12.5866 14.2044 14.207C13.4222 14.9696 12.4028 15.4223 11.2887 15.4223ZM11.2887 8.01138C10.4353 8.01138 9.65308 8.34499 9.03675 8.96455C7.80409 10.2275 7.80409 12.2768 9.03675 13.5398C9.62937 14.1594 10.4353 14.493 11.2887 14.493C12.1421 14.493 12.9243 14.1594 13.5407 13.5398C14.7733 12.2768 14.7733 10.2275 13.5407 8.96455C12.9481 8.34499 12.1421 8.01138 11.2887 8.01138Z" fill="#083350"/>
  <path d="M4.46173 8.94067H2.66016V9.89385H4.46173V8.94067Z" fill="#083350"/>
  <path d="M4.46173 12.5627H2.66016V13.5159H4.46173V12.5627Z" fill="#083350"/>
  <path d="M6.59517 16.1848H2.66016V17.138H6.59517V16.1848Z" fill="#083350"/>
  <path d="M14.9393 19.783H2.66016V20.7361H14.9393V19.783Z" fill="#083350"/>
</svg>
