<svg
  width="23"
  height="21"
  viewBox="0 0 23 21"
  fill="none"
  xmlns="http://www.w3.org/2000/svg"
>
  <path
    d="M19 12.74C18.7348 12.74 18.4804 12.8453 18.2929 13.0329C18.1054 13.2204 18 13.4748 18 13.74V17.74C18 18.0052 17.8946 18.2596 17.7071 18.4471C17.5196 18.6346 17.2652 18.74 17 18.74H3C2.73478 18.74 2.48043 18.6346 2.29289 18.4471C2.10536 18.2596 2 18.0052 2 17.74V8.14999L7.88 14.03C8.43962 14.5903 9.19809 14.9066 9.99 14.91C10.3927 14.911 10.7915 14.831 11.1625 14.6747C11.5336 14.5183 11.8695 14.2889 12.15 14C12.3302 13.8135 12.431 13.5643 12.431 13.305C12.431 13.0457 12.3302 12.7965 12.15 12.61C12.0569 12.5147 11.9456 12.4391 11.8229 12.3874C11.7001 12.3357 11.5682 12.3091 11.435 12.3091C11.3018 12.3091 11.1699 12.3357 11.0471 12.3874C10.9244 12.4391 10.8131 12.5147 10.72 12.61C10.5331 12.7932 10.2818 12.8958 10.02 12.8958C9.75825 12.8958 9.50693 12.7932 9.32 12.61L3.41 6.73999H8C8.26522 6.73999 8.51957 6.63463 8.70711 6.4471C8.89464 6.25956 9 6.00521 9 5.73999C9 5.47477 8.89464 5.22042 8.70711 5.03288C8.51957 4.84535 8.26522 4.73999 8 4.73999H3C2.20435 4.73999 1.44129 5.05606 0.878679 5.61867C0.31607 6.18128 0 6.94434 0 7.73999V17.74C0 18.5356 0.31607 19.2987 0.878679 19.8613C1.44129 20.4239 2.20435 20.74 3 20.74H17C17.7956 20.74 18.5587 20.4239 19.1213 19.8613C19.6839 19.2987 20 18.5356 20 17.74V13.74C20 13.4748 19.8946 13.2204 19.7071 13.0329C19.5196 12.8453 19.2652 12.74 19 12.74Z"
    fill="#083350"
  />
  <path
    d="M18.1553 6.38027L16.8964 5.65371V3C16.8964 2.84087 16.8332 2.68826 16.7207 2.57574C16.6081 2.46321 16.4555 2.4 16.2964 2.4C16.1373 2.4 15.9846 2.46321 15.8721 2.57574C15.7596 2.68826 15.6964 2.84087 15.6964 3V6C15.6964 6.10534 15.7241 6.20883 15.7767 6.30007C15.8294 6.3913 15.9052 6.46706 15.9964 6.51972L17.5553 7.41972C17.6235 7.45917 17.6989 7.48478 17.777 7.49509C17.8552 7.5054 17.9346 7.50022 18.0108 7.47983C18.0869 7.45943 18.1583 7.42424 18.2208 7.37625C18.2834 7.32827 18.3359 7.26843 18.3753 7.20015C18.4147 7.13188 18.4402 7.05651 18.4505 6.97835C18.4608 6.90019 18.4556 6.82077 18.4351 6.74463C18.4147 6.6685 18.3795 6.59713 18.3315 6.53461C18.2834 6.47209 18.2236 6.41965 18.1553 6.38027ZM16.2964 0C15.1097 0 13.9497 0.351894 12.963 1.01118C11.9763 1.67047 11.2072 2.60754 10.7531 3.7039C10.299 4.80025 10.1802 6.00665 10.4117 7.17054C10.6432 8.33443 11.2146 9.40352 12.0537 10.2426C12.8929 11.0818 13.962 11.6532 15.1258 11.8847C16.2897 12.1162 17.4961 11.9974 18.5925 11.5433C19.6888 11.0891 20.6259 10.3201 21.2852 9.33342C21.9445 8.34672 22.2964 7.18669 22.2964 6C22.2946 4.40924 21.6619 2.88415 20.5371 1.75931C19.4122 0.634478 17.8871 0.00176915 16.2964 0ZM16.2964 10.8C15.347 10.8 14.419 10.5185 13.6297 9.99105C12.8403 9.46362 12.2251 8.71396 11.8618 7.83688C11.4985 6.95979 11.4034 5.99467 11.5886 5.06357C11.7738 4.13246 12.231 3.27718 12.9023 2.60589C13.5736 1.93459 14.4288 1.47744 15.36 1.29223C16.2911 1.10702 17.2562 1.20208 18.1333 1.56538C19.0104 1.92868 19.76 2.54391 20.2874 3.33326C20.8149 4.12262 21.0964 5.05065 21.0964 6C21.0949 7.27259 20.5888 8.49264 19.6889 9.3925C18.789 10.2924 17.569 10.7985 16.2964 10.8Z"
    fill="#083350"
  />
</svg>
