<svg width="38" height="47" viewBox="0 0 38 47" fill="none" xmlns="http://www.w3.org/2000/svg">
<path d="M29.151 0.00199973C29.0964 0.00211607 29.0419 0.0069536 28.9882 0.016456H0.5V47H37.4881V8.28917C37.504 8.19342 37.504 8.0958 37.4881 8.00004V7.77236L37.3327 7.62418C37.276 7.54524 37.2067 7.47569 37.1275 7.41817L29.9092 0.367026C29.853 0.29094 29.785 0.223877 29.7076 0.168249L29.5486 0.0146491H29.3359C29.2749 0.00378439 29.213 0.000748313 29.151 0.00199973ZM2.3494 1.82352H28.2411V9.05175H35.6387V45.1929H2.3494V1.82352ZM30.0905 3.10111L34.3312 7.24469H30.0905V3.10111ZM11.5964 5.43763V7.24469H24.5423V5.43763H11.5964ZM6.04821 10.8588V12.6659H31.9399V10.8588H6.04821ZM6.04821 14.4729V16.28H31.9399V14.4729H6.04821ZM6.04821 18.087V19.8941H20.0815L21.9309 18.087H6.04821ZM25.8831 18.087L27.7325 19.8941H31.9399V18.087H25.8831ZM23.2495 19.3502L17.3647 25.1002L14.7497 22.5451L13.4421 23.8227L17.3647 27.6536L24.5571 20.6278L23.2495 19.3502ZM6.04821 21.6994V23.5064H10.5053L10.1724 23.183L11.6889 21.7012H6.04821V21.6994ZM16.501 21.6994L17.3647 22.5451L18.2284 21.7012H16.501V21.6994ZM26.0773 21.6994L25.8683 21.9054L24.2279 23.5082H31.9399V21.7012H26.0773V21.6994ZM6.04821 25.3135V27.1205H14.2041L12.3547 25.3135H6.04821ZM22.3785 25.3135L20.5253 27.1205H31.9399V25.3135H22.3785ZM6.04821 28.9276V30.7347H24.5423V28.9276H6.04821ZM18.994 36.1558C17.472 36.1558 16.2199 37.381 16.2199 38.8664C16.2199 40.3536 17.472 41.577 18.994 41.577C20.5161 41.577 21.7682 40.3536 21.7682 38.8664C21.7682 37.381 20.5161 36.1558 18.994 36.1558ZM6.04821 37.9629V39.77H13.4458V37.9629H6.04821ZM18.994 37.9629C19.5156 37.9629 19.9187 38.3586 19.9187 38.8664C19.9187 39.3778 19.5156 39.77 18.994 39.77C18.8721 39.7717 18.7511 39.7495 18.6381 39.7046C18.5251 39.6598 18.4225 39.5934 18.3363 39.5091C18.2501 39.4249 18.182 39.3246 18.1362 39.2142C18.0903 39.1038 18.0676 38.9855 18.0693 38.8664C18.0693 38.3586 18.4725 37.9629 18.994 37.9629ZM24.5423 37.9629V39.77H31.9399V37.9629H24.5423Z" fill="#083350"/>
</svg>
